<?xml version="1.0" encoding="UTF-8"?>
<!-- Generator: Adobe Illustrator 23.1.1, SVG Export Plug-In . SVG Version: 6.00 Build 0)  -->
<svg version="1.1" id="svg" xmlns="http://www.w3.org/2000/svg" xmlns:xlink="http://www.w3.org/1999/xlink" x="0px" y="0px" viewBox="0 0 680 680" style="enable-background:new 0 0 680 680;" xml:space="preserve">
<style type="text/css">
	.st0{fill:#FFFFFF;}
	.st1{fill:#B1063A;}
	.st2{fill:#FFC20E;}
</style>
<g>
	<path class="st0" d="M665.3,530.8c-48.6-10.2-145-0.3-199.9,116c0,0-94-112.2-224.6-131.9c5.1-62.4-77.6-79-93.4-186.4   c0,0-64.3-52.6-96.4-135.5l17.1,5.5c0,0-25-27.6-44.2-75.4l18.1,6c0,0-18.3-24.8-28.3-95.9C235.3,185.7,352.1,132.4,487,208.8   c91.5,51.8,113.3,112,121,172.1C608,380.8,675.7,442.2,665.3,530.8"/>
	<path d="M656.1,517.8c1.5-75.4-57.8-129-57.8-129c-6.4-47.6-23.7-116.6-116-167.5C342.1,144.1,264.6,207.2,43.6,71.8   c4.6,25.3,19.2,60.3,37.7,82.1l-22.9-7.5c16.6,35,43.2,66.8,57.1,77.1l-25.6-8c27.1,66.6,80.1,106,80.1,106   c12.1,101.9,86.8,119.3,92.9,182c97.4,15.1,200.3,119.4,200.3,119.4C517.2,530.1,592.4,512.1,656.1,517.8"/>
	<path class="st0" d="M531.3,386.6c-21.2,34.1-57,24.6-69.7-17.9l25.8,1.5c-22.7-13.6-43.2-33.5-59.1-53.1   c-4.7,93.9,83.7,136.1,112.9,70.1C537.9,387.3,534.6,387.1,531.3,386.6"/>
	<path class="st1" d="M470.6,234.1C369,178.4,244.9,214.6,86.3,116.4c15.7,46.9,113.9,101.9,113.9,101.9l-86.9-28.2   c22.1,38.4,112.7,86.4,112.7,86.4l-81-26.2c33.6,55.7,109.6,93.3,109.6,93.3l-46.8-3.4c6.1,52.4,78.4,97.5,82.3,137.9   c32.7,12.5,74.9,34.3,107.8,62.6c62.8-30.9,45.5-135.5-74.3-283.8c164.8,10,160.3,132.2,254.9,114.6   C571.7,338.8,567.2,287.1,470.6,234.1"/>
	<path class="st2" d="M644.2,498.3c-5.3-38.8-40.1-84-65.1-99.9c-11.7,24-40.3,39.4-65.4,46.4C572.7,451.9,621.1,475.4,644.2,498.3"/>
	<path class="st0" d="M531.3,386.6c-21.2,34.1-57,24.6-69.7-17.9l25.8,1.5c-22.7-13.6-43.2-33.5-59.1-53.1   c-4.7,93.9,83.7,136.1,112.9,70.1C537.9,387.3,534.6,387.1,531.3,386.6"/>
	<path class="st2" d="M518,530.4c38.3-21.5,87.7-31.9,123.8-24.7c-23.1-19.5-80.1-43.5-131.8-38.5   C510.1,467.3,527.7,497.3,518,530.4"/>
</g>
</svg>