<?xml version="1.0" encoding="UTF-8"?>
<!-- Generator: Adobe Illustrator 23.1.1, SVG Export Plug-In . SVG Version: 6.00 Build 0)  -->
<svg version="1.1" id="Layer_1" xmlns="http://www.w3.org/2000/svg" xmlns:xlink="http://www.w3.org/1999/xlink" x="0px" y="0px" viewBox="0 0 800 800" style="enable-background:new 0 0 800 800;" xml:space="preserve">
<style type="text/css">
	.st0{clip-path:url(#SVGID_2_);fill:#A5ACAF;}
	.st1{fill:#FFFFFF;}
	.st2{fill:#A71930;}
</style>
<g>
	<g>
		<defs>
			<rect id="SVGID_1_" x="7.5" y="29.3" width="785" height="741.4"/>
		</defs>
		<clipPath id="SVGID_2_">
			<use xlink:href="#SVGID_1_" style="overflow:visible;"/>
		</clipPath>
		<path class="st0" d="M736.2,326.1c0,0,46.4-7,54.9-50.6c8.4-43.6-21.2-78.5-74.6-102.7c-77.4-35.2-170.2-68.9-365.8-112.5    c-105.6-23.6-135.1-31-135.1-31L7.5,251.6l178.7-5.6c0,0-59.1,90-49.2,237.7c9.8,147.7,72.7,221.5,122.4,254.6    c33.8,22.5,80.2,32.4,80.2,32.4s-23.9-33.8-16.9-76c7-42.2,23.9-64.7,36.6-87.2c12.7-22.5,94.3-182.9,94.3-182.9s29.5,0,42.2,1.4    c12.7,1.4,21.1,7,21.1,14.1c0,7-8.4,16.9-8.4,16.9s42.2,2.8,97.1-18.3c54.9-21.1,73.2-56.3,73.2-56.3s-23.9-29.5-52-52    c-28.1-22.5-50.6-36.6-50.6-36.6h123.8c0,0,23.9,0,32.4,7C740.4,307.9,736.2,326.1,736.2,326.1L736.2,326.1z"/>
	</g>
	<path class="st1" d="M749.6,308.6c0,0,26.7-8.4,30.3-35.9c3.5-27.4-12-47.1-20.4-55.6c-8.4-8.4-45.7-35.2-111.1-58.4   c-53.9-19.1-135.8-40.8-282.8-73.9c-95.4-21.5-135.8-24.6-135.8-24.6L76.4,225.6l158.3-0.7c0,0-65.4,80.3-71,239.2   C155.2,703.2,317,753.8,317,753.8s-15.5-28.1-11.3-60.5c4.2-32.4,18.3-57.7,33.8-85.8C355,579.4,439.4,412,439.4,412s48.5,0,59.1,0   c10.5,0,25.3,5.6,30.9,13.4c5.6,7.7,2.8,14.1,2.8,14.1s40.8,2.9,68.2-9.1c40.1-17.6,61.2-44.3,61.2-44.3s-28.1-33.8-69.6-59.8   c-41.5-26-76.7-43.6-76.7-43.6h196.2c0,0,23.9,0,30.9,6.3C749.6,295.2,749.6,308.6,749.6,308.6L749.6,308.6z"/>
	<path d="M758,291c0,0,12.7-7,12.7-28.1c0-16.2-15.5-35.2-28.1-44.3c-12.7-9.1-40.1-26-85.1-40.8c-45-14.8-140-38-221.6-54.9   C354.3,106,221.3,84.2,221.3,84.2l12,17.6L145.4,196l312.3,24.6l-2.8,3.5H245.9l15.5,15.5l-33.8,59.8l175.8-36.6l-4.9,4.9   l-205.4,69.6l17.6,11.3c0,0-6.3,12-10.6,37.3c-4.2,25.3-7,49.2-7,49.2L369,327.6l-0.7,4.2L174.2,486.5l18.3,4.9   c0,0,0.7,33.1,4.2,52.8c3.5,19.7,9.1,42.2,9.1,42.2l159-187.1v6.3L208,636.3h15.5c0,0,8.4,24.6,28.1,49.9   c19.7,25.3,48.5,45.7,48.5,45.7s-10.7-22.1-6.3-59.1c2.8-23.9,26.7-63.3,38-85.8c11.3-22.5,154.7-306,154.7-306l-27.4-14.8h266.6   c0,0,16.2,2.1,23.9,8.4C757.3,281.1,758,291,758,291L758,291z"/>
	<path class="st1" d="M760.1,273.4c0,0,3.5-13.4-2.8-24.6c-6.3-11.3-20.4-19-20.4-19l2.8,14.1l-73.2,9.1l-2.8,4.2h71   c0,0,7.4,0.4,15.5,5.3C757.1,266.7,760.1,273.4,760.1,273.4L760.1,273.4z"/>
	<path class="st1" d="M725.7,236.1c0,0-7.7-10.6-20.4-18.3c-12.7-7.7-35.2-18.3-35.2-18.3s15.5,13,23.2,22.2   c7.7,9.1,9.8,13.7,9.8,13.7L725.7,236.1L725.7,236.1z"/>
	<path class="st2" d="M642,212.9c0,0-93.8-25.4-202.6-46.4c-109-21.1-189.2-33.8-189.2-33.8l-24.6,28.8l415.7,56.3L642,212.9   L642,212.9z"/>
	<polygon class="st2" points="389.4,244.5 276.9,246.7 262.5,272 388,248.1 389.4,244.5  "/>
	<polygon class="st2" points="351.1,310.3 229.1,354.3 221,386.6 349,315.2 351.1,310.3  "/>
	<path class="st2" d="M333.9,392.6L215.4,492.8c0,0,0.4,13,1.4,19.3c1.1,6.3,2.8,14.1,2.8,14.1l114.7-128L333.9,392.6L333.9,392.6z"/>
	<path class="st2" d="M355.3,473.1c0,0-34.1,50.3-57.3,85.8c-23.2,35.5-46.1,69.6-46.1,69.6s5.3,10.5,8.8,16.2   c3.5,5.6,9.1,12.7,9.1,12.7l87.9-181.1L355.3,473.1L355.3,473.1z"/>
	<path d="M496.4,286.8c0,0,62.2,30.6,95.7,53.1c33.4,22.5,56.3,46.8,56.3,46.8s-7,10.6-23.9,21.5c-16.9,10.9-34.5,13.7-34.5,13.7   s13.4-12,14.4-17.9c1.1-6-1.4-7.4-4.9-7.4c-3.5,0-38.7,0-38.7,0s-6.3,4.6-6,14.1c0.4,9.5,4.9,15.5,4.9,15.5s-12.3-1.8-21.1-11.9   c-8.8-10.2-8.8-17.6-8.8-17.6h-80.2l50.3-98.8L496.4,286.8L496.4,286.8z"/>
	<polygon class="st2" points="487.9,365.2 577.6,378.9 575.5,383.1 478.1,383.1 487.9,365.2  "/>
</g>
</svg>