<?xml version="1.0" encoding="UTF-8"?>
<!-- Generator: Adobe Illustrator 27.9.1, SVG Export Plug-In . SVG Version: 6.00 Build 0)  -->
<svg version="1.1" id="Layer_1" xmlns="http://www.w3.org/2000/svg" xmlns:xlink="http://www.w3.org/1999/xlink" x="0px" y="0px" viewBox="0 0 800 800" style="enable-background:new 0 0 800 800;" xml:space="preserve">
<style type="text/css">
	.st0{fill:#FFFFFF;stroke:#FFFFFF;stroke-width:41.3068;stroke-miterlimit:10;}
	.st1{fill:#2E2062;}
	.st2{fill:#D0B137;}
	.st3{fill:#FFF100;}
	.st4{fill:#231F20;}
	.st5{fill:#FFFFFF;}
	.st6{fill:#BF2026;}
</style>
<path class="st0" d="M710.8,97.9c0,0-136.9-66.6-306.5-66.6S97.8,97.9,97.8,97.9S54,324.2,154.6,516.1  c100.6,191.8,249.7,253.3,249.7,253.3S553.4,707.9,654,516.1C754.6,324.2,710.8,97.9,710.8,97.9z"/>
<path class="st1" d="M710.8,97.9c0,0-136.9-66.6-306.5-66.6S97.8,97.9,97.8,97.9S54,324.2,154.6,516.1  c100.6,191.8,249.7,253.3,249.7,253.3S553.4,707.9,654,516.1C754.6,324.2,710.8,97.9,710.8,97.9z"/>
<path class="st2" d="M404.3,155.7c-110.4,0-207.4,25.8-258.6,42.5c-0.5,19.9-0.4,42.4,1.1,66.5c5.3,85.7,24.9,161.4,58.2,225  c46.9,89.5,105.4,146.9,146.1,179.3c21.1,16.8,39.5,28.6,53.1,36.4c17.2-10,43.4-27,72.7-52.9c50.7-44.7,93.3-99.5,126.5-162.8  c46.6-88.9,58.1-187.6,59.6-254.7c0.3-13,0.2-25.3-0.1-36.8C611.9,181.5,515,155.7,404.3,155.7z"/>
<path class="st3" d="M404.3,145.3v243.5h256.4c14.8-65.8,20-131.7,18.9-197.9C590.4,156.7,498.3,145.3,404.3,145.3z"/>
<polygon class="st4" points="464.1,214.3 464.1,388.9 528.3,388.9 528.3,259.2 "/>
<polygon class="st4" points="601.4,388.9 601.4,303.7 661.5,346.3 654.4,388.9 "/>
<polyline class="st4" points="404.6,174.1 464.1,214.3 464.1,147 404.3,145.3 "/>
<polygon class="st4" points="528.3,259.2 528.3,165.8 601.4,214.3 601.4,303.7 "/>
<polygon class="st4" points="601.4,214.3 601.4,172.9 669.8,191 666.6,258 "/>
<path class="st5" d="M554.6,600.5h-62.4l26.4-57c2.6-17.5-8.8-23.9-13.4-24.9c-3.2-0.7-12.2-1.2-23.4-1.2l-33.6,82.1h-77.4  l47.6-110.8c8-19.5,22.1-34.1,40.6-42.6c-38.3,3-74,9.5-74.5,9.5l-43.7,7.9c0,0,38.3-23.9,48.4-28.6c10.7-5,46.7-26.4,135.6-26.4  c36.8,0,67.3,10.3,79.5,26.8c5.6,7.6,7.2,16.2,4.5,24.7c-7.7,24.9-36.2,36.7-57.1,42.1c21.7,9.2,26.7,23.2,26.7,34  c0,1.8-0.1,3.6-0.2,5.4L554.6,600.5z M546.4,470.3c5.9-14.2-6.3-23.6-35.2-23.9l-18.9,45.8c2.9,0,6.3,0.2,10,0.4  C524.1,492.9,540.7,483.9,546.4,470.3z"/>
<path class="st4" d="M507.6,591.9h45c0,0,13.8-36.4,16.7-49.1c0.5-2.1,0.4-4.3,0.4-6.6c0-40-90.3-35.2-90.3-35.2l22.7-55.1  c-36.1,0-63.9,16.9-75.9,46.2l-42.5,98.9h56.6l35.9-82.1c0,0,23.2-0.2,30.8,1.4c8.8,1.9,24.6,12.9,18.7,34.5  C522.3,557,507.6,591.9,507.6,591.9z M553,451.8c14,29.8-25.5,46.2-25.5,46.2s62.3-5.8,73-40.4c6.8-22.1-27.8-40.4-75.8-40.4  c-93.6,0-141.7,30.1-141.7,30.1S537.7,419.2,553,451.8z"/>
<path class="st5" d="M404.3,720.5V388.9H145.4C186.1,538.1,273.8,647.5,404.3,720.5z"/>
<path class="st6" d="M310.8,392c-9.4,0-17.1,7.7-17.1,17.1v27.6h-30.9c-5.7,0-10.3,6.7-10.3,15v4.7c0,8.5,5,15.5,11.2,15.5h30.1  v49.8h-76.9v22.3h76.9h19.8v-22.3V392H310.8z"/>
<polygon class="st6" points="247.8,568.2 293.3,568.2 293.3,624.4 "/>
<path class="st6" d="M316.2,677.7c9.4,0,17.1-7.7,17.1-17.1v-9.1h30.9c5.7,0,10.3-6.7,10.3-15v-4.7c0-8.5-5-15.5-11.2-15.5h-30.1  v-49.8h71.1v-22.3h-71.1h-19.8v22.3v111.2H316.2z"/>
<path class="st6" d="M333.3,409.1v27.6h30.9c5.7,0,10.3,6.7,10.3,15v4.7c0,8.5-5,15.5-11.2,15.5h-30.1v49.8h71.1V388.9h-90.9v3.1  h2.7C325.6,392,333.3,399.6,333.3,409.1z"/>
<path class="st4" d="M691.6,112.7c-33.8-14.6-149.9-60-287.3-60c-137,0-253.5,45.4-287.3,60c-6.8,46.3-27.4,233.5,56.5,393.4  c49.8,95,112.1,156.1,155.5,190.6c34,27,62.1,42.4,75.3,49c31.6-15.7,148.2-82.1,230.8-239.6c49.8-95.1,62.1-199.5,63.7-270.4  C700,178,694.5,132.5,691.6,112.7z M663.2,234.9c-1.5,67.1-13,165.7-59.6,254.7C570.3,553,527.8,607.7,477,652.4  c-12.8,11.3-24.9,20.8-36,28.9l8-16.5l-21.2,11.4l3.2-30l-18.6,29.7l-8.2-43.8l-8.2,43.8l-18.6-29.7l3.2,30l-21.2-11.4l8.1,16.6  c-5.3-3.8-10.8-8-16.5-12.5c-40.7-32.4-99.2-89.8-146.1-179.3c-33.3-63.6-52.9-139.3-58.2-225c-1.5-24.1-1.7-46.5-1.1-66.5  c51.2-16.7,148.3-42.5,258.6-42.5c110.7,0,207.6,25.8,258.7,42.5C663.3,209.7,663.4,222,663.2,234.9z"/>
<g>
	<path class="st5" d="M200.8,138.3c6.7,5.3,13.5,10.7,20.3,16.2c11.9-2.9,23.8-5.5,35.7-7.9c-4.2-1.3-8.4-2.5-12.7-3.7   c-6.4-4.5-12.8-8.9-19.2-13.2c9.9-4.4,17.2-9.8,17.2-15.3c0-10.2-22.9-8.9-41.8-3.5c-7.5,2.1-15,4.3-22.5,6.6c0,0,0,0,0,0   c-4.6,1.4-9.1,3.2-13.2,4.9c-6.4,2.7-12.8,5.5-19.1,8.3c3.7,2.2,7.3,4.4,11,6.6c3-2.9,6-5.7,9-8.6c1.2-1,2.8-2,4.9-2.8   c0,12.2,0,24.4,0,36.6c-3.1,3.1-6.2,6.2-9.2,9.3c14.6-4.9,29.4-9.4,44.2-13.4c-3.1-1.3-6.2-2.5-9.3-3.7c0-5.1,0-10.1,0-15.2   C197.6,139.2,199.2,138.7,200.8,138.3C200.8,138.3,200.8,138.3,200.8,138.3z M196,118.1c1.4-0.4,2.8-0.8,4.3-1.2   c7.7-2.1,13.8,0,13.8,4.1c0,4-6.1,9.2-13.8,11.3c-1.4,0.4-2.8,0.8-4.3,1.2C196,128.4,196,123.2,196,118.1z"/>
	<path class="st5" d="M274.6,124.4c3.5-5.5,6.9-11,10.4-16.5c3.4,4.4,6.8,8.8,10.2,13.3C288.3,122.1,281.5,123.2,274.6,124.4z    M299.4,126.7c1.5,2,3,4,4.5,6c-3.1,2.5-6.2,5-9.3,7.5c16.2-2.3,32.5-4.1,48.9-5.4c-3.2-1.9-6.5-3.7-9.7-5.6   c-10.5-13.3-21-26.3-31.5-39.2c-6.4,0.8-12.8,1.8-19.1,2.8c-10.2,15.9-20.4,31.9-30.6,48.2c-4.3,3-8.5,6-12.8,9.1   c11.7-2.6,23.4-4.8,35.1-6.8c-3.1-1.6-6.2-3.1-9.3-4.6c1.5-2.5,3-4.9,4.5-7.4C279.8,129.6,289.6,128.1,299.4,126.7z"/>
	<path class="st5" d="M329.4,93.4c-3.2-1.8-6.5-3.6-9.7-5.4c13.8-1.5,27.7-2.6,41.6-3.4c-2.1,2.2-4.1,4.4-6.2,6.6   c5.3,8.8,10.7,17.6,16.1,26.5c5.6-9.4,11.3-18.6,16.9-27.9c-2.1-2-4.1-4.1-6.2-6.1c10.8-0.3,21.6-0.3,32.4-0.2   c-4.3,2.1-8.7,4.2-13,6.3c-11.6,18.2-23.3,36.7-34.9,55.5C354,127.7,341.6,110.4,329.4,93.4z"/>
	<path class="st5" d="M482.5,136.8c-24.8-2.6-49.8-4.1-74.7-4.2c3.2-2.1,6.4-4.1,9.6-6.2c0-12.2,0-24.3,0-36.5   c-4.3-2.2-8.6-4.4-12.8-6.5c26,0.1,52.1,1.5,78,4.3c0,4.6,0,9.2,0,13.8c-5.2-3.1-10.4-6.2-15.7-9.2c-7.6-0.7-15.3-1.2-22.9-1.6   c0,4.6,0,9.1,0,13.7c5.1,0.3,10.2,0.6,15.4,1c4.2-1.8,8.4-3.5,12.6-5.2c0,6.2,0,12.5,0,18.7c-4.2-2.5-8.4-5-12.6-7.4   c-5.1-0.4-10.2-0.7-15.4-1c0,5.7,0,11.4,0,17.1c7.7,0.4,15.3,1,22.9,1.6c5.2-2.1,10.4-4.2,15.7-6.2   C482.5,127.6,482.5,132.2,482.5,136.8z"/>
	<path class="st5" d="M518,135.1c3.2,2.6,6.3,5.2,9.5,7.8c-9.8-1.6-19.7-3.1-29.5-4.4c2.1-1.8,4.2-3.7,6.3-5.5c0-12.2,0-24.3,0-36.5   c-2.1-2.4-4.2-4.8-6.3-7.2c8.9,1.1,17.8,2.4,26.7,3.9c12.3,10.5,24.5,21.4,36.7,32.5c0-6.4,0-12.8,0-19.2c-3.1-2.8-6.3-5.6-9.4-8.3   c10.8,2.2,21.6,4.6,32.3,7.2c-3.1,1.3-6.3,2.7-9.4,4.1c0,16.5,0,33.1,0,49.6c-18.8-17.7-37.8-34.7-56.8-51   C518,117.2,518,126.2,518,135.1z"/>
	<path class="st5" d="M659,161.7c0,9.7-10.9,12.7-35.4,5.1c-4.1-1.3-8.5-2.7-12.6-4.3c-6.7-2.5-13.4-4.9-20.1-7.2   c3.7-2.8,7.5-5.5,11.2-8.2c3.6,3.3,7.2,6.6,10.8,10c2.3,1.6,5.4,3.2,9,4.3c7,2.1,14,1.8,14-2.8c0-2.7-2.3-4-4.6-5.5   c-7.8-4.9-15.6-9.7-23.4-14.3c-8.7-5.1-15.5-11.8-15.5-17.3c0-6.6,8.6-12.7,32-5.6c4.6,1.4,9.1,3.2,13.2,4.9   c6.4,2.7,12.8,5.4,19.1,8.3c-3.7,2.2-7.3,4.4-11,6.6c-3.4-3.2-6.7-6.4-10.1-9.6c-1.6-1.4-3.9-2.7-7.3-3.8c-4.9-1.5-11.6-2.3-11.6,2   c0,1.4,2,4.1,4.1,5.4c8.8,5.4,17.6,11,26.4,16.8C652,149.4,659,155.1,659,161.7"/>
</g>
<path class="st5" d="M184.3,373.4l47.6-110.8c8-19.5,22.1-34.1,40.6-42.6c-38.3,3-74,9.5-74.5,9.5l-43.7,7.9  c0,0,38.3-23.9,48.4-28.6c10.7-5,46.7-26.4,135.6-26.4c36.8,0,67.3,10.3,79.5,26.8c5.6,7.6,7.2,16.2,4.5,24.7  c-7.7,24.9-36.2,36.7-57.1,42.1c21.7,9.2,26.7,23.2,26.7,34c0,26.1-15,45.3-43.4,55.7c-20,7.3-39.8,7.6-40.6,7.6h0H184.3z   M293.8,349.2c4.5,0,7.8-0.5,10.7-1.7c9.2-3.7,25.1-12.5,27.7-30.1c2.6-17.5-8.8-23.9-13.4-24.9c-3.2-0.7-12.2-1.2-23.4-1.2  l-25.5,57.9H293.8z M359.9,244.2c5.9-14.2-6.3-23.6-35.2-23.9l-18.9,45.8c2.9,0,6.3,0.2,10,0.4C337.6,266.8,354.2,257.8,359.9,244.2  z"/>
<path class="st4" d="M320.5,284.1c8.8,1.9,23.3,12.3,20.1,34.5c-3.2,22-22.5,32.6-33,36.8c-4.4,1.8-9.1,2.3-13.8,2.3h-37l33-75  C289.7,282.7,313,282.5,320.5,284.1z M292.9,274.8l22.7-55.1c-36.1,0-63.9,16.9-75.9,46.2l-42.5,98.9h110.5c0,0,75.5-0.6,75.5-54.8  C383.2,270.1,292.9,274.8,292.9,274.8z M366.5,225.6c14,29.8-25.5,46.2-25.5,46.2s62.3-5.8,73-40.4c6.8-22.1-27.8-40.4-75.8-40.4  c-93.6,0-141.7,30.2-141.7,30.2S351.2,193.1,366.5,225.6z"/>
</svg>