<?xml version="1.0" encoding="utf-8"?>
<!-- Generator: Adobe Illustrator 23.1.1, SVG Export Plug-In . SVG Version: 6.00 Build 0)  -->
<svg version="1.1" id="Layer_1" xmlns="http://www.w3.org/2000/svg" xmlns:xlink="http://www.w3.org/1999/xlink" x="0px" y="0px"
	 viewBox="0 0 800 800" style="enable-background:new 0 0 800 800;" xml:space="preserve">
<style type="text/css">
	.st0{fill:#FFFFFF;}
	.st1{fill:#C60C30;}
	.st2{fill:#00338D;}
	.st3{fill:#194787;}
</style>
<g>
	<path class="st0" d="M783.1,214.2c-11.4-20.9-53.7-28.6-84-26.4c-19.6-27.1-45.4-51.3-78.9-66c-0.8,1.9-1.9,4.8-2.6,7.1
		c-9.7-2.8-31.7-8.2-49.8-8.5l-0.1,6.3c-19.6,2.5-47.3,6.1-56.5,8c1.4,4.7,1.8,6.9,2.9,9.9c-66.8,18.4-127.8,53.7-182.6,101
		c2.4,0.7,4,1.8,4.9,1.9C276.8,270,233.1,305,195,340.6c-45,7-125.8,17.4-125.8,17.4L9.9,475.6l156.9-33.1
		C153.8,479.6,118,512.7,85,535c-4.4,22.8-16.2,44.3-37.1,58.1c9.7,10.9-2.2,24.7-4,36.3c13.3,17.2,40.5,50.2,40.5,50.2l16.7-69.8
		l33.7-34.3c-2.2,5.8-1.4,12.3-0.7,14.8c-3,6.2-11.4,13.9-12,24.7c12.7,16.5,37.2,46.6,37.2,46.6s17.7-47,25.7-71L321,465.1
		c10.3-1.5,35.4-1.2,53.6-0.7l7.8-7.5l38.3-2.9c3.2,5.1,5,8.4,7,12.4c-6.9,4-12.9,7.1-19.6,10.4l-17.3,61.7c0,0,33.1-17.9,50.2-26.8
		c6.2,1,20.6,0.6,28-1c-3.6,17.5-10,53.7-10,53.7s29.4-15.8,43.2-23.1c37.6,0.2,75.5-14.9,85.8-20.2c28.9-11.5,20.4-83.1,20.4-83.1
		c5.8-0.7,13-2.5,18.6-0.8c16.3,4.2,5.6,65.6,5.6,65.6l37.8-36l4.1,5.3c0,0,22.8-28.4,32.9-43.4c27.8,0.3,34.3-17.3,37.8-29.3
		c13.9-47.9,30.1-44.6,36.1-70.7C785.1,318.1,797.9,239.4,783.1,214.2z M29.3,460.6l46-92.8l621.5-90.9
		c-19.3,10.1-21,31.9-11.8,43.4C521.5,356,29.3,460.6,29.3,460.6z M180.5,582c-8.7,19.9-23.6,61.5-23.6,61.5s-17.1-19.9-24.2-29.5
		c-0.1-7.3,7.8-14.8,11.6-22.1c-0.7-2.2-1-5.1-0.5-7c13.8-10.2,22.5-24.7,25.4-40.7c47-73.8,135.6-77.3,135.6-77.3L180.5,582z
		 M582.1,512.8c-38.2,18.9-83.2,19.2-83.2,19.2l-26.7,14.2c0,0,5.2-24.9,7.4-36.5c29.5-4.9,70.9-12.7,86.5-36.2
		c5.1-7.7,8.6-20.5,12-30.4c6.8-1,12.6-2,19.6-2.9C597.7,440.2,605.6,501.1,582.1,512.8z M779,276.1c-1.7,24.3-5.1,54.2-17.7,68.6
		c-12.3,14-21.7,34.5-28.7,55.7c-3.7,12.6-8.6,18.4-31.3,19.4c-8.5,12.4-16.7,25.5-26.9,36.6l-2.9-4.1c-9.9,9.4-15.1,14.9-25.7,24.5
		c1.1-12.4,1.7-29.3-2.3-38.1c-6.1-9.9-16.3-12.3-26.5-10.8l-47.5,7.3c-3,9.9-6.1,24-13.4,34.1c-10.9,25.5-99.7,34.4-115.5,32
		c-11.2,5.6-22.1,12.6-33.7,17.9c3.2-11.9,10.5-37,10.5-37s15.6-7.9,23-12.1c-1.1-2.5-1.6-3.5-3.3-7.4c13.8-3.4,29.4-10.1,40.3-20.5
		c0,0-68.7,4.6-100.9,6.7c-2,2.5-3.9,4.8-6.3,6.3c-73.4-3.1-143,6.8-194.3,58.6c-16.5,16.5-34.4,34.3-45.1,53.2
		c-13.1,13.6-24.4,25.2-38,38.9l-14.5,52.7l-22.8-29.9c-3.1-4.2,10.7-23.1,3.7-32.7c16.5-11.9,29.8-35,33.7-54.3
		c33.3-22.4,74.5-62,86.8-101.8c0,0,509.6-110.6,516.8-112.1c-3.4,9.7-1.5,23,9.5,28.1c5.3,1.2,11.1-0.5,15.7-3.6
		c-2.4-2.2-7-5.3-8.2-9.9c-2.2-5.8,1-10.9,4.6-15c-6.6-14.5-1.2-31.3,7.5-43.1c6.1-8,15.7-17.2,22.5-24.4l-536.1,78
		c0,0,70.2-65.6,148-89c-2.3-1-8.1-3.4-12.3-4.9c55.4-45.3,117.6-78.6,178.7-93.2c-0.9-3.1-1.8-5.4-2.8-8.8
		c1.9-0.2,52.1-7.6,52.1-7.6c-0.1-1.6-0.1-1.8-0.3-4.1c12.2-0.1,37.9,6.6,47.6,9.9c0.7-1.5,1.4-3.3,1.9-4.3
		c37.6,16.7,68.2,61.6,68.2,61.6c24.7-2.7,50.6,0.3,70.5,10.7C781.7,217.7,780.6,252.2,779,276.1z"/>
	<path class="st1" d="M696.7,276.9L75.3,367.8l-46,92.8c0,0,492.3-104.6,655.7-140.3C675.8,308.8,677.5,287,696.7,276.9z"/>
	<g>
		<path class="st2" d="M763.3,208.1c-19.9-10.4-45.7-13.4-70.5-10.7c0,0-30.7-44.9-68.2-61.6c-0.4,1-1.2,2.8-1.9,4.3
			c-9.7-3.2-35.4-9.9-47.6-9.9c0.2,2.3,0.2,2.5,0.3,4.1c0,0-50.2,7.4-52.1,7.6c1.1,3.5,1.9,5.8,2.8,8.8
			c-61.1,14.5-123.3,47.9-178.7,93.2c4.2,1.5,10,3.9,12.3,4.9c-77.8,23.4-148,89-148,89l536.1-78c-6.8,7.3-16.5,16.4-22.5,24.4
			c-8.7,11.9-14.1,28.6-7.5,43.1c-3.6,4.1-6.8,9.2-4.6,15c1.2,4.6,5.8,7.7,8.2,9.9c-4.6,3.1-10.4,4.8-15.7,3.6
			c-10.9-5.1-12.8-18.4-9.4-28.1c-7.3,1.4-516.8,112.1-516.8,112.1c-12.2,39.9-53.5,79.4-86.8,101.8C88.9,561,75.6,584.1,59.1,596
			c7.1,9.7-6.7,28.5-3.7,32.7l22.8,29.9L92.8,606c13.7-13.7,24.9-25.3,38-38.9c10.7-18.9,28.6-36.7,45.1-53.2
			c51.4-51.9,120.9-61.8,194.3-58.6c2.4-1.4,4.3-3.8,6.3-6.3c32.2-2.2,100.9-6.7,100.9-6.7c-10.9,10.4-26.5,17.2-40.3,20.5
			c1.6,3.8,2.1,4.9,3.3,7.4c-7.5,4.2-23,12.1-23,12.1s-7.3,25.1-10.5,37c11.6-5.3,22.5-12.4,33.7-17.9c15.9,2.4,104.7-6.6,115.5-32
			c7.3-10.2,10.4-24.2,13.4-34.1l47.5-7.3c10.2-1.5,20.4,0.9,26.5,10.8c4.1,8.9,3.5,25.8,2.3,38.1c10.7-9.6,15.8-15.1,25.7-24.5
			l2.9,4.1c10.2-11.1,18.4-24.2,26.9-36.6c22.7-1,27.6-6.8,31.3-19.4c7-21.3,16.4-41.7,28.7-55.7c12.7-14.4,16.1-44.3,17.7-68.6
			C780.6,252.2,781.7,217.7,763.3,208.1z"/>
		<path class="st3" d="M578.1,443.1c-3.4,9.9-6.9,22.8-12,30.4c-15.6,23.5-57.1,31.2-86.5,36.2c-2.2,11.6-7.4,36.5-7.4,36.5
			l26.7-14.1c0,0,45-0.3,83.2-19.2c23.5-11.7,15.6-72.7,15.6-72.7C590.7,441.1,584.9,442.1,578.1,443.1z"/>
		<path class="st3" d="M169.3,544.2c-2.9,16-11.6,30.5-25.4,40.7c-0.5,1.9-0.2,4.8,0.5,7c-3.9,7.3-11.8,14.8-11.6,22.1
			c7,9.7,24.2,29.5,24.2,29.5s14.9-41.7,23.6-61.5l124.4-115.1C304.9,466.9,216.3,470.4,169.3,544.2z"/>
	</g>
</g>
</svg>
