<?xml version="1.0" encoding="utf-8"?>
<!-- Generator: Adobe Illustrator 23.1.1, SVG Export Plug-In . SVG Version: 6.00 Build 0)  -->
<svg version="1.1" id="Layer_1" xmlns="http://www.w3.org/2000/svg" xmlns:xlink="http://www.w3.org/1999/xlink" x="0px" y="0px"
	 viewBox="0 0 800 800" style="enable-background:new 0 0 800 800;" xml:space="preserve">
<style type="text/css">
	.st0{fill-rule:evenodd;clip-rule:evenodd;fill:#0B162A;}
	.st1{fill-rule:evenodd;clip-rule:evenodd;fill:#FFFFFF;}
	.st2{fill-rule:evenodd;clip-rule:evenodd;fill:#E64100;}
</style>
<g>
	<path class="st0" d="M247.5,173.4c-90,37.2-130.9,93.7-149.4,134.5c-11.9,26.5-23.5,46.4-36.6,62.6c-13.5,14-38.1,29.5-52.5,34.9
		l-2.7,1l-0.5,9.8l3.7,0.7c18.6,3.7,41.9,17.7,49.4,27.3c9.7,9.7,16.4,16.5,33.4,46.6c0.2,0.4,8.7,13.7,8.7,13.7
		c5.5,9.3,11.2,18.8,26.4,35.7c11.7,16.5,67.9,68.3,129,90.6c42.9,21.3,99.3,31.8,171.9,32c106.6,0.6,187.3-22.7,261.7-75.6
		c30.8-23.9,40.8-33.5,66.8-64.4c17.4-20.6,36.3-56.9,37.2-97l0.1-4.5l-150.9-0.2l-0.8,3.3c-12.3,49.2-61.9,79.9-90.3,93.9
		c-74.3,31.6-167.9,32-238.2,0.9c-65.7-32.9-100.6-77.5-98.2-125.3c2.5-48.8,44-95.4,105.8-118.8c119.5-43.8,234.3-6.1,277.7,34.6
		l1.3,1.2l175.8-0.2l-2.4-6C737.8,213.4,607,161.7,549.3,151C420.3,121.5,308.8,143.2,247.5,173.4"/>
	<path class="st1" d="M88.4,357.3c9.2-14.5,12.8-22.7,17.8-34l5.4-11.9c16.2-34.4,43.4-66,78.7-91.3c34.5-23.1,72.7-41.7,104.8-50.8
		c139.3-40.5,281.6-5.7,343.4,27.5C663,208,729,247.2,755.7,298.1H607c-103.6-80.6-243.3-60.1-312.2-26.5
		c-27.8,15.5-44,27.9-64.3,49.5c-31.5,38.1-48.4,102.9,6.9,161c25,24.3,50,40.8,81.1,53.6c72,29.9,173.1,26.5,245.8-8.1
		c46.4-24.2,77.3-56.4,89.7-93.1h125.5c-4.4,31.9-13.7,64.8-61.3,110.9l-5.3,4.7c-23,20.8-54.6,49.3-116.3,71.8
		c-105.2,40.8-262.6,36.1-350.8-10.5l-5.5-2.8c-19.8-9.9-47-23.5-81.2-55.3c-23.9-21.9-40.5-43.6-61.5-80
		c-22.8-41.8-51.4-57-66.8-63.5C44.2,403.3,70.4,387.2,88.4,357.3"/>
	<path class="st2" d="M93.8,380.4c14.9-16.5,26.7-58.9,50.3-91.1c33.5-47.2,77.8-71.9,110.7-87.6c75.4-36.9,183.8-47.4,289.8-22
		c38.5,9.1,77,22.8,104.4,40.7c27.5,16.3,59.7,39.9,77.8,62.8H613.5c-33.6-26.9-70.5-39.9-103.5-47c-36.9-9.4-95-14.4-164.1,2.1
		c-40.8,10.2-69.1,24.3-96.6,44c-54.2,38.5-113.9,139.6-7.9,227.6c34.6,29.2,63.6,38.6,95.8,49.8c59.7,17.3,134.3,14,177.5,2.2
		c65.2-17.3,89.5-40,110.7-58.1c19.6-18.8,36.1-41.6,40.7-53.4l93-0.2c-6.4,34.7-31.6,63-55.9,86.5c-27.9,26.3-48.7,40.1-89.8,60.6
		c-96.3,46.2-237.6,44.6-324.8,13c-44.8-16.3-57.3-23.7-91.1-47.1c-27.5-22.1-45.6-36.8-71.5-76.8c-11.8-19.6-17.3-30.6-30.6-48.7
		c-9.4-10.2-15.7-19.6-32.2-27.5C78.3,399.7,86.6,391.8,93.8,380.4"/>
</g>
</svg>
