<?xml version="1.0" encoding="utf-8"?>
<!-- Generator: Adobe Illustrator 27.9.0, SVG Export Plug-In . SVG Version: 6.00 Build 0)  -->
<svg version="1.1" id="Layer_1" xmlns="http://www.w3.org/2000/svg" xmlns:xlink="http://www.w3.org/1999/xlink" x="0px" y="0px"
	 viewBox="0 0 800 800" style="enable-background:new 0 0 800 800;" xml:space="preserve">
<style type="text/css">
	.st0{stroke:#000000;stroke-width:3.0877;stroke-miterlimit:10;}
	.st1{fill:#B0B7BC;}
	.st2{fill:#FFFFFF;}
	.st3{fill:#0076B6;}
	.st4{fill:#2676BA;}
</style>
<g>
	<g>
		<line class="st0" x1="574.73" y1="354.33" x2="585.41" y2="344.62"/>
		<path class="st1" d="M520.36,102.36c0.21,0.68,2.46,0.35,3.25,0.59c6.86,2.14,13.55,8.36,19.53,12.23
			c8.12,5.26,16.62,10.34,25.31,14.56c17.2,8.36,40.69,11.69,55.71,21.22c6.3,4,9.81,9.81,14.82,15.06
			c5.75,6.04,14.31,7.98,20.28,13.83c5.36,5.26,7.61,13.94,13.91,18.03c5.49,3.59,12.04,5.73,17.86,8.75
			c14.16,7.37,28.54,17.83,39.28,29.68c1.64,1.81,4.18,4.5,3.3,7.2c-1.12,3.4-11.95,11.71-14.9,15.14
			c-4.51,5.26-6.08,11.54-9.01,17.64c-0.69,1.45-3.49,5.43-2.19,7.06c0.54,0.69,12.75-1.99,17.96-1.68
			c6.89,0.41,11.98,4.01,18.38,5.89c5.21,1.53,10.8,1.31,16.07,2.75c14.67,4.05,30.14,15.58,30.35,32.1
			c0.04,3.85-1.29,7.45-2.14,11.14c-3.3,14.27-2.26,16.6-13.29,27.94c-6.26,6.44-10.2,13.68-19,17.27
			c-10.01,4.08-21.08,0.28-31.38,0.11c-5.07-0.08-10.1,0.99-15.17,0.52c-4.62-0.42-10.51-3.23-15.04-1.89
			c-4.23,1.24-8.82,7.23-8.84,11.64c-0.01,1.99,1.06,3.69,2.39,5.07c10.29,10.8,27.82,11.42,40.71,17.58
			c5,2.39,9.05,6.66,14.18,8.65c5.83,2.28,12.29,0.88,18.23,3.34c20.41,8.48,37.69,34.12,23.32,55.12
			c-10.91,15.94-7.42,17.9-26.36,27.03c-4.05,1.95-7.86,4.24-12.15,5.64c-1.32,0.44-2.68,0.79-4.05,1.03
			c-8.64,1.5-15.52-2.12-23.67-3.89c-9.46-2.05-18.79-1.49-27.33-6.89c-7.02-4.43-12.11-12.09-19.89-15.07
			c-8-3.06-16.02-2.81-24.32-3.82c-8.19-0.99-16.25-2.25-24.31-3.99c-6.12-1.31-12.28-2.88-18.23-4.81
			c-5.98-1.92-11.89-5.33-18.23-5.8c-10.53-0.75-21.43,5.96-32.01,3.43c-8.14-1.95-8.42-16.22-17.62-15.83
			c-0.31,0.03-0.61,0.07-0.92,0.11c-5.53,0.96-29.13,15.17-37.57,18.49c-5.12,2.02-18.88,4.81-22.32,7.45
			c-3.95,3.04-7.38,21.65-10.44,27.76c-3.04,6.02-20.61,20.89-20.74,23.26c-0.21,3.98,20.06,13.97,21.08,34.45
			c0.2,4.1,0.07,8.34-1.6,12.15c-2.19,5.04-6.07,8.82-9.62,12.87c-2.25,2.57-4.05,5.44-6.57,7.78c-3.59,3.35-7.88,5.94-12.59,7.39
			c-5.64,1.72-11.46,0.99-17.21,1.56c-9,0.89-17.08,4.43-26.29,2.65c-8.24-1.57-14.77-6.91-23.37-7.31
			c-15.81-0.73-31.96,4.1-47.58-0.31c-4.12-1.17-7.83-2.85-11.05-5.7c-5.32-4.71-8.38-12.15-16.34-8.16
			c-7.68,3.86-44.41,22.51-47.04,28.16c-4.2,8.99,16.13,14.2,17.53,30.96c0.46,5.68,0.36,11.82-1.62,17.22
			c-3.37,9.23-15.84,23.13-25.3,26.46c-5.36,1.89-10.95,1.08-16.45,2.09c-6.23,1.14-11.81,3.26-18.23,2.01
			c-6.99-1.36-12.58-4.46-17.65-9.39c-14.13-13.71-11.19-27.83-9.89-45.57c0.61-8.23,0.66-16.99,0.04-25.23
			c-0.77-10.22-8.04-18.53-5.55-29.26c3.55-15.31,19.72-22.52,25.58-36.57c4.6-11.04,3.3-22.89,5.02-34.42
			c0.74-5.01,2.51-17.99-0.34-22.24c-2.53-3.79-17.9-8.05-22.9-10.87c-10.41-5.86-19.89-12.62-27.5-21.94
			c-5.95-7.27-11.19-15.41-14.59-24.2c-7.29-18.84-9.06-53.31-27.43-64.34c-6.85-4.11-18.13-0.56-30.19-7.12
			c-24.54-13.36-18.08-29.53-53.88-35.65c-2.74-0.47-14.75-0.76-12.5-5.47c4.31-9.04,30.32-23.99,39.9-27.89
			c23.17-9.45,49.13-14.86,68.22,5.53c5.01,5.36,7.02,13,12.24,17.98c3.5,3.36,8.13,5.3,12.11,8c10.35,7.1,18.69,15.89,25.92,26.1
			c5.35,7.55,9.62,16.62,12.42,25.41c6.54,20.46,9.13,38.76,31.09,48.42c4.06,1.79,9.45,4.01,13.94,2.77
			c5.38-1.49,21.65-18.16,28.15-22.5c7.67-5.13,16.15-7.41,24.77-10.4c13.26-4.59,26.38-14.33,34.61-25.83
			c3.47-4.87,6.2-10.32,9.21-15.48c3.32-5.72,9.3-11,11.03-17.49c2.62-9.8-9.9-23.55-5.39-33.59c1.3-2.91,5.41-2.77,7.18-5.5
			c2.35-3.6,2.65-8.53,4.02-12.55c3.59-10.47,11.16-19.17,18.72-27c2.39-2.48,4.74-5.13,5.7-8.54c1.17-4.18,1.03-8.64,2.12-12.87
			c1.58-6.1,6.52-13.11,6.12-19.43c-0.35-5.22-7.17-14.31-4.23-19.1c0.72-1.2,2.05-1.86,3.34-2.29c10.09-3.44,20.61-3.26,30.12-8.85
			c6.36-3.74,10.64-9.53,15.55-14.87c7.16-7.8,15.32-15.02,24.96-19.6c6.77-3.22,13.96-6.12,21.28-7.84
			c5.9-1.37,14.05-0.37,19.31-3.59c5.52-3.37-9.44-6.19-4.21-10.79c8.38-7.38,29.36-7.28,35.69-12.64
			C519.52,115.82,515.65,107.14,520.36,102.36z"/>
		<path class="st2" d="M528.65,118.75c0.37,0.82,1.58,0.39,2.32,0.59c5.63,1.45,26.17,16.69,34.46,20.56
			c11.1,5.19,22.91,8.71,34.44,12.74c5.89,2.07,11.93,3.49,17.21,6.99c7.41,4.94,8.66,10.92,14.06,15.65
			c6.3,5.55,15.45,6.66,21.32,13.02c4.69,5.12,6.2,12.89,11.73,17.18c5.36,4.14,12.21,6.59,18.28,9.5
			c12.24,5.9,24.14,14.04,33.06,24.43c1.16,1.36,2.54,3.05,2.09,4.95c-0.88,3.81-8.03,8.79-10.5,12.25
			c-8.82,12.32-9.01,22.02-21.91,33.18c-1.36,1.18-4.34,3.62-2.09,5.4c2.32,1.86,6.13,2.13,8.91,2.81c2.98,0.74,6.03,1.85,9.11,1.95
			c7.67,0.26,13.23-7.16,22.25-7.1c6.26,0.03,10.52,3.63,16.25,5.34c4.18,1.26,8.6,0.68,12.88,1.45
			c10.48,1.89,24.51,9.1,26.24,20.77c0.47,3.24-3.12,21.19-4.63,24.26c-1.58,3.2-4.18,5.59-6.62,8.1
			c-8.31,8.55-12.44,19.33-26.87,17.31c-4.76-0.66-9.33-2.17-14.16-2.29c-6.86-0.18-13.42,1.93-20.27,0.41
			c-4.6-1.02-10.21-5.49-14.97-4.53c-4.96,1-19.47,21.02-20.87,26.09c-1.08,3.9,2.62,6.92,5.23,9.16
			c8.81,7.58,19.49,13.38,30.61,16.71c5.36,1.6,11.14,2.65,16.16,5.11c5.51,2.71,8.84,8.52,14.38,10.95
			c5.54,2.44,12.19,0.05,18.06,1.66c13.62,3.75,30.2,20.63,22.36,35.66c-1.47,2.81-3.65,5.13-5.35,7.78
			c-3.42,5.34-4.23,11.6-10.13,15c-3.24,1.86-6.99,2.47-10.21,4.35c-4.18,2.45-7.86,5.55-12.88,6.11
			c-5.81,0.66-10.82-2.66-16.2-4.15c-9.58-2.65-15.73-0.17-26.18-5.79c-7.45-4-11.33-12.2-19.43-15.14
			c-16.06-5.84-33.1-4.12-49.59-7.88c-7.44-1.69-15.09-3.66-22.29-6.2c-5.6-1.97-11.41-6.12-17.36-6.67
			c-9.32-0.87-18.4,8.02-27.77,5.42c-7.55-2.1-10.83-18.26-21.77-18.34c-5.65-0.06-11.42,4.12-16.15,6.77
			c-10.16,5.69-21.32,12.01-32.41,15.59c-7.26,2.35-17.31,2.49-23.81,5.83c-4.84,2.5-3.93,10.21-4.98,14.75
			c-1.97,8.61-4.7,18.2-10.46,25.07c-3.77,4.47-9.24,8.2-14.48,10.73c-7.8,3.77-41.01,13.02-41.7,22.6
			c-0.31,4.27,8.95,3.93,11.36,3.41c12.38-2.69,20.3-10.04,33.78-2.1c9.28,5.48,19.62,18.2,13.9,29.39
			c-1.98,3.87-5.39,6.52-8.17,9.76c-2.56,2.97-4.29,6.65-7.53,9c-1.98,1.44-4.29,2.42-6.68,2.93c-5.61,1.22-11.46,0.24-17.13,0.87
			c-7.42,0.82-13.61,4.28-21.35,2.59c-7.47-1.61-13.44-6.85-21.27-7.25c-17.59-0.91-63.49,12.13-61.07-18.89
			c0.97-12.49,10.73-16.72,13.77-26.26c1.11-3.53-2.06-8.29-6.02-7.89c-3.99,0.4-15.04,23.38-18,27.74
			c-2.89,4.22-6.43,8.08-10.37,11.32c-11.89,9.74-50.17,22.65-55.12,34.82c-1.76,4.38-1.98,12.1-0.17,16.48
			c2.35,5.72,12.72,6.21,16.61,13.88c5.77,11.39-0.68,20.57-7.29,29.19c-2.27,2.95-4.43,6.11-7.79,7.9
			c-1.88,1-27.96,4.89-30.47,4.62c-32.17-3.4-18.19-50.48-19.59-71.31c-0.64-9.44-8.35-17.52-5.39-27.35
			c3.33-11.1,16.35-16.43,21.92-26.34c8.88-15.8,6.84-34.39,8.19-51.63c0.45-5.75,3.3-17.64,0.76-22.75
			c-0.7-1.4-1.95-2.35-3.32-3.03c-4.34-2.13-9.37-3.11-13.91-4.76c-9.99-3.63-19.61-8.8-28.05-15.26
			c-5.36-4.08-9.31-9.57-13.06-15.1c-5.24-7.73-9.14-16.27-11.95-25.17c-6.7-21.17-8.26-48.07-28.99-61.15
			c-9.46-5.97-21.26-0.99-31.3-6.17c-16.95-8.73-18.44-24.82-40.61-30.75c-1.8-0.48-12.47-1.58-10.67-4.68
			c2.92-5.07,25.79-15.4,31.94-17.47c16.81-5.61,39.26-8.14,51.01,8.3c3.53,4.94,4.37,11.54,8.59,16c2.79,2.97,6.8,4.65,10.19,6.83
			c10.12,6.51,19.07,13.45,26.21,23.23c21.96,30.1,11.83,65.06,53.76,82.29c5.13,2.1,12.44,5.46,18.1,3.98
			c5.03-1.31,23.53-22.06,32.69-27.41c8.62-5.03,18.19-6.48,27.35-10.09c9.63-3.79,26.81-18.7,33.05-27.14
			c4.81-6.49,8.44-13.89,12.84-20.67c3.25-5.03,11.51-14.5,12.12-20.18c0.6-5.65-4.18-11.33-4.82-17.02c-0.54-4.89,3.59-4.27,4.81-8
			c1.6-4.9-1.05-11.74,2.27-20.52c5.45-14.42,23.83-28.69,26.13-40.52c0.79-4.05,0.78-8.16,1.95-12.15
			c2.12-7.32,9.91-17.04,6.62-24.36c-1-2.2-4.34-6.68-2.2-9.08c1-1.13,20.98-6.29,25.71-8.9c15.56-8.62,24.14-25.78,40.53-33.55
			c9.97-4.73,20.48-6.86,31.4-8.22c7.88-0.99,15.55,0.41,22.67-3.94c2.04-1.25,5.84-3.23,5.46-6.14c-0.55-4.08-8.6-7.09-8.54-9.7
			c0.06-1.95,9.21-2.92,10.78-3.06c8.69-0.79,16.15-0.21,17.54-10.34C527.48,121.48,527.52,119.99,528.65,118.75z"/>
		<path class="st3" d="M538.5,136.63c0.55,0.8,23.42,13.67,25.91,14.86c14.85,7.15,32.23,8.78,46.45,17.06
			c6.61,3.85,5.6,8.97,10.08,13.76c5.36,5.75,15.65,7.27,21.9,12.76c6.7,5.9,8.09,15.17,15.9,20.17c9.62,6.16,38.56,16.32,43,26.46
			c0.1,0.23,0.19,0.46,0.25,0.7c0.8,3.51-4.69,7.18-6.37,9.77c-4.14,6.39-9.47,26.69-18.74,27.17c-2.57,0.15-1.53-5.6-1.71-7.08
			c-0.33-2.45-1.51-4.6-3.84-5.62c-6.07-2.68-25.5,1.5-29.84,6.48c-3.65,4.19-2.74,12.61-0.15,17.09
			c7.74,13.39,16.1-0.31,22.04,0.92c5.21,1.08,2.46,15.82,8.82,16.88c3.85,0.66,7.8-1.01,11.73-0.53
			c6.46,0.79,12.76,4.79,19.26,4.61c6.92-0.18,11.54-6.55,18.18-7.71c5.62-0.98,9.23,3.84,14.31,5.14
			c7.44,1.9,28.78-0.36,30.32,11.36c0.41,3.14-1.76,5.98-2.24,9c-0.42,2.6,0.31,5.32-0.43,7.87c-1,3.37-4.3,5.29-6.44,7.84
			c-2.92,3.51-4.41,8.2-8.79,10.3c-6.14,2.93-12.37-0.58-18.58-0.85c-6.46-0.26-12.8,2.42-19.23,1.51
			c-9.59-1.34-17.31-10.91-26.98-4.26c-7.54,5.17-16.85,22.37-23.55,30.25c-16.61,19.55-66.67,64.61-92.21,65.64
			c-6.03,0.25-16.52-14.15-25.16-17.99c-13.16-5.83-26.7-7.11-40.75-8.68c-5.13-0.57-10.01-1.57-15.19-1.46
			c-4.8,0.1-9.42,1.31-14.18,1.64c-2.21,0.16-14.65,0.69-15.38,2.75c-0.57,1.6,7.28,1.57,12.32,1.61
			c7.75,0.09,51.01,3.82,49.7,10.84c-0.85,4.51-34.87,18.37-40.57,19.72c-6.66,1.57-21.86,1.62-26.64,4.38
			c-1.45,0.84-2.2,2.17-2.32,3.82c-0.29,3.59,1.03,7.29,1.08,10.91c0.14,10.74-4.46,25.17-13.42,31.62
			c-4.98,3.57-10.75,5.65-16.44,7.77c-17.53,6.51-28.67,11.22-41.22,25.97c-2.09,2.46-5.9,6.59-5.3,10.14
			c0.86,4.96,26.61,8.65,31.34,8.15c12.69-1.31,21.76-11.73,33.02,0.58c2.09,2.28,4.37,5.44,3.71,8.73
			c-0.76,3.83-4.75,5.15-7.22,7.61c-2.28,2.27-2.57,5.84-5.21,7.84c-5.01,3.81-12.53,0.9-18.22,1.63c-5.69,0.72-10.23,4-16.21,3.16
			c-5.23-0.75-9.35-4.18-14.18-6.01c-4.55-1.72-9.4-1.51-14.18-1.56c-9.63-0.08-35.69,4.93-42.76-0.9
			c-8.93-7.37,10.92-25.3,13.33-32.85c4.32-13.54-15.29-16.43-11.7-23.53c6.87-13.57,38.56-31.74,52.27-39.24
			c9.34-5.11,18.6-9.82,28.35-14.09c0.58-0.26,16.36-5.9,11.16-6.73c-7.32-1.17-32.92,9.48-40.53,12.76
			c-13.67,5.89-26.04,13.41-37.88,22.37c-0.92,0.72-1.92,1.68-3.02,2.08c-2.74,1.01,4.11-6.72,4.64-7.31
			c1.88-2.06,22.1-21.69,10.78-16.25c-22.7,10.94-39.65,42.16-50.29,64.01c-3.94,8.07-9.17,19.94-15.93,25.86
			c-14.67,12.87-51.77,22.6-61.45,39.34c-2.69,4.68-2.17,10.47-2.17,15.66c0,31.68,10.54,15.14,17.82,26.95
			c4.03,6.54-1.53,9.57-4.9,14.02c-1.94,2.55-2.86,5.96-6.1,7.22c-2.99,1.18-6.4,0.51-9.52,0.9c-3.44,0.43-6.62,1.95-10.04,2.39
			c-18.91,2.5-12.61-24.03-12.18-34.26c0.35-8.39,0.32-16.92,0.09-25.32c-0.21-7.51-6.09-19.92-4.83-24.26
			c1.98-6.84,14.66-15.07,19.19-23.32c3.34-6.1,6.07-12.44,7.5-19.27c3.53-16.94,2.91-34.45,4.15-51.62
			c0.34-4.67,3.19-13.61,1.58-17.84c-0.63-1.63-2.16-2.61-3.7-3.27c-5-2.19-10.68-3.23-15.94-4.7c-9.11-2.54-18.37-6.72-26.32-11.82
			c-7.85-5.03-14.87-12.52-19.61-20.54c-5.62-9.5-8.14-20.31-10.57-30.93c-4.83-21.17-11.39-39.91-29.05-53.54
			c-4.54-3.49-9.73-7.2-15.74-6.89c-5.55,0.29-10.66,1.81-16.18,0.04c-10.83-3.46-16.5-12.58-24.2-20.06
			c-2.28-2.2-5.64-3.76-7.63-6.18c-0.28-0.32-0.48-0.73-0.23-1.14c0.64-1.08,2.74-1.4,3.84-1.67c9.18-2.18,17.24-0.2,25.99,2.51
			c4.23,1.3,5.05-0.95,1.65-3.63c-5.28-4.14-19.8-5.56-7.48-7.3c4.08-0.57,8.16-0.03,12.09,1.27c15.53,5.19,11.66,15.58,19.76,24.72
			c3.08,3.49,7.57,5.53,11.55,7.76c9.59,5.39,18,11.21,24.57,20.2c17.64,24.21,12.66,48.53,36.19,71.87
			c6.92,6.89,14.41,12.1,23.6,15.57c7.09,2.69,16.4,6.03,24.1,5.16c8.99-1.03,25.81-22.99,35.48-28.91
			c9.38-5.77,20.49-7.08,30.35-11.68c5.02-2.33,8.86-6.09,13.16-9.5c6.69-5.31,13.91-10.85,19.25-17.58
			c7.44-9.4,12.29-20.61,19.21-30.37c3.59-5.06,16.78-19.39,17.82-24.02c1.19-5.32-10.55-3.53-9.25-8.73
			c1.31-5.25,9.99-6.95,10.81-14.01c1.24-10.57-16.27-1.02-4.2-21.89c3.85-6.63,9.42-12.95,14.94-18.22
			c7.23-6.87,23.1-16.13,25.77-25.77c3.13-11.33-10.32-7.23-12.02-9.33c-1.68-2.05,5.48-11.34,6.64-13.37
			c2.68-4.65-2.29-8.72-0.95-10.17c2.49-2.68,8.98-2.88,12.29-4.39c8.64-3.91,22.83-11.39,31.02-16.26
			c6.67-3.95-0.69-4.36-3.81-4.47c-6.17-0.21,12.01-10.91,13.29-11.56c3.92-2.01,7.94-3.92,12.17-5.19c1-0.3,2.02-0.57,3.04-0.81
			c6.6-1.55,14.47-2.32,21.26-2.32c7.41,0,26.36,3.72,32.49,0.03c4.54-2.75-4.65-5.47-4.9-7.48c-0.42-3.31,12.54-4.33,11.17-8.77
			c-0.96-3.05-4.63-4.18-5.98-6.9l-0.09-0.32l0.11-0.23c2.24-2.02,14.99,3.82,17.8-0.09C539.5,141.17,537.51,138.6,538.5,136.63z"/>
		<path class="st2" d="M625.18,214.84c0.11,0.33,9.22-0.87,15.16,3.87c3.55,2.85-0.77,7.69-4.43,6.72c-3.8-1-7.14-3.88-10.67-5.55
			c-1-0.46-5.58-1.68-5.68-3.09c-0.03-0.55,0.8-0.82,1.18-0.97C622.15,215.28,623.71,215.07,625.18,214.84z"/>
		<path class="st2" d="M496.51,250.3l-0.03,0.14l1.17-0.02c4.02-0.03,8.08,0.46,12.05,1.07c10.87,1.66,21.03,5.55,30.23,11.65
			c4.91,3.24,9.96,6.86,13.86,11.32c0.26,0.29,3.43,4.43,2.53,4.37c-2.53-0.19-12.42-7.31-15.32-8.92
			c-11.47-6.33-24.26-10.16-37.36-10.26c-13.55-0.11-26.21,0.21-39.42,3.44c-0.74,0.19-4.57,1.6-5.19,0.75
			c-0.36-0.47,1.17-1.49,1.4-1.67c5.2-3.93,11.69-6.63,17.88-8.54C484.22,251.81,490.37,250.84,496.51,250.3z"/>
		<path class="st2" d="M499.16,282.06c-0.04,0.21,2,0,2.14-0.01c6.27-0.26,13.36,0.96,19.49,2.28c0.68,0.16,5.64,0.9,5.64,1.94
			c0,0.61-3.69,0.67-8.62,0.69c-8.59,0.04-17.11,1.32-25.3,3.96c-27.1,8.72-47.43,30.7-77.15,32.89c-5,0.38-10.09,0.34-15.03-0.49
			c-1.39-0.23-10.54-1.88-10.54-3.49c0-1.21,8.21-1.34,9.52-1.49c9.24-1.1,18.57-4.34,27.3-7.41c15.74-5.52,29.33-15.86,44.61-22.26
			C480.18,284.94,489.67,283.61,499.16,282.06z"/>
		<path class="st2" d="M527.92,307.89c0.16,0.32,3.18-0.29,3.65-0.34c12.03-1.02,26.75,2.46,37.61,7.64
			c4.89,2.32,9.22,5.9,12.39,10.3c3.19,4.45,4.08,13.68,11.25,12.41c18.03-3.19,12.31-17.89,24.39-24.88
			c7.12-4.13,31.05,1.19,30.19,7.2c-0.53,3.71-11.92,9.46-15.14,11.17c-15.69,8.39-32.31,16.09-49.51,20.85
			c-1.54,0.42-4.39,1.29-5.43-0.48c-1.37-2.26-0.14-6.59-0.23-9.14c-0.58-15.57-15.39-23.65-28.89-26.88
			c-12.94-3.09-24.4-2.58-37.43-1.41c-4.31,0.39-8.66,1.82-12.96,1.84c-0.07,0.01-0.78,0.06-0.77-0.2
			c0.09-2.58,23.84-6.82,28.01-7.6l0.88-0.16L527.92,307.89z"/>
		<path class="st4" d="M659.85,403.27c0.05,0.63,4.38,1.73,5.23,2.22c4.76,2.74,8.87,6.72,13.42,9.82
			c5.78,3.94,12.15,6.34,18.59,8.91c6.69,2.65,14.68,3.56,20.87,7.23c5.64,3.36,8.49,10.23,14.71,12.71
			c11.22,4.49,21.93-6.34,31.68,10.03c1.52,2.55,2.91,5.67,2.02,8.68c-0.97,3.25-4.14,5.12-5.85,7.89c-1.7,2.74-1.94,6.2-4.08,8.69
			c-2.61,3.03-6.76,2.44-10.07,4.08c-3.52,1.77-5.65,5.55-9.84,6.02c-4.37,0.49-8.2-2.48-12.3-3.45c-5.93-1.38-12.13-0.03-17.98-2
			c-6.69-2.26-9.85-7.56-14.87-11.96c-8.75-7.66-23.62-9.64-34.79-10.74c-7.36-0.72-52.48-5.88-53.41-12.84
			c-0.33-2.51,19.98-15.39,23.01-17.69c6.53-4.93,13-10.12,19.02-15.7c3.58-3.32,6.89-7.81,11.02-10.46
			C657.54,403.88,658.21,403.56,659.85,403.27z"/>
	</g>
</g>
</svg>
