<?xml version="1.0" encoding="utf-8"?>
<!-- Generator: Adobe Illustrator 27.9.0, SVG Export Plug-In . SVG Version: 6.00 Build 0)  -->
<svg version="1.1" id="Layer_1" xmlns="http://www.w3.org/2000/svg" xmlns:xlink="http://www.w3.org/1999/xlink" x="0px" y="0px"
	 viewBox="0 0 800 800" style="enable-background:new 0 0 800 800;" xml:space="preserve">
<style type="text/css">
	.st0{fill:#FFB81C;}
	.st1{fill:#183028;}
	.st2{fill:#FFFFFF;}
</style>
<g>
	<ellipse class="st0" cx="400" cy="400" rx="390" ry="255.53"/>
	<ellipse class="st1" cx="400" cy="400" rx="376.76" ry="246.86"/>
	<path class="st2" d="M711.96,332.48l-149.1-0.31c0,0-28.39-74.14-156.16-74.14c-86.55,0-203.48,41.8-203.48,139.6
		s97,126.19,182.97,126.19c186.13,0,183.76-78.87,183.76-78.87l-227.14,0.79v-57.57l387.69,0.77c0.34,3.67,0.51,7.36,0.51,11.06
		c0,119.78-148.2,209-331.02,209C188.24,609,68.98,500.95,68.98,400c0-109.01,156.14-206.63,331.02-206.63
		C546.49,193.37,666.9,254.18,711.96,332.48z"/>
</g>
</svg>
