<?xml version="1.0" encoding="utf-8"?>
<!-- Generator: Adobe Illustrator 27.9.0, SVG Export Plug-In . SVG Version: 6.00 Build 0)  -->
<svg version="1.1" id="Layer_1" xmlns="http://www.w3.org/2000/svg" xmlns:xlink="http://www.w3.org/1999/xlink" x="0px" y="0px"
	 viewBox="0 0 800 800" style="enable-background:new 0 0 800 800;" xml:space="preserve">
<style type="text/css">
	.st0{fill:#0D163E;}
	.st1{fill:#FCFDFF;}
	.st2{fill:#03202F;}
	.st3{fill:#A7192F;}
	.st4{fill:#B42025;}
</style>
<g>
	<path class="st0" d="M159,663.65c0.69,0.44,0.88,0.6,1.11,0.7c55.29,25.04,110.58,50.08,165.85,75.16
		c1.53,0.69,2.71,0.64,4.19-0.03c42.97-19.51,85.96-38.99,128.97-58.41c1.74-0.79,2.29-1.79,2.37-3.64
		c0.23-5.12,1.51-10.04,3.34-14.82c5.23-13.66,14.66-24.38,24.61-34.67c15.99-16.53,33.45-31.54,49.74-47.77
		c30.75-30.64,56.08-64.93,71.9-105.68c1.07-2.76,2.66-3.71,5.22-4.32c30.67-7.29,60.09-17.8,87.14-34.26
		c22.26-13.55,41.38-30.41,54.71-53.16c9.07-15.48,14.17-32.25,14.61-50.17c0.66-27.2-8.37-51.36-24.29-73.11
		c-21.15-28.91-49.67-48.18-82.13-62.1c-19.9-8.53-40.69-14.18-62.02-17.87c-8.49-1.47-17.03-2.48-26.71-3.35
		c1.58,1.3,2.29,1.91,3.02,2.48c11.24,8.63,22.21,17.59,32.55,27.28c13.26,12.43,25.93,25.42,34.47,41.73
		c5.07,9.69,7.84,19.87,3.95,30.76c-3.22,8.99-9.92,15.01-17.71,19.92c-14.57,9.18-30.82,14.1-47.33,18.19
		c-27.25,6.75-55.01,10.74-82.71,15.09c-8.39,1.32-16.2,1.23-24.36-1.66c-68.54-24.26-134.27-54.5-196.53-92.11
		c-17.35-10.48-33.74-22.37-47.82-37.15c-6.29-6.6-11.92-13.75-15.2-22.33c-5.64-14.74-1.59-27.91,11.27-38.85
		c10.94-9.3,23.63-15.42,36.83-20.59c25.25-9.89,51.52-16.17,78.01-21.58c6.92-1.41,13.85-2.75,21.67-4.29
		c-1.44-0.65-1.98-0.9-2.52-1.13c-40.81-17.44-83.17-28.47-127.59-31.27c-31.62-1.99-62.77,0.48-93.3,9.15
		c-29.54,8.38-56.5,21.68-78.61,43.42c-32.59,32.05-44.71,70.66-35.51,115.55c6.14,29.93,20.87,55.78,39.42,79.63
		c16.72,21.49,36.19,40.26,57.2,57.48c3.74,3.06,3.73,3.07-0.06,5.78c-19.49,13.93-38.98,27.86-58.47,41.8
		c-3.41,2.44-3.41,2.44,0.03,4.54c22.69,13.84,44.91,28.36,65.53,45.21c24.69,20.18,46.81,42.67,62.7,70.63
		c15.43,27.15,21.8,56.22,17.95,87.37c-0.25,1.98-0.95,3.36-2.66,4.55c-7.13,4.97-14.15,10.09-21.2,15.16
		C180.15,648.44,169.68,655.97,159,663.65z"/>
	<path class="st1" d="M159,663.65c10.68-7.68,21.15-15.21,31.62-22.74c7.06-5.07,14.08-10.2,21.2-15.16
		c1.71-1.19,2.41-2.57,2.66-4.55c3.85-31.15-2.51-60.22-17.95-87.37c-15.89-27.97-38.01-50.45-62.7-70.63
		c-20.62-16.85-42.84-31.37-65.53-45.21c-3.44-2.1-3.44-2.1-0.03-4.54c19.49-13.93,38.98-27.86,58.47-41.8
		c3.79-2.71,3.8-2.71,0.06-5.78c-21.02-17.22-40.49-35.99-57.2-57.48c-18.55-23.85-33.28-49.7-39.42-79.63
		c-9.2-44.88,2.92-83.49,35.51-115.55c22.11-21.75,49.07-35.04,78.61-43.42c30.53-8.67,61.68-11.14,93.3-9.15
		c44.42,2.8,86.78,13.84,127.59,31.27c0.54,0.23,1.08,0.48,2.52,1.13c-7.82,1.55-14.75,2.88-21.67,4.29
		c-26.5,5.41-52.77,11.69-78.01,21.58c-13.2,5.17-25.9,11.28-36.83,20.59c-12.86,10.94-16.91,24.12-11.27,38.85
		c3.28,8.58,8.91,15.73,15.2,22.33c14.08,14.77,30.48,26.67,47.82,37.15c62.26,37.61,127.98,67.85,196.53,92.11
		c8.17,2.89,15.97,2.98,24.36,1.66c27.7-4.35,55.46-8.35,82.71-15.09c16.51-4.09,32.77-9.01,47.33-18.19
		c7.8-4.91,14.5-10.93,17.71-19.92c3.89-10.89,1.12-21.07-3.95-30.76c-8.53-16.31-21.2-29.3-34.47-41.73
		c-10.34-9.69-21.31-18.65-32.55-27.28c-0.74-0.57-1.44-1.18-3.02-2.48c9.68,0.87,18.22,1.88,26.71,3.35
		c21.33,3.69,42.12,9.33,62.02,17.87c32.46,13.92,60.97,33.19,82.13,62.1c15.92,21.76,24.95,45.92,24.29,73.11
		c-0.44,17.92-5.54,34.69-14.61,50.17c-13.33,22.75-32.45,39.61-54.71,53.16c-27.05,16.47-56.47,26.97-87.14,34.26
		c-2.56,0.61-4.15,1.56-5.22,4.32c-15.82,40.75-41.15,75.04-71.9,105.68c-16.29,16.23-33.75,31.24-49.74,47.77
		c-9.95,10.29-19.38,21-24.61,34.67c-1.83,4.78-3.11,9.7-3.34,14.82c-0.08,1.85-0.63,2.85-2.37,3.64
		c-43.01,19.43-86,38.91-128.97,58.41c-1.48,0.67-2.66,0.73-4.19,0.03c-55.27-25.08-110.56-50.12-165.85-75.16
		C159.89,664.24,159.69,664.08,159,663.65z M351.97,711.24c0.58-0.2,1.18-0.35,1.74-0.61c30.42-13.74,60.82-27.52,91.27-41.18
		c1.92-0.86,2.51-2.11,2.79-3.85c1.71-10.84,7.14-19.95,13.55-28.53c8.5-11.39,18.7-21.23,29.01-30.94
		c21.52-20.26,43.12-40.41,61.76-63.5c18.81-23.29,34.29-48.56,45.29-76.36c2.99-7.55,6.91-10.91,14.74-12.7
		c27.29-6.25,53.57-15.51,78.04-29.39c21.07-11.95,39.86-26.51,52.91-47.35c14.1-22.52,17.63-46.64,10.18-72.27
		c-5.93-20.39-17.49-37.34-32.14-52.32c-16.36-16.73-35.5-29.65-56.36-40.11c-13.35-6.7-27.12-12.37-41.52-16.59
		c1.26,1.37,2.65,2.52,4.05,3.67c13.62,11.28,26.39,23.37,35.88,38.49c5.53,8.81,9.59,18.22,10.02,28.78
		c0.61,14.87-6.09,26.55-16.67,36.26c-13.97,12.81-30.92,20.34-48.53,26.48c-26.32,9.17-53.65,13.71-81.2,17.11
		c-2.49,0.31-2.7,0.85-2.18,3.14c2.72,12.1,4.66,24.35,5.35,36.72c1.68,29.73-1.9,58.88-10.35,87.44
		c-10.12,34.21-25.99,65.69-45.32,95.51c-23.56,36.36-51.36,69.31-81.42,100.41c-13.55,14.02-27.65,27.49-41.7,41.01
		c-0.34,0.32-1.25,0.51-0.58,1.15C350.98,712.12,351.63,711.8,351.97,711.24z M323.58,91.14c-0.56-1.62-1.65-1.47-2.36-1.66
		c-20.15-5.26-40.56-9.32-61.27-11.34c-23.4-2.29-46.82-2.54-70.25,0.44c-27.93,3.55-54.49,11.07-78.76,25.65
		c-16.31,9.79-30.12,22.36-40.09,38.65c-15.55,25.43-17.96,52.85-10.77,81.29c7.23,28.61,22.63,52.87,41.42,75.14
		c22.17,26.28,48.21,48.3,76.23,68.04c2.33,1.64,2.93,2.42,0.12,4.4c-19.68,13.84-39.24,27.86-58.82,41.85
		c-0.98,0.7-2.19,1.19-2.77,2.51c1.33,0.91,2.65,1.8,3.97,2.71c26.4,18.1,51.28,37.97,72.24,62.39
		c13.25,15.43,24.45,32.22,32.34,50.96c13.84,32.86,16.49,66.81,8.77,101.62c-0.51,2.28-1.5,3.67-3.33,4.93
		c-9.28,6.43-18.49,12.95-27.7,19.48c-0.71,0.5-1.8,0.77-1.86,1.98c0.94,0.46,1.82,0.92,2.71,1.32
		c37.36,16.98,74.71,33.96,112.07,50.93c3.26,1.48,6.76,4.46,9.74,4.01c3.24-0.5,5.16-4.98,7.69-7.68c0.42-0.45,0.84-0.92,1.25-1.38
		c25.69-28.71,49.82-58.65,71.24-90.71c19.36-28.98,36.41-59.2,49.1-91.76c11.3-28.99,18.91-58.88,20.8-89.99
		c1.64-27.03-1.25-53.66-8.11-79.95c-2.09-8.03-5.55-13.25-13.84-14.74c-0.47-0.08-0.91-0.38-1.37-0.56
		c-47.87-18.87-95.03-39.32-140.14-64.21c-26.2-14.45-51.59-30.16-74.23-49.92c-12.79-11.16-24.49-23.27-32.08-38.72
		c-6.18-12.58-7.81-25.47-1.62-38.6c4.13-8.75,10.75-15.41,18.38-21.11c16.62-12.42,35.75-19.43,55.34-25.34
		C292.65,97.27,307.99,94,323.58,91.14z"/>
	<path class="st2" d="M323.58,91.14c-15.6,2.86-30.93,6.13-45.95,10.66c-19.59,5.91-38.72,12.93-55.34,25.34
		c-7.63,5.7-14.25,12.36-18.38,21.11c-6.19,13.13-4.57,26.03,1.62,38.6c7.59,15.44,19.3,27.56,32.08,38.72
		c22.64,19.76,48.04,35.46,74.23,49.92c45.11,24.89,92.27,45.34,140.14,64.21c0.46,0.18,0.89,0.48,1.37,0.56
		c8.29,1.49,11.75,6.71,13.84,14.74c6.86,26.29,9.75,52.92,8.11,79.95c-1.89,31.11-9.5,61-20.8,89.99
		c-12.69,32.55-29.74,62.78-49.1,91.76c-21.41,32.06-45.54,62-71.24,90.71c-0.41,0.46-0.83,0.93-1.25,1.38
		c-2.54,2.7-4.45,7.18-7.69,7.68c-2.97,0.45-6.48-2.52-9.74-4.01c-37.36-16.98-74.72-33.95-112.07-50.93
		c-0.9-0.41-1.78-0.86-2.71-1.32c0.06-1.22,1.15-1.48,1.86-1.98c9.21-6.53,18.42-13.05,27.7-19.48c1.83-1.27,2.83-2.65,3.33-4.93
		c7.72-34.81,5.07-68.76-8.77-101.62c-7.89-18.74-19.1-35.53-32.34-50.96c-20.96-24.41-45.83-44.29-72.24-62.39
		c-1.32-0.9-2.64-1.8-3.97-2.71c0.58-1.33,1.79-1.82,2.77-2.51c19.58-13.99,39.14-28.01,58.82-41.85c2.82-1.98,2.21-2.76-0.12-4.4
		c-28.03-19.75-54.06-41.76-76.23-68.04c-18.79-22.27-34.19-46.54-41.42-75.14c-7.19-28.44-4.78-55.87,10.77-81.29
		c9.96-16.3,23.78-28.86,40.09-38.65c24.27-14.57,50.83-22.1,78.76-25.65c23.43-2.98,46.85-2.73,70.25-0.44
		c20.72,2.02,41.12,6.08,61.27,11.34C321.94,89.67,323.02,89.53,323.58,91.14z M383.88,536.55c0.16,0.19,0.33,0.38,0.49,0.57
		c0.03-0.1,0.12-0.23,0.09-0.31c-0.12-0.37-0.35-0.44-0.65-0.17c0.66-1.22,0.07-2.4-0.19-3.55c-3.94-17.1-7.88-34.19-11.94-51.26
		c-0.46-1.93-0.63-2.99,1.73-3.32c8.71-1.22,17.4-2.52,26.09-3.82c8.43-1.26,16.86-2.57,26.1-3.98
		c-20.63-9.33-40.41-18.33-60.25-27.17c-2.2-0.98-3.25-2.26-3.75-4.46c-2.22-9.76-4.51-19.5-6.81-29.24
		c-2.07-8.78-4.2-17.56-6.45-26.98c-1.06,1.65-1.73,2.66-2.35,3.69c-6.86,11.47-13.83,22.88-20.49,34.47
		c-1.68,2.92-2.95,3.5-6.13,2.03c-18.28-8.43-36.68-16.62-55.07-24.83c-0.99-0.44-1.93-1.53-3.44-0.81
		c14.75,16.78,29.34,33.53,44.16,50.09c2.12,2.37,2.02,3.8,0.46,6.29c-7.37,11.74-14.53,23.61-21.75,35.45
		c-0.46,0.75-1.44,1.36-0.91,2.58c0.4,0,0.77,0.05,1.13-0.01c16.42-2.39,32.84-4.76,49.25-7.23c2.68-0.4,4.52,0.08,6.41,2.29
		c7.9,9.25,15.98,18.36,24.12,27.4C370.42,521.72,376.68,529.56,383.88,536.55z"/>
	<path class="st3" d="M351.15,710.56c14.05-13.52,28.14-26.99,41.7-41.01c30.06-31.1,57.86-64.05,81.42-100.41
		c19.32-29.82,35.2-61.3,45.32-95.51c8.45-28.56,12.02-57.71,10.35-87.44c-0.7-12.37-2.64-24.62-5.35-36.72
		c-0.52-2.3-0.31-2.84,2.18-3.14c27.55-3.4,54.88-7.94,81.2-17.11c17.62-6.14,34.56-13.67,48.53-26.48
		c10.59-9.71,17.29-21.39,16.67-36.26c-0.44-10.56-4.5-19.97-10.02-28.78c-9.49-15.12-22.25-27.21-35.88-38.49
		c-1.39-1.15-2.79-2.3-4.05-3.67c14.4,4.22,28.17,9.89,41.52,16.59c20.86,10.46,39.99,23.39,56.36,40.11
		c14.65,14.97,26.21,31.92,32.14,52.32c7.45,25.64,3.92,49.76-10.18,72.27c-13.05,20.84-31.84,35.4-52.91,47.35
		c-24.47,13.88-50.75,23.14-78.04,29.39c-7.82,1.79-11.75,5.15-14.74,12.7c-10.99,27.8-26.48,53.07-45.29,76.36
		c-18.64,23.09-40.23,43.24-61.76,63.5c-10.31,9.71-20.5,19.55-29.01,30.94c-6.41,8.58-11.83,17.69-13.55,28.53
		c-0.27,1.73-0.87,2.99-2.79,3.85c-30.45,13.66-60.85,27.44-91.27,41.18c-0.56,0.25-1.16,0.41-1.74,0.61
		C351.69,711.01,351.42,710.79,351.15,710.56z"/>
	<path class="st4" d="M351.97,711.24c-0.34,0.56-0.99,0.88-1.41,0.47c-0.67-0.64,0.24-0.82,0.58-1.15
		C351.42,710.79,351.69,711.01,351.97,711.24z"/>
	<path class="st1" d="M383.88,536.55c-7.2-6.99-13.46-14.84-20.16-22.29c-8.14-9.05-16.22-18.15-24.12-27.4
		c-1.89-2.21-3.73-2.69-6.41-2.29c-16.41,2.47-32.83,4.84-49.25,7.23c-0.36,0.05-0.73,0.01-1.13,0.01
		c-0.53-1.22,0.46-1.83,0.91-2.58c7.22-11.84,14.38-23.71,21.75-35.45c1.56-2.49,1.66-3.92-0.46-6.29
		c-14.81-16.56-29.41-33.31-44.16-50.09c1.51-0.72,2.45,0.37,3.44,0.81c18.39,8.21,36.79,16.4,55.07,24.83
		c3.18,1.47,4.45,0.9,6.13-2.03c6.66-11.58,13.63-23,20.49-34.47c0.62-1.04,1.3-2.04,2.35-3.69c2.26,9.43,4.38,18.2,6.45,26.98
		c2.3,9.74,4.59,19.48,6.81,29.24c0.5,2.2,1.55,3.48,3.75,4.46c19.85,8.83,39.62,17.83,60.25,27.17c-9.24,1.41-17.67,2.72-26.1,3.98
		c-8.69,1.3-17.39,2.6-26.09,3.82c-2.36,0.33-2.19,1.4-1.73,3.32c4.06,17.07,8,34.16,11.94,51.26c0.26,1.15,0.85,2.33,0.19,3.55
		L383.88,536.55z"/>
	<path class="st1" d="M383.81,536.65c0.3-0.27,0.53-0.2,0.65,0.17c0.03,0.08-0.06,0.21-0.09,0.31c-0.16-0.19-0.33-0.38-0.49-0.57
		C383.88,536.55,383.81,536.65,383.81,536.65z"/>
</g>
</svg>
