<?xml version="1.0" encoding="utf-8"?>
<!-- Generator: Adobe Illustrator 27.9.0, SVG Export Plug-In . SVG Version: 6.00 Build 0)  -->
<svg version="1.1" id="Layer_1" xmlns="http://www.w3.org/2000/svg" xmlns:xlink="http://www.w3.org/1999/xlink" x="0px" y="0px"
	 viewBox="0 0 800 800" style="enable-background:new 0 0 800 800;" xml:space="preserve">
<style type="text/css">
	.st0{fill:#FFFFFF;}
	.st1{fill:#002C5F;}
</style>
<g>
	<g>
		<g>
			<path class="st0" d="M399.76,781c-73.39-0.34-129.42-20.63-156.36-34.84c-52.76-27.69-96.24-64.37-133.66-115.25
				c-53.81-72.97-64.21-131.71-68.52-163.71c-2.51-16.66-5.5-56.69,0.11-92.61c6.36-51.83,18.15-77.65,26.57-102.9
				c6.55-17.96,27.69-61.18,40.23-81.01c10.66-15.53,30.12-44.15,38.05-54.26c2.17-3.18-0.64-1.68-1.83-1.64
				c-2.92,0.71-4.42,0.89-6.66,0.71c-1.68,0-5.05-0.56-6.92-1.12c-10.48-2.25-25.45-13.84-23.58-34.05
				c-0.38-4.49,4.49-43.03,8.23-55.01c4.87-16.84,14.97-24.7,32.93-26.19c8.98,0,46.77-0.75,63.94,1.93
				c34.38,3.42,59.54,13.42,74.51,43.72c11.97,26.57,7.86,68.11-8.61,99.91c-5.61,10.85-16.84,31.06-26.57,44.16
				c-8.98,13.09-12.72,19.83-20.58,34.42c-7.86,15.34-34.05,72.59-43.04,110.01c-17.07,69.83-7.48,110.01,25.45,164.64
				c24.33,36.3,52.76,62.5,74.84,74.46c36.3,22.83,86.06,29.19,111.89,29.19"/>
		</g>
		<g>
			<path class="st0" d="M399.81,621.54c25.82,0,75.59-6.36,111.89-29.19c22.07-11.96,50.51-38.16,74.83-74.46
				c32.93-54.63,42.52-94.82,25.45-164.64c-8.98-37.42-35.18-94.67-43.03-110.01c-7.85-14.59-11.6-21.33-20.58-34.42
				c-9.73-13.1-20.97-33.31-26.57-44.16c-16.47-31.8-20.58-73.34-8.61-99.91c14.97-30.3,40.14-40.3,74.51-43.72
				c17.16-2.68,54.96-1.93,63.94-1.93c17.96,1.49,28.07,9.35,32.93,26.19c3.73,11.98,8.6,50.52,8.22,55.01
				c1.88,20.21-13.09,31.81-23.57,34.05c-1.87,0.56-5.24,1.12-6.92,1.12c-2.25,0.18-3.75,0-6.67-0.71c-1.19-0.04-4-1.54-1.83,1.64
				c7.93,10.1,27.39,38.73,38.05,54.26c12.53,19.83,33.67,63.05,40.22,81.01c8.42,25.26,20.21,51.07,26.57,102.9
				c5.61,35.92,2.62,75.95,0.11,92.61c-4.31,32-14.7,90.74-68.52,163.71c-37.41,50.88-80.9,87.57-133.65,115.25
				c-26.94,14.22-82.98,34.5-156.37,34.84"/>
		</g>
	</g>
	<g>
		<path class="st1" d="M235.92,721.46c-47.9-28.44-91.31-64.36-133.21-133.51C84,553.82,40.59,481.23,61.99,354.75
			c24.7-115.63,74.39-174,102.83-214.04c13.47-19.46-0.37-30.68-11.23-26.57c-9.09,3.45-15.34,3.67-15.34,3.67
			c-16.09-2.17-13.85-12.65-10.85-39.96l3.74-22.45c3.37-19.83,12.35-19.46,35.92-19.01c37.42,0.75,44.16,1.05,64.36,4.8
			c26.94,5.99,62.12,32.92,34.43,107.02c-17.22,39.66-35.18,53.14-54.63,94.3c-20.96,45.65-71.84,148.18-37.42,235.74
			c47.15,117.49,138.45,159.41,225.27,160.91c86.82-1.12,187.1-52.39,227.21-160.91c34.43-87.56-16.47-190.09-37.42-235.74
			c-19.46-41.16-37.43-54.63-54.63-94.3C506.54,74.1,541.7,47.16,568.65,41.18c20.21-3.75,26.94-4.04,64.36-4.8
			c23.58-0.45,32.56-0.82,35.92,19.01l3.74,22.45c2.99,27.32,5.24,37.79-10.85,39.96c0,0-6.25-0.22-15.34-3.67
			c-10.85-4.12-24.7,7.11-11.23,26.57c28.44,40.04,78.13,98.41,102.83,214.04c21.4,126.48-22.01,199.07-40.71,233.2
			c-41.91,69.16-85.32,105.07-133.22,133.51C498.6,767.11,375.86,764.5,399.44,763C424.14,764.86,309.26,767.87,235.92,721.46z"/>
	</g>
	<g>
		<g>
			<path class="st0" d="M592.79,145.52c0-4.86-3.94-8.81-8.81-8.81c-4.87,0-8.81,3.95-8.81,8.81c0,4.86,3.94,8.81,8.81,8.81
				C588.85,154.33,592.79,150.39,592.79,145.52z"/>
		</g>
		<g>
			<path class="st0" d="M696.07,385c0-4.86-3.95-8.8-8.82-8.8c-4.86,0-8.81,3.94-8.81,8.8c0,4.87,3.95,8.81,8.81,8.81
				C692.12,393.82,696.07,389.87,696.07,385z"/>
		</g>
		<g>
			<path class="st0" d="M643.69,588.57c0-4.87-3.95-8.81-8.82-8.81c-4.86,0-8.81,3.94-8.81,8.81c0,4.87,3.95,8.82,8.81,8.82
				C639.74,597.39,643.69,593.44,643.69,588.57z"/>
		</g>
		<g>
			<path class="st0" d="M216.09,154.33c4.87,0,8.81-3.95,8.81-8.81c0-4.86-3.94-8.81-8.81-8.81s-8.81,3.95-8.81,8.81
				C207.28,150.39,211.23,154.33,216.09,154.33z"/>
		</g>
		<g>
			<path class="st0" d="M112.82,393.82c4.87,0,8.81-3.94,8.81-8.81c0-4.86-3.94-8.8-8.81-8.8c-4.86,0-8.81,3.94-8.81,8.8
				C104.01,389.87,107.95,393.82,112.82,393.82z"/>
		</g>
		<g>
			<path class="st0" d="M165.2,597.39c4.87,0,8.81-3.95,8.81-8.82c0-4.87-3.95-8.81-8.81-8.81c-4.86,0-8.81,3.94-8.81,8.81
				C156.39,593.44,160.34,597.39,165.2,597.39z"/>
		</g>
		<g>
			<path class="st0" d="M399.6,708.89c4.86,0,8.81-3.95,8.81-8.82c0-4.87-3.95-8.81-8.81-8.81c-4.87,0-8.81,3.94-8.81,8.81
				C390.79,704.94,394.73,708.89,399.6,708.89z"/>
		</g>
	</g>
</g>
</svg>
