<?xml version="1.0" encoding="utf-8"?>
<!-- Generator: Adobe Illustrator 27.9.0, SVG Export Plug-In . SVG Version: 6.00 Build 0)  -->
<svg version="1.1" id="Layer_1" xmlns="http://www.w3.org/2000/svg" xmlns:xlink="http://www.w3.org/1999/xlink" x="0px" y="0px"
	 viewBox="0 0 800 800" style="enable-background:new 0 0 800 800;" xml:space="preserve">
<style type="text/css">
	.st0{fill:#231F20;}
	.st1{fill:#185465;}
	.st2{fill:#006778;}
	.st3{fill:#D7A22A;}
	.st4{fill:#9F792C;}
	.st5{fill:#8A6728;}
	.st6{fill:none;stroke:#231F20;stroke-width:0.4068;}
	.st7{fill:#FFFFFF;}
</style>
<g>
	<path class="st0" d="M645.82,498.66c0,0,53.97-15.11,79.69-58.11c30.23-6.29,62.25-39.75,62.25-69.44
		c0-37.06-27.88-53.61-27.88-53.61s-10.26-26.44-49.12-51.81c0,0,10.79-12.41,10.79-26.44s-10.8-22.66-30.05-36.7
		c-19.25-14.03-37.96-21.04-61.7-35.8c-23.74-14.75-76.27-40.12-110.09-47.49c-33.82-7.38-54.69-9.71-73.76-9.71
		c-39.04,0-53.79,6.3-53.79,6.3s-11.87-5.04-38.32-5.04s-42.46,2.16-98.76,17.45s-99.66,25.9-145.53,28.78
		c-45.87,2.88-66.74,5.22-80.95,5.22c-14.21,0-16.37,19.79-16.37,25.55c0,38.31,50.19,88.68,76.99,103.08c0,0-2.34,14.39-2.34,27.16
		c0,12.77,3.95,63.68,46.77,112.79c56.85,60.08,112.61,68.18,150.39,92.65c37.78,24.46,50.55,51.09,70.52,81.32
		c30.4,50.91,81.67,85.63,137.26,85.63c90.31,0,131.14-87.97,131.14-106.85c0-12.43-15.11-14.95-15.11-14.95s11.7-36.16,2.52-69.44
		c0,0-12.05,20.5-31.48,42.27c0,0-23.39-20.34-18.71-43.18c0,0,19.07-5.58,35.98-22.67c0,0,25.91-4.32,44.25-24.47
		c0,0,3.06,5.4,6.3,8.64l12.05-8.82l0.72,11.69l5.4-1.26C664.89,461.4,661.65,476.73,645.82,498.66z"/>
	<path class="st1" d="M555.15,559.26c0,0,3.6-12.41-12.77-22.13c0,0,1.98,9,1.08,14.93L555.15,559.26z"/>
	<path class="st2" d="M633.01,342.51c18.52-1,42.37,4,41.87,22.52c0,0,6.5,9.17,12.18,21.35c0,0,14.02-11.01,19.52-28.53
		C658.2,335.84,643.35,334.84,633.01,342.51z"/>
	<path class="st3" d="M601.34,338.51l37.53,30.69l-52.05,19.35c0,0,4.17-12.34,0.83-14.01c-37.54-20.85-101.61-39.37-166.33-51.72
		c-64.73-12.34-98.76-13.26-98.76-13.26l21.85,4.41l22.52,9.17l-77.07,5.51v16.18l-23.52,2.17c-5.34-11.68-11.34-7.84-18.36-12.51
		c-5.67-3.5-8.34-10.68-9.01-13.51c-0.67-2.84-4.17-2.67-10.68-4.5c-6.51-1.83-9.17-0.33-10.51,2c-1.34,2.33,5.67,2,5.67,2
		c-2.5,2.67-13.18,3.5-13.18,3.5l-0.17,0.83l6.17,1c-1.83,2-3.34,9.01,0.83,12.84c4.17,3.84,9.34,0.17,9.34,0.17s-2.84,4-1.84,5.34
		c1,1.33-3.34,5.5-3.34,9.68c0,7.84,9.68,11.68,9.68,11.68l-42.71,17.18l-3.67,6.84c0,0,0.5,6.17-3.84,8.67
		c-4.34,2.5-4.5,4.34-5.84,5.84c-1.33,1.5-15.68,12.18-15.68,12.18c-10.84-11.18-13.18-16.51-13.18-16.51
		c8.51-7.51,8.17-16.69,8.17-16.69l-7.17-1c8.17-5.01,9.01-9.17,9.01-9.17c-1.5,2-4.67,0.67-4.67,0.67
		c-1.5-7.67-6.84-8.17-8.68-13.51s-9.34-3.67-9.34-3.67c1.5-2.5,5.67-5.34,5.67-5.34c2.34-9.84,5-10.34,5-13.85
		c0-7.34-13.68-8.67-14.18-7.01c-0.5,1.67,2.83,3.5,2.83,3.5c-6.84,1.84-12.18,5.84-12.18,5.84c-5.67-43.87,2-52.05,2-52.05
		c37.7-1.33,55.88-20.69,55.88-20.69l-17.52,0.67l-14.01-7.34l31.02-10.51c49.37-1.17,85.08-34.87,85.08-34.87
		s-29.03,17.85-60.39,17.85c-23.86,0-51.71-9.17-75.07-28.36l-0.83-3.84c5.67-0.83,4.51-4,6.84-6.84c2.34-2.84,6.34-1.17,6.17-2.34
		c-0.17-1.17-2.84-1.33-2.84-1.33l-0.17-2c0,0,8.34,0,8.34-3.67c0-3.67-5.84-0.5-13.68-4.34l-4.34-10.01
		c32.53-1.84,70.06-12.18,70.06-12.18c3,5.67,9.01,6.67,9.01,6.67l-5,3c0,0,4.5,0.83,7.01,0.5c2.5-0.33,3.84-1.33,7.51-1.17
		c3.67,0.17,8.84,0.67,8.01-2.33c-0.83-3-6.51-5.17-6.51-5.17l0.5-1.33l8.51,2.17c-2.34-4.34,0.17-8.84,0.17-8.84l71.4-16.16
		c0,0,4.34,10.65,12.35,10.31c12.51-1.67,11.01,2.84,17.35,3.34c-3.34-3.33-7.51-11.51-7.51-11.51l1-0.67l7.84,6.17
		c7.67-6.51,16.85-3.17,17.35-4.5c0.5-1.33-4.17-4.84-3.34-5.84c0.83-1,6.34,5.01,7.84,4c1.5-1-2.34-9.51-2.34-9.51
		c24.02-1.5,61.73,2.67,61.73,2.67l0.33,1.33c-7.17,1.5,1.17,9.34,1.17,9.34l-2,0.67c0,0-4.34-4.5-6.17-4.5
		c-1.84,0-3.5,1.67-3.5,4.67s6.34,6.67,10.68,6.67c4.34,0,7.84-2.34,7.84-2.34c0,1.84,11.18,1,10.68-1.67
		c-0.5-2.67-6.67-7.67-6.67-7.67l11.85,5.67l4.33-7.17c31.69,6.67,48.22,12.84,48.22,12.84s-4.84,0.5-8.17,3
		c-2.5,1.33,0,4.84,0,4.84c-2.33-1.17-3.34,0.83-3.34,0.83c3,6.34,9.84,5.5,9.84,5.5l-1.34-3c3.34,0,4.34,3,4.34,3
		s4.51-0.17,8.84-0.5c4.34-0.33,8.67,3.34,8.67,3.34l-0.83-2.84l3.17-4l2.17,2.84h5.84l6,5.34l0.83-4.84c0.67,2,3.17,2.84,3.17,2.84
		c0.67-1.33,4-3.34,4-3.34c-1-3.34,6.34-8.01,6.34-8.01c1-7.67-8.84-8.67-11.18-8.17c-2.34,0.5-0.5,3.33-2,3.67
		c-1.5,0.33-1.67-3.67-2.83-3.5c-1.16,0.17-0.67,3.33-0.67,3.33s-5.01-0.5-6.51,0.67c-1.5,1.17-5.34,7.01-5.34,7.01l-28.86-14.51
		l8-3l1.5,1.84c3.17-15.68-15.68-14.35-16.85-14.01c-1.17,0.33,2.34,7.68,0.67,8.18c-1.67,0.5-5.17-5.34-6.51-5.34
		c-1.33,0-8,4.34-8,4.34c-6.84-3.84-26.19-7.01-26.19-7.01s12.34-3.17,28.02-3.17c50.55,0,89.75,18.18,101.93,23.69
		c12.18,5.5,12.52,10.01,12.52,10.01c-2.34-1.33-5.34-2.17-5.34-2.17c-0.33,3.5,19.85,11.68,19.85,11.68
		c-4.67-5.17-3.34-7.51-3.34-7.51c5.67,6.67,8.67,4.17,10.34,5.01c1.67,0.83,62.23,33.37,68.74,37.04c6.51,3.67,7,7.67,5.17,8.51
		c-1.84,0.83-4.17-3.84-4.17-3.84c-2.67,2.5-2.67,8.51-0.83,9.01c1.84,0.5,0-1.67,2.5-1.33c2.5,0.33,1.84,2.33,6.01,3.33
		c4.17,1,8.68,3.84,8.68,3.84l0.33-4.5l6.84,8.51c9.51-0.67,16.02,7.84,16.02,17.18c0,9.34-6.01,14.01-6.01,14.01
		c-37.03-26.69-65.73-35.2-65.73-35.2c20.35,10.34,55.72,40.54,66.39,52.89c10.67,12.34,12.68,16.02,12.68,21.86
		s-3.83,10.01-3.83,12.68c0,2.67,1.5,5.34,4.33,5.34c4.84,0,13.51-11.01,13.51-11.01s15.85,11.34,15.85,25.52
		c0,14.18-17.85,8.67-32.19,21.02c0,0-36.03-15.18-78.73-20.02c-37.7-4.17-59.19-1.66-59.19-1.66L601.34,338.51z"/>
	<path class="st4" d="M132.07,207.77c22.36,16.75,48.19,24.78,70.51,24.78c31.36,0,60.39-17.85,60.39-17.85s-35.71,33.7-85.08,34.87
		l-31.02,10.51l14.01,7.34l17.52-0.67c0,0-18.18,19.35-55.88,20.69c0,0-7.67,8.18-2,52.05c0,0,5.34-4,12.18-5.84
		c0,0-3.33-1.83-2.83-3.5c0.5-1.67,14.18-0.33,14.18,7.01c0,3.51-2.67,4.01-5,13.85c0,0-4.17,2.84-5.67,5.34
		c0,0,7.51-1.67,9.34,3.67s7.18,5.84,8.68,13.51c0,0,3.17,1.33,4.67-0.67c0,0-0.83,4.17-9.01,9.17l7.17,1c0,0,0.34,9.19-8.17,16.69
		c0,0,2.33,5.33,13.18,16.51c0,0,14.35-10.67,15.68-12.18c1.33-1.5,1.5-3.33,5.84-5.84c4.34-2.5,3.84-8.67,3.84-8.67l3.67-6.84
		l42.71-17.18c0,0-9.68-3.84-9.68-11.68c0-4.17,4.34-8.34,3.34-9.68c-1-1.34,1.84-5.34,1.84-5.34s-5.17,3.67-9.34-0.17
		c-4.17-3.84-2.67-10.84-0.83-12.84l-6.17-1l0.17-0.83c0,0,10.68-0.83,13.18-3.5c0,0-7.01,0.33-5.67-2c1.33-2.33,4-3.83,10.51-2
		c6.51,1.83,10.01,1.67,10.68,4.5c0.67,2.84,3.33,10.01,9.01,13.51c7.02,4.67,13.03,0.84,18.36,12.51l23.52-2.17v-16.18l77.07-5.51
		l-22.52-9.17l-21.85-4.41c0,0,34.04,0.91,98.76,13.26c13.89,2.65,27.75,5.58,41.32,8.76c0,0-11.97-12.82-24.96-23.55
		c0,0-49.7-14.35-117.53-23.72c0,0,36.71,1.21,104.23,14.95c-23.41-19.03-43.05-24.32-43.05-32.93c0-5.59,10.87-14.2,10.87-14.2
		l15.86-12.54l35.2-13.6l-1.06-10.12l2.72-2.27c0,0-2.57-6.8,5.29-6.19l0.45-0.6c0,0-32.03-12.09-107.56-12.84l7.71,7.7
		c0,0-8.31,0.45-15.26-0.6c0,0-2.87,6.19,1.81,15.11l-8.01-0.6l10.88,5.44c0,0-6.65-0.46-7.1,6.64c0.15,5.89-9.21,6.19-9.21,6.19
		l1.06,3.78l-6.34-2.87l3.78,4.68c-17.52,1.06-22.81-2.87-19.03-8.16c1.51-1.96,0.15-4.38-3.17-7.25l0.15-3.32
		c0,0,8.31,1.36,10.88,1.66c0,0-3.02-2.72-10.88-5.44c1.06-4.68,4.83-2.42,7.4-8.91c0,0,4.99,1.21,8.61,2.72
		c0,0-1.66-3.48-11.48-6.2c0,0,5.29-0.6,8.91-0.91c3.63-0.3,3.63-3.47,3.63-3.47c-35.79,2.57-71.45,13.44-92.9,19.03l7.25-7.85
		c0,0-22.81,6.5-42.9,6.5S150.34,212.48,132.07,207.77z"/>
	<path class="st5" d="M638.73,329.16c-2.55-0.37-5.12-0.7-7.72-0.99c-28.67-3.17-47.97-2.48-55.57-1.97l-3.31-1.54
		c0,0-9.82-15.25-27.34-19.49c0,0,17.37-6.2,40.03-6.2c22.66,0,36.71,7.55,46.53,7.55c8.61,0,7.4-5.44,7.4-5.44
		c4.83,4.38,1.51,11.63-8.91,12.24C629.84,313.33,630.55,321.12,638.73,329.16z"/>
	<path class="st6" d="M701.91,230.91c1.81,2.91,2.82,6.47,2.82,10.15c0,9.34-6.01,14.01-6.01,14.01
		c-9.99-7.2-19.37-13.08-27.75-17.82C689.05,238.86,696.78,237.77,701.91,230.91z"/>
	<path class="st2" d="M382.94,394.26c43.62,17.23,38.23,59.78,40.56,85.98c0.54,48.29,8.08,76.84,51.52,98.56
		c0,0,35.18-18.85,45.59-51.52c-23.16-15.44-21.9-42.19-21.9-56.01c0-36.8-8.26-64.98-49.19-72.16
		c28.36,19.38,29.26,83.11,29.26,91.73c0,29.26,8.62,42.73,8.62,42.73s-14.54-4.13-18.85-50.98
		C466.41,401.44,418.48,383.85,382.94,394.26z"/>
	<path class="st0" d="M512.9,284.63c0,0,19.49-11.03,42.6-11.03c25.08,0,48.94,5.89,48.94,5.89s6.19-6.34,6.19-20.09
		c0-22.2-19.79-35.8-19.79-35.8s6.04,10.12,6.04,23.41c0,15.86-13.3,23.11-28.4,23.11c-22.51,0-41.09-12.39-41.09-12.39
		l-29.61-12.08l-5.89-11.03l0.76-10.12c0,0,2.26-3.62,5.59-4.53l-0.76-3.62l3.17,2.87c0,0,9.21-3.17,9.21-10.27
		c0-4.08-4.38-6.34-7.55-6.34s-4.08,1.36-6.5,1.36c-2.42,0-1.66-2.42-6.04-0.15c-4.38,2.26-17.67,6.65-17.67,6.65
		s-7.25,2.12-10.58-2.87c-3.33-4.99-7.86-5.29-10.27-5.29c-6.21,1.05-0.6,4.54-0.6,4.54l-0.45,0.6c0,0-6.51-1.07-5.61,5.13
		l-6.34,19.34l-34.44,9.06l-12.54,12.84l0.15,1.21c0,0,14.96-5.29,31.73-3.78l12.68,17.37l25.68,14.35l21.3,5.59l14.2,5.29
		c0,0,17.22,8,42.3,32.93C539.32,326.77,539.02,313.33,512.9,284.63z"/>
	<path class="st5" d="M497.03,220.44c-2.65,1.3-4.38,4.07-4.38,4.07l-0.76,10.12l5.89,11.03l29.61,12.08
		c0,0,18.58,12.39,41.09,12.39c8.5,0,16.42-2.29,21.73-7.12c0,0-5.56,2.59-14.32,2.59c-8.76,0-16.01-3.32-33.84-17.07
		C524.23,234.78,508.65,225.14,497.03,220.44z"/>
	<path class="st5" d="M603.04,236.27c4.07,5.93,7.59,13.77,7.59,23.13c0,13.75-6.19,20.09-6.19,20.09s-23.87-5.89-48.94-5.89
		c-23.11,0-42.6,11.03-42.6,11.03s22.37-0.91,28.27,21.45c0,0,33.99-23.41,85.05-21C625,266.96,614.01,249.09,603.04,236.27z"/>
	<path class="st0" d="M638.75,301.1c0,0,1.21,5.44-7.4,5.44c-9.82,0-23.87-7.55-46.53-7.55c-22.66,0-40.03,6.2-40.03,6.2l-1.68-0.33
		c3.7-2.25,12.55-7.2,25.43-11.6C590.11,286.14,625.92,288.86,638.75,301.1z"/>
	<path class="st0" d="M437.68,308.05c0,0-49.7-14.35-117.53-23.72c0,0,36.71,1.21,104.23,14.95
		c56.51,10.72,133.4,35.49,160.89,51.35c3.33,3.63,3.02,3.17,3.02,6.2c0,3.02-3.32,4.38-5.74,4.38c-2.42,0-2.42,0.3-12.24-4.83
		C560.5,351.24,511.71,328.58,437.68,308.05z"/>
	<path class="st0" d="M634.97,201.05c-0.28,0.64-0.82,0.7-1.34,1.01c-0.52,0.32-1.24,0.74-1.95,0.86c-1.29,0.23-2.89,0.25-3.56,1.63
		c0.52,0.22,0.7,1.16,0.95,1.61c0.3,0.55,0.75,1.22,1.22,1.63c1.08,0.96,2.4,1.87,3.2,3.04c-0.92,0.14-1.83-0.62-2.57-1.04
		c-0.71-0.42-1.92-0.38-2.47-0.81c-0.07,1.69,1.24,2.97,2.32,4.05c1.48,1.49,3.64,2.57,5.7,3.2c0.54,0.16,1.1,0.33,1.63,0.5
		c0.66,0.22,1.35,0.19,2.01,0.41c0.97,0.33,1.84,1.1,2.78,1.43c0.51,0.18,0.97,0.23,1.49,0.28c0.36,0.04,1.45,0.49,1.72,0.28
		c0.32-0.24-0.36-1.54-0.52-1.83c-0.43-0.74-1.19-1.32-1.64-2.11c-0.91-1.58,0.32-1.14,1.39-0.65c1.07,0.49,1.95,1.19,2.83,1.78
		c0.7,0.46,2.39,1.61,3.3,1.58c0.12-1.43-0.08-3.14-0.63-4.39c-0.69-1.58-1.08-3.36-2.26-4.67c-1.08-1.19-2.47-2.03-3.73-2.92
		c-0.61-0.43-1.28-0.86-1.96-1.13c-0.33-0.13-1.13-0.6-1.45-0.51c-0.31,0.08-0.42,0.64-0.77,0.79c-1.29,0.56-2.15-0.51-2.73-1.39
		c-0.54-0.82-0.97-1.48-1.63-2.2L634.97,201.05z"/>
	<path class="st0" d="M602.99,174.19c0,0.95,0.55,2.37-0.25,3.11c-1.02,0.94-2.67-0.16-3.72-0.64c-0.74-0.34-2.4-1.39-2.8-0.13
		c-0.25,0.77,1.01,2.16,1.33,3.02c0.85,0.43,1.25,1.89,1.05,2.8c-0.6,0.18-1.52,0.03-1.85-0.52c-1.05-0.24-2.06-1.05-2.81-1.88
		c-0.09,0.45,0.45,1.33,0.66,1.72c0.43,0.8,0.85,1.17,1.54,1.75c1.11,0.94,2.22,1.8,3.27,2.73c1.19,1.07,2.36,1.97,4.05,1.96
		c2.17-0.01,3.82,0.16,5.88,0.86c1.11,0.37,2.29,0.92,2.85,1.94c0.68,1.22,1.38,2.07,2.46,2.93c1.53,1.23,2.91,2.42,4.75,3.27
		c0.75,0.35,4.1,1.51,4.35,0.12c-0.39-0.28-1.03-1.28-1.09-1.72c-0.73-0.5-1.4-2.04-1.62-2.89c-0.21-0.8-0.16-1,0.71-1.09
		c0.81-0.09,1.09,0,1.55,0.54c0.71,0.84,1.09,1.91,1.73,2.71c0.57,0.72,1.81,1.42,2.65,1.55c0.66-0.87,0.2-1.27,0.14-2.31
		c-0.06-0.89,0.25-1.82-0.17-2.54c-0.32-0.53-0.87-0.88-1.41-1.15c-0.24-0.12-1.22-0.35-1.37-0.52c-0.73-0.85,1.07-1.34,1.62-1.51
		c0.06-1.4-0.27-3.06-1.33-3.92c-0.85-0.7-2.33-1.86-2.64-3.04c-0.97-0.25-0.97,0.95-1.64,1.29c-0.83,0.42-1.53-0.33-2.11-0.84
		c-1.12-1-2.34-1.73-3.27-2.87c-0.68-0.82-1.2-1.49-2.3-1.89c-0.93-0.34-2.22-0.15-3.2-0.14c-1.02,0.02-1.87,0.3-2.8,0.62
		c-0.61,0.21-1.51,0.5-2.02-0.14c-0.43-0.55-0.34-1.48-0.85-2.12L602.99,174.19z"/>
	<path class="st0" d="M577.94,194.12c0.43,0.42,1.16,0.84,1.72,1.25c0.39,0.28,1.09,1.02,1.61,1.1c1.24,1.29-1.54,2.39-2.16,3.03
		c-0.91,0.92-2.52,2.19-1.93,3.7c0.24,0.6,0.72,1.16,0.91,1.91c0.21,0.84,0.08,1.82,0.31,2.63c0.29,1.02,2.11,3.08,3.19,3.43
		c1.24,0.4,1.52-0.97,2.24-1.51c0.52-0.39,1.56-0.23,2.14-0.08c0.92,0.25,1.5,0.44,2.47,0.49c0.52,0.02,3.62,0.17,2.49,1.25
		c-0.87,0.84-2.81-0.42-3.72,0.4c0.06,0.64,1.14,0.81,1.62,1.07c0.6,0.32,1.28,0.72,1.77,1.19c0.78,0.74,1.47,0.97,2.58,1.15
		c0.73,0.12,1.46-0.02,2.04-0.21c0.66-0.22,1.18-0.55,1.8-0.76c0.72-0.24,1.64-0.18,2.41-0.26c0.96-0.1,1.51-0.22,2.41,0.16
		c0.85,0.36,1.76,0.83,2.63,1.14c-0.38-0.43-0.67-1.38-1.01-2.01c-0.26-0.47-0.74-1.67-0.54-2.28c0.26-0.78,1.59-0.56,1.86-1.52
		c0.22-0.78-0.37-1.3-0.61-2.04c-0.33-1.01-0.34-1.38-1.16-2.1c-0.54-0.47-1.13-0.94-1.63-1.44c-0.48-0.47-0.43-0.62-0.72-1.19
		c-0.75-1.48-1.84-2.85-3.19-3.81c-1.37-0.97-2.89-1.49-4.37-2.2c-0.88-0.42-1.39-0.97-2.4-1.01c-0.61-0.02-2.06-0.2-2.16,0.54
		c-0.08,0.56,0.82,1.33,0.94,1.95c0.24,1.24-0.44,1.36-1.43,1.02c-1.3-0.44-2.2-1.46-3.34-2.17c-0.82-0.51-1.63-0.9-2.46-1.36
		c-0.89-0.49-1.55-1.25-2.51-1.7L577.94,194.12z"/>
	<path class="st0" d="M562.38,212.26c-0.08-0.19,0.04-0.35-0.31-0.33c-0.05-0.06,0.03-0.14-0.02-0.21
		c-0.56,0.09-1.09-1.15-1.33-1.55c-0.42-0.69-0.66-1.15-1.32-1.65c-1.23-0.93-2.64-1.79-3.88-2.57c-1.32-0.84-2.69-2.06-3.6-3.35
		c-0.4-0.57-0.54-1.2-1.01-1.69c-0.42-0.44-1.28-0.95-1.92-1.09c-1.84-0.42-3.93,1.11-5.28,2.18c-0.89,0.7-1.69,2.35-2.89,2.24
		c-1.73-0.15-3.28-1.28-4.97-1.47c-0.21,2.69,3.04,2.49,4.13,4.41c0.08,0.02,0.14,0,0.21,0.03c0.26,0.69,0.63,1.46,0.01,2.01
		c-0.63,0.55-1.81-0.09-2.54-0.44c-0.37-0.18-0.72-0.47-1.12-0.65c-0.49-0.22-0.72-0.66-1.15-0.86c-0.75-0.35-1.79,0.32-1.73,1.19
		c0.02,0.41,0.38,0.78,0.45,1.23c0.06,0.4,0.04,0.86,0.02,1.26c-0.05,0.68-0.23,1.24-0.7,1.77c-0.54,0.62-1.36,0.95-1.25,1.95
		c0.11,1,1.53,1.48,2.35,2c0.62,0.39,1.45,0.84,1.62,1.55c0.39,0.05,0.45,0.45,0.39,0.76c-0.86,0.48-1.97-0.32-2.89-0.52
		c-0.86-0.19-1.67-0.18-2.57-0.23c-0.8,1.58,2.33,3.22,3.48,3.64c1.68,0.61,3.69,0.56,5.49,0.58c1.27,0.01,2.36,0.35,3.64,0.39
		c1.08,0.03,2.16,0.12,3.25,0.08c1-0.04,1.8-0.41,2.71-0.83c1.04-0.48,1.39-0.99,2.05-1.88c0.99-1.34,2.17-2.52,3.23-3.79
		c0.86-1.03,2.68-2.37,1.44-3.89c-0.51-0.62-1.31-0.97-1.93-1.45c-0.52-0.4-1.43-1.51-0.73-2.21c0.4-0.4,1.7-0.07,2.11,0.11
		c0.73,0.3,1.45,0.92,2.19,1.32c0.58,0.31,0.97,0.53,1.42,0.91c0.37,0.31,1.67,0.76,1.69,0.8L562.38,212.26z"/>
	<path class="st0" d="M535.29,177c0.31,0.31,0.78,0.54,1.03,0.77c0.46,0.04,1.22,1,1.54,1.3c0.54,0.49,0.85,0.97,1.47,1.36
		c0.55,0.36,0.95,0.69,1.42,1.09c0.44,0.38,1.27,0.54,1.55,1.17c0.77-0.03,2.17,0.72,2.9,1.02c0.93,0.39,1.87,0.7,2.78,1.01
		c2.49,0.84,5.2,1.4,7.85,1.3c0.12-1.1,0.14-2-0.58-2.9c-0.66-0.82-1.69-1.49-1.73-2.6c1.57-0.84,3.87,1.65,4.83,2.62
		c1.33,1.34,3.09,2.55,4.41,3.76c0.74,0.16,1.49,0.35,2.29,0.13c0.94-0.26,0.99-0.76,1.6-1.39c1.31-1.34,3.47-1.07,5.23-1.09
		c1.89-0.02,3.29-0.96,3.86-2.77c0.21-0.67,0.38-1.82,0.25-2.52c-0.12-0.64-0.67-1.39-1.07-1.97c-0.59-0.85-1.62-1.79-2.51-2.41
		c-0.96-0.67-3.07-1.29-3.65-2.38c-0.74-1.41,0.98-1.38,1.85-1.11c0.77,0.23,1.97,1.64,2.8,1.02c-0.25-0.53-1.04-0.89-1.49-1.25
		c-0.66-0.54-1.2-1.01-1.77-1.56c-1.19-1.14-2.33-1.71-4.05-1.71c-1.62,0-3.06,0.53-4.57,0.86c-0.99,0.21-3.95-0.2-4.47,0.7
		c0.77,0.8,4.27,2.78,3.54,4.35c-0.33,0.7-1.99,0.71-2.55,0.41c-0.45-0.24-0.84-0.8-1.3-1.09c-0.48-0.3-1.39-0.57-1.63-1.08
		c-0.73-0.26-1.32-0.93-2.01-1.33c-0.76-0.44-1.43-0.84-2.28-1.16c-1.55-0.59-3.85-0.91-5.5-0.45c-0.74,0.2-1.93,0.64-2.57,1.07
		c-0.74,0.5-1.28,1.22-2.08,1.68c-0.84,0.48-2.03,0.77-2.75,1.42c-0.84,0.76,0.25,1.39,0.79,2.05c0.44,0.52,1.18,0.95,1.57,1.55
		c0.33,0.53,0.23,1.22,0.51,1.78c-0.94,0.35-2.57-0.26-3.18-1L535.29,177z"/>
	<path class="st0" d="M489.76,175.52c0.55-0.31,1.89,0.77,2.3,1.09c0.46,0.35,1.53,0.98,1.77,1.46c0.72,1.44-2.23,2.34-3.1,2.86
		c-1.07,0.64-2.85,1.21-3.31,2.46c-0.51,1.42,1.35,2.55,1.56,3.81c0.08,0.48,0.08,1.27-0.09,1.7c-1.21,0.26-2.56-0.61-3.49-1.23
		c-0.91-0.6-1.89-0.95-2.87-1.46c0.02,1.27,1.75,2.7,2.86,3.05c0.32,0.78,1.62,1.05,2.25,1.54c0.58,0.45,1.49,1.34,1.26,2.23
		c-0.31,1.21-1.56,0.56-2.39,0.16c-1-0.49-1.65-0.92-2.81-0.74c-0.19,0.84-0.84,1.29-0.54,2.23c0.25,0.77,0.94,1.14,1.4,1.68
		c0.67,0.8,1.11,1.4,2.25,1.6c1.06,0.18,2.26,0.06,3.34,0.06c1.79,0,3.6,0.02,5.34-0.15c0.91-0.09,1.64-0.19,2.47-0.37
		c0.9-0.19,1.74-0.81,2.52-1.09c0.79-0.29,1.04-0.11,0.89-0.97c-0.13-0.69-0.55-1.23-0.89-1.84c-0.44-0.77-2.17-1.73-2.07-2.57
		c1.31-0.42,1.88,0.45,2.88,1.1c0.87,0.57,1.77,0.99,2.75,1.28c2.09,0.61,4.25,0.05,6.25-0.64c1.87-0.65,3.31-2.33,4.84-3.62
		c1.33-1.12,3.46-0.64,4.89-1.81c1.31-1.06-0.42-2.3-0.61-3.41c-0.17-1.03,0.21-1.21,1.13-1.25c0.42-0.02,0.92-0.04,1.31,0.06
		c0.53,0.14,0.77,0.51,1.22,0.64c0.86,0.26,0.87-0.56,0.94-1.28c0.07-0.75,0.15-1.8,0-2.54c-0.35-1.7-2.62-2.46-3.98-3.19
		c-1.46-0.78-2.88-1.43-4.43-2.06c-1.31-0.54-4.22-0.86-5.55-0.37c0.6,0.42,0.71,0.85,1.14,1.38c0.18,0.22,0.78,0.51,0.83,0.73
		c0.22,0.9-1.6,0.63-2.11,0.49c-1.99-0.54-3.48-2.9-5.62-1.63c-0.88,0.52-1.28,0.99-1.99,1.64c-0.59,0.54-1.91,0.45-2.73,0.37
		c-0.87-0.09-1.89-0.35-2.68-0.55c-0.9-0.22-1.88-0.28-2.76-0.49c-0.65-0.15-1.26-0.47-1.97-0.37H489.76z"/>
	<path class="st0" d="M448.9,192.64c0.12-0.66-0.56-1.36-0.99-1.63c-0.85-0.54-1.47-0.93-2.06-1.61c-0.65-0.74-2.78-2.96-1.56-3.92
		c0.35-0.28,1.17-0.37,1.57-0.58c0.39-0.2,0.77-0.48,1.19-0.68c0.66-0.31,1.22-0.75,1.86-1.13c1.38-0.81,1.99-2.13,3.03-3.31
		c0.72-0.81,1.2-1.23,1.64-2.25c0.39-0.91,1.02-1.43,1.84-1.91c1.69-0.99,3.48,1.06,5.1,1.21c-1-0.6-2.01-2.02-1.81-3.25
		c0.13-0.79,0.87-1.34,1.56-1.69c0.92-0.48,1.77-0.88,2.64-1.44c2.77-1.76,4.83-6.06,1.36-8.16c-1.06-0.64-3.12-1.45-4.43-0.9
		c-0.52,0.22-0.99,0.65-1.52,0.9c-0.73,0.34-1.49,0.42-2.31,0.47c-1.95,0.11-3.56-0.18-5.4-0.71c-1-0.29-2.08-0.4-3.12-0.81
		c-1.1-0.43-2.56-0.89-3.72-0.7c0.14,0.47,0.65,0.37,0.92,0.64c0.21,0.21,0.35,0.77,0.46,1.06c0.44,1.16,0.06,1.46-1.13,1.6
		c-1.86,0.22-3.8-0.55-4.51,1.58c-0.94,2.83-3.08,1.85-5.55,1.86c-0.8,0-1.7-0.23-1.72,0.78c-0.02,0.85,0.84,1.37,1.49,1.81
		c2.05,1.39,4,2.26,4.86,4.71c0.66,1.89-0.75,1.29-2,0.52c-1.28-0.79-2.39-1.57-3.75-2.18c-2.03-0.9-3.92-2.04-5.98-2.85
		c-1.5-0.58-3.77-0.06-5.19,0.65c-1.27,0.64-2.88,1.51-3.69,2.78c-0.72,1.13-1.76,3.45-1.23,4.69c0.75,1.74,2.5,3.01,3.97,4.1
		c0.58,0.44,1.43,1.1,1.85,1.66c0.28,0.37,0.78,1.58,0.69,1.97c-1.05,0.13-1.93-0.1-2.91-0.35c-0.45-0.12-2.73-0.92-2.73-0.02
		c0.94,0.19,1.84,1.34,2.72,1.73c0.65,0.29,1.42,0.44,2.1,0.81c0.7,0.37,1.43,1.09,2.34,0.95c-0.83,1.64,4.75,1.31,5.59,1.34
		c1.77,0.08,3.19,0.08,4.75-0.62c0.73-0.33,1.41-0.22,1.48-1.09c0.07-0.78-0.04-1.03-0.41-1.71c-0.3-0.57-0.77-1.78-0.07-2.16
		c0.91-0.5,2.26,1.1,2.74,1.54c1.09,1.02,2.31,2,3.54,2.81c0.93,0.61,1.97,1.3,3,1.71L448.9,192.64z"/>
	<path class="st0" d="M378.54,179.49c-0.11-0.83,0.38-1.91,0.39-2.8c0.01-0.86,0-1.72,0-2.57c0-0.28-0.13-0.95-0.01-1.16
		c0.14-0.25,0.91-0.49,1.18-0.64c0.84-0.48,1.58-1.01,2.34-1.56c1.29-0.92,2.15-2.66,2.79-4.12c0.7-1.57,1.59-3.78,1.18-5.56
		c-0.18-0.8-0.9-1.82-1.25-2.59c-0.34-0.73-0.77-1.29-1.36-1.84c-1.29-1.21-3.25-1.65-5.03-1.74c-1.71-0.08-3.86-0.29-5.44,0.29
		c-0.93,0.34-1.66,0.47-2.68,0.47c-1.21-0.01-1.77-0.67-2.38-1.61c-0.49-0.77-0.89-1.54-1.27-2.34c-0.3-0.63-0.43-1.44-0.75-2.04
		c-0.37-0.7-1.33-1.24-1.39-0.09c-0.01,0.23,0.24,0.78,0.29,1.03c0.1,0.48,0.13,1.04,0.21,1.56c0.56,3.18,1.37,6.32,1.19,9.66
		c-0.02,0.4,0.01,0.67-0.31,0.84c-0.76,0.4-1.07-0.75-1.45-1.24c-0.48-0.62-0.86-1.17-1.29-1.85c-1.01-1.6-1.67-3.17-3.49-3.76
		c-1.79-0.58-3.17,0.43-4.65,1.25c-1.15,0.64-2.37,1.46-3.37,2.47c-1.06,1.07-1.73,2.68-1.36,4.26c0.37,1.56,1.88,2.66,1.99,4.32
		c0.16,2.39-3.04,0.01-3.8-0.61c-1.19-0.97-2.18-2.07-2.98-3.3c-0.51,1.23-0.11,3.86,0.38,5.09c0.61,1.55,1.75,3.93,2.97,5.05
		c0.61,0.56,1.43,1.12,2.11,1.54c0.89,0.55,1.63,0.79,2.59,1.18c2.1,0.86,4.08,1.57,6.37,0.76c3-1.05,5.59-3.26,8.74-3.71
		c1.77-0.25,3.46-0.17,4.93,0.79c0.8,0.53,1.44,1.01,2.13,1.64c0.44,0.4,1.03,1.74,1.48,1.92L378.54,179.49z"/>
	<path class="st0" d="M401.26,229.92c-0.96-1.26-1.8-2.29-3.18-2.97c-0.63-0.31-1.62-0.83-0.97-1.78c0.38-0.55,1.24-0.79,1.75-1.24
		c1.13-0.99,2.18-2.8,2.76-4.15c0.33-0.74,0.69-1.68,0.49-2.52c-0.15-0.65-0.85-1.36-1.24-1.91c-0.4-0.55-0.59-0.83-0.7-1.6
		c1.34-0.97,2.77,0.87,3.92,1.11c-0.34-0.51-0.51-1.1-0.81-1.59c-0.45-0.71-1.11-0.98-1.89-1.31c-0.7-0.3-1.55-0.74-1.3-1.72
		c0.2-0.78,1.22-0.75,1.73-1.26c0.41-0.41,0.31-0.7,0.37-1.28c0.04-0.38,0.25-1.01,0.17-1.35c-0.19-0.73-1.35-1.22-1.89-1.51
		c-0.77-0.41-1.48-0.87-2.24-1.31c-0.49-0.29-1.78-0.97-2.38-0.76c-2.08,0.7,0.97,4.87-2.55,2.59c-1.43-0.93-3.26-2.02-4.97-2.49
		c-1.76-0.49-3.6,0.23-5.06,1c-1.8,0.94-3.71,1.85-5.68,2.41c-0.82,0.23-1.92,0.59-2.49,1.15c-0.93,0.92-0.13,1.32,0.39,2.12
		c0.46,0.72,0.9,1.51,1.27,2.27c0.32,0.67,0.77,1.33,0.6,2.16c-1.37,0-2.95-1.12-4.27-1.47c-0.62-0.17-1.26-0.32-1.89-0.52
		c-0.94-0.3-1.33-0.38-1.9,0.46c-0.54,0.8-0.33,1.66-0.72,2.48c-0.38,0.78-1.36,1.14-2.11,1.42c-1.17,0.43-2.2,1.12-3.27,1.75
		c-0.71,0.43-1.77,0.84-2.2,1.58c-1.05,1.77,0.32,3.6,1.42,4.67c0.87,0.85,2.51,1.91,2.17,3.34c-0.95,0.05-3.15-0.42-3.72,0.46
		c0.45,0.25,0.68,0.63,1.04,0.9c0.78,0.59,1.68,0.96,2.48,1.53c1.05,0.75,2.38,1.29,3.39,2.09c0.59,0.46,1.3,1.08,0.32,1.34
		c-1.03,0.27-2.24-0.17-3.3,0.07c0.18,0.18,0.41,0.18,0.59,0.34c0.29,0.24,0.65,0.76,0.98,0.96c0.56,0.34,1.47,0.29,2.15,0.49
		c1.83,0.53,2.67,0.3,4.41,1.03c2.03,0.85,4.33,1.73,6.23,0.39c-1.01-0.35-4.02-1.3-3.32-2.97c0.4-0.95,1.87-0.37,2.4,0
		c0.83,0.59,1.68,1.19,2.63,1.63c3.98,1.85,7.03-2.86,9.34-5.12c1.06-1.03,2.11-2.37,3.66-2.74c1.25-0.29,4.24-0.36,4.82,1.18
		L401.26,229.92z"/>
	<path class="st0" d="M184.89,305.26c-0.91,0-1.88,0.09-2.79,0c-0.95-0.09-1.75-0.94-2.58-0.85c-1.28-1.78-4.86-3.34-7.08-3.67
		c-2.09-0.31-5.63-1.21-7.84-0.07c-2.26,1.16-4.21,3.96-5.9,5.84c-0.99,1.1-1.92,2.2-2.67,3.56c-0.95,1.71-0.92,3.16-1.31,5.03
		c-0.74,3.55-3.97,2.46-6.61,3.79c2.02,0.16,4.12-0.03,6.15,0.06c1.32,0.06,4.62-0.17,5.24,1.11c-1.34,0.89-3.77,1.18-4.79,2.76
		c0.65,0.55,1.27,0.59,1.77,1.32c0.43,0.63,1.01,2.15,1.25,2.92c0.5,1.56,0.27,3.53,0.27,5.24c0,2.2-0.04,4.35,0.28,6.49
		c0.24,1.64-0.17,4.14,0.4,5.67c2.36-0.84,5.32-0.03,7.72,0.14c-0.33,0.93-1.8,1.32-2.62,1.83c-1.02,0.63-2.2,1.35-3.35,2.01
		c-2.37,1.37-3.24,4.36-1.99,6.89c1.24,2.53,2.47,4.44,5.08,5.77c2.45,1.24,5.53,2.29,8.4,1.96c5.59-0.66,8.75-7.62,12.37-11.14
		c2.34-2.27,5.78-2.87,7.69-5.77c1.69-2.56,2.83-7.05,2.36-10.08c-0.22-1.42-0.95-2.71-1.83-4.03c-0.85-1.29-2.29-1.84-3.73-2.51
		c-1.69-0.77-3.21-0.5-4.86,0.31c-1.34,0.66-2.71,0.69-4.22,1.05c0.88-1.16,2.18-2.09,3.41-2.89c0.58-0.37,2.22-0.96,2.58-1.51
		c0.36-0.55,0.03-2.51-0.1-3.27c-0.18-1.11-1-2.16-1.62-3.05c-1.23-1.77-2.14-4.33-2.77-6.54c-0.29-1.01-0.29-2.18-0.95-2.96
		c-0.68-0.82-2.18-1.76-3.07-1.12c0.65-1.45,5.01-2.07,6.47-2.74L184.89,305.26z"/>
	<path class="st0" d="M215.64,276.02c-0.08-0.83-2.35-1.99-2.87-2.41c-1.27-1.02-2.19-0.9-3.76-1.31c-0.93-0.24-2.39-0.89-3.58-0.83
		c-1.39,0.07-1.74,0.89-2.79,1.62c-2.38,1.64-5.39-0.12-7.83,0.97c-2.11,0.94-3.93,2.74-4.41,5.11c0.95-0.14,0.9,0.45,1.63,0.79
		c0.45,0.2,0.58,0.21,1.16,0.33c0.93,0.2,2.29,0.51,3.25,0.44c0.2,0.4,0.21,0.81,0.02,1.19c-0.75-0.06-1.67,0.37-2.5,0.44
		c-0.78,0.07-1.85,0.16-2.61,0.01c-1.12-0.21-3.73-1.48-4.48,0.1c1.59,1.4,0.08,2.54,0.08,4.11c0,1.87,1.5,3.79,2.24,5.28
		c0.13,0.04,0.23,0,0.36,0.03c0.51,2.3,3.28,4.09,5.24,4.82c1.71,0.64,3.82,0.81,5.65,1.07c1.22,0.17,2.63,0.39,3.87,0.28
		c-0.07-1.35-1.16-1.88-2.29-2.35c-0.83-0.35-3.42-0.99-2.1-2.04c1.18-0.95,3.94,0.26,5.21,0.41c1.61,0.2,2.99,0.73,4.58,0.83
		c2.4,0.14,5.9,0.82,7.72-0.97c0.95-0.93,1.41-2.42,2.07-3.45c0.78-1.21,2.28-1.7,2.61-3.03c0.25-1,0.2-2.54,0.14-3.58
		c-0.1-1.57-0.87-2.08-1.54-3.29c-0.96-0.35-1.88-1.34-2.82-1.85c-1.04-0.57-1.71-0.74-2.94-0.79c-0.98-0.04-2.66,0.25-3.24-0.48
		c-0.85-1.07,0.12-1.5,0.9-1.86L215.64,276.02z"/>
	<path class="st0" d="M275.89,246.1c-0.46-0.51-1.19-0.08-1.93-0.27c-0.8-0.2-1.43-0.73-2.1-1.08c-1.45-0.76-3.06-1.5-4.77-1.71
		c-0.36-1.42-0.79-1.94,0.02-3.26c0.64-1.06,1.46-1.78,1.77-3.05c0.54-2.23,0-5.01-1.69-6.6c-3.45-3.23-9.97-3.29-14.59-3.05
		c0.46,0.61,1.19,0.83,1.76,1.39c0.72,0.7,0.8,1.45,2.08,1.37c0.3,0.35,0.56,0.89,0.58,1.47c0.11,0.02,0.23,0.04,0.34,0.05
		c0.79,2.05-7.01,0.73-8.21,0.67c-0.94-0.05-1.61-0.06-2.36,0.55c-0.71,0.57-0.78,1.53-1.63,2.09c-1.17,0.76-2.79,1.05-4,1.88
		c-2.22,1.52-4.39,3.23-7,4.06c-1.22,0.39-2.81,0.59-2.11,2.22c0.42,0.98,1.85,1.92,2.49,2.58c0.16,0.17,0.46,0.15,0.67,0.15
		c0.2,0.71-0.21,1.32-0.81,1.64c-1.11,0.59-2.04-0.41-2.95-0.94c-1.36-0.79-2.7-1.58-4.05-2.36c-0.55,1.26-0.06,3.09,0.27,4.26
		c0.21,0.74,0.69,1.33,0.63,2.1c-0.08,0.99-0.66,1.24-1.2,1.93c-2.66,3.47,4.93,3.78,6.6,5.79c-1.74,1.22-4.71,0.09-6.48-0.44
		c-1.78-0.54-3.96-0.56-5.77,0.13c2.65,1.8,6.55,3,9.88,3.86c1.94,0.5,3.89,0.83,5.9,1.1c1.91,0.26,3.31,1.11,5.31,1.11
		c1.6,0,3.09-0.14,4.61-0.28c1.88-0.18,2.3-0.55,3.68-1.64c1.28-1.01,1.97-1.39,3.68-1.38c1.39,0,2.89,0.13,4.15-0.25
		c1.82-0.54,5.23-2.13,4.86-4.22c-0.38-2.15-2.63-3.4-1.1-5.86c0.59-0.95,1.19-1.07,2.13-1.56c0.84-0.44,1.32-1.16,2.09-1.62
		c2.03-1.19,3.79-0.71,5.81-0.28L275.89,246.1z"/>
	<path class="st0" d="M309.26,289.4c-1.13-0.23-2.22,1.12-3.31,1.35c-1.16,0.25-2.97,0.38-4.13,0.17c-2.51-0.45-5.11-1.98-6.72-3.9
		c-3.2-3.8-4.68-8.67-8.14-12.24c-0.93-0.96-2.51-1.67-2.95-2.88c-2.08-0.77-4.5-0.49-6.71-0.72c-0.86-0.09-5.16-0.99-4.97,0.68
		c1.37,0.08,7.61,1.75,5.5,4.27c-1.5,1.79-7.01,0.11-9.1,0.43c-1.9,0.29-1.83,1.76-2.42,3.2c-0.52,1.26-1.25,2.58-1.86,3.84
		c-0.73,1.53-2.58,6.05-1.65,7.82c0.54,1.05,2.78,0.65,3.98,0.99c0.68,0.19,3.12,0.79,3.49,1.25c-1.52,1.41-3.42,1.79-5.23,2.5
		c-1.79,3.84,5.19,7.71,7.52,9.67c1.2,1,3.29,2.09,3.91,3.56c1,2.39-1.62,3.16-3.3,4.01c-0.26,1.26,2.3,1.86,3.18,2.15
		c1,0.33,1.82,0.61,2.87,0.72c1.22,0.13,1.58,0.39,2.72,0.76c2.85,0.92,6.83,0.39,9.48-1c1.43-0.75,2.47-1.34,4.17-1.42
		c1.64-0.08,3.31,0.09,4.87-0.12c2.26-0.31,5.34-1.35,7.45-2.45c1.26-0.65,2.1-1.2,1.94-2.55c-0.14-1.18-0.85-2.52-1.61-3.46
		c-1-1.24-2.16-2.45-3.21-3.69c-0.76-0.89-1.98-1.49-2.8-2.36c-0.57-0.61-1.25-1.68-1.49-2.51c-0.43-1.48-0.2-2.11,1.21-2.67
		c2.12-0.84,4.01-2.31,6.21-3.2L309.26,289.4z"/>
	<path class="st0" d="M361.65,273.27c-2.26-0.33-3.84-1.62-6.05-1.95c-0.15-0.25-0.28-0.79-0.28-1.05c1.53-0.63,3-1.06,4.67-0.51
		c1.71,0.57,2.62,1.47,4.69,1.47c-0.87,0.29-2.03-1.78-2.57-2.26c-0.92-0.82-2-1.09-3.06-1.8c-1.87-1.27-2.74-3.46-4.96-4.69
		c-0.93-0.52-8.02-1.81-6.74-3.56c0.56-0.77,3.52,0.23,2.75-1.1c-0.28-0.48-3.38-1.74-3.91-1.93c-1.17-0.41-2.72-0.35-3.99-0.41
		c-1.41-0.06-3.32-0.5-4.69-0.14c-1.05,0.28-0.45,0-1,0.83c-0.38,0.58-0.54,1.51-1.04,2.07c-1.15,1.31-2.56,0.6-4.2,0.82
		c-0.66,0.09-3.27,0.59-3.3,1.45c-0.03,1.02,3.18,1.55,4.05,1.87c0.77,0.29,3.27,1.03,2.32,2.35c-0.66,0.91-3.11,0-3.79-0.24
		c-1.56-0.57-3.62-1.65-5.27-1.2c0.2,1.71,4.44,3.3,5.91,4.03c0.63,0.31,2.28,0.71,1.6,1.94c-0.45,0.81-2.27,0.44-3.06,0.43
		c1.4-0.13,2.68,0.95,3.77,1.65c1.33,0.86,2.89,1.49,4,2.63c1.16,1.18,0.53,2.3,1.14,3.74c0.51,1.2,1.74,2.07,2.76,2.63
		c1.83,1.01,5.06,0.85,6.81-0.2c1-0.6,2.33-1.25,3.32-1.93c1.08-0.74,1.31-1.81,2.42-2.62c1.12-0.81,2.51-2.06,3.96-1.89
		L361.65,273.27z"/>
	<path class="st0" d="M209.71,181.99c-2.75,0-4.93,1.25-7.72,1.38c-3.21,0.15-5.78-1.36-8.89-1.66c-3.05-0.29-5.63-0.64-7.79,1.72
		c-2.02,2.2-3.81,4.17-6.29,5.9c-1.41,0.98-1.08,1.78-2.01,2.88c-0.66,0.78-1.91,0.79-2.87,0.96c-1.12,0.19-2.33,0.61-3.44,0.97
		c-1.09,0.36-2.74,0.37-3.67,0.96c0.74,0.32,1.85,0.14,2.7,0.14c1.51,0,2.33,0.44,3.76,0.79c2.34,0.58,3.48,1.36,1.62,3.61
		c-1.11,1.34-1.66,2.85-0.42,4.14c0.58,0.61,1.54,1.08,2.18,1.41c0.6,0.3,1.38,0.47,2.02,0.8c0.6,0.31,0.56,0.88,1.44,0.85
		c0.07,0.22,0.07,0.7,0,0.92c-2.06,0.68-6.05-1.18-7.3,1.13c2.14,2.01,3.78,2.34,7.05,2.34c2.99,0,5.89-0.44,8.38-2.2
		c1.34-0.94,2.01-1.11,3.73-1.11c0.85,0,2.09,0.24,2.92,0c0.8-0.23,0.88-0.53,1.48-1.11c1.46-1.38,2.13-1.51,4.13-1.68
		c1.62-0.14,2.09-0.56,3.19-1.62c1.87-1.81,2.59-2.91,1.67-5.65c-0.27-0.8-0.62-1.64-0.69-2.62c-0.1-1.43,0.68-2.14,0.97-3.32
		c0.26-1.06-0.07-2.22-0.45-3.15c-0.28-0.69-1.04-1.61-1.06-2.37c-0.07-2.2,2.47-1.86,3.72-2.62L209.71,181.99z"/>
	<path class="st0" d="M293.54,158.96c-2.78-0.07-4.88,2.54-7.53,0.73c-1.32-0.9-1.81-1-3.5-1c-1.7,0-2.38-0.01-3.72,0.93
		c-2.32,1.62-5.07,2.51-7.17,4.02c-1.66,1.19-2.31,2.04-4.42,2.08c-1.45,0.03-2.83-0.01-4.24,0.25c-3.15,0.58-5.74,2.84-8.06,4.96
		c-1.52,1.38-4.57,5.86-3.68,8.01c2.02,0.49,2.83,1.05,5.09,0.13c0.4-0.16,1.69-0.89,2.21-0.5c1.07,0.81-0.16,2.18-0.81,2.64
		c-1.72,1.19-3.51,2.32-5.23,3.4c-1.81,1.13-3.21,1.37-4,3.3c1.56,0.03,3.38-0.08,4.97-0.37c1.4-0.25,2.82-1.06,4.33-0.85
		c0.17,0.73,1.24,0.96,1.86,1.53c0.82,0.75,1.16,1.5,2.05,2.15c1.1,0.8,2.3,1.3,3.59,1.65c3.12,0.86,6.63,0.59,9.91,0.59
		c2.85,0,5.77,0.11,8.57-0.14c1.23-0.11,2.86-0.18,3.97-0.71c1.09-0.53,3.08-1.79,3.64-2.88c-0.75-0.78-4.18-0.23-5.37-0.28
		c-0.86-1.95,1.39-2.47,2.73-2.74c1.68-0.34,2.51-0.88,3.87-1.93c2.14-1.65,2.69-4.22,4.38-6.22c0.83-0.99,1.86-1.31,2.92-1.99
		c1.22-0.78,2.5-1.89,3.59-2.86c1.98-1.75,2.85-5.84,1.38-8.22c-0.69-1.12-4.11-3.17-5.32-3.2c-1.73-0.05-4.65,1.28-6.13,2.2
		c-0.67,0.42-5.71,2.69-4.94,0.13c0.51-1.69,3.97-1.91,4.8-3.44L293.54,158.96z"/>
	<path class="st0" d="M335.56,201.1c0,0-2.87,6.19,1.81,15.11l-8.01-0.6l10.88,5.44c0,0-6.65-0.46-7.1,6.64
		c0.15,5.89-9.21,6.19-9.21,6.19l1.06,3.78l-6.34-2.87l3.78,4.68c-17.52,1.06-22.81-2.87-19.03-8.16c1.51-1.96,0.15-4.38-3.17-7.25
		l0.15-3.32c0,0,8.31,1.36,10.88,1.66c0,0-3.02-2.72-10.88-5.44c1.06-4.68,4.83-2.42,7.4-8.91c0,0,4.99,1.21,8.61,2.72
		c0,0-1.66-3.48-11.48-6.2c0,0,5.29-0.6,8.91-0.91c3.63-0.3,3.63-3.47,3.63-3.47c2.58-0.28,3.69-2.07,7.69-2.07
		C329.11,198.12,333.03,198.57,335.56,201.1z"/>
	<path class="st7" d="M567.93,442.69c0,0,3.78,22.85-20.33,48.75c0,0,41.91-6.66,64.04-54.15c0,0,2.34,6.84,1.44,21.95
		c0,0,11.51-3.06,29.86-29.14c0,0,1.08,8.27,7.2,15.29l16.01-13.49c0,0,1.98,4.86,2.7,14.57c0,0,5.21-2.16,14.21-8.64
		c0,0,0.18,9.36-16.73,41.56c23.57-12.24,46.77-38.86,46.77-50.19c0-5.4-5.58-10.44-12.24-10.44c-6.65,0-12.05,5.22-12.05,5.22
		s-3.78-4.5-10.25-4.5c-6.48,0-11.69,5.94-11.69,5.94s0.72-4.86-5.58-4.86C654.99,420.57,626.93,439.28,567.93,442.69z"/>
	<path class="st7" d="M603.18,522.38c0,0-12.77,22.49-32.56,44.07c0,0-2.88-7.38-6.3-8.99c0,0-11.16,8.64-14.39,12.95
		c0,0-4.31-7.92-7.73-10.98c0,0-8.09,6.48-10.25,9.53c0,0,10.25-17.63,0.36-48.03c0,0-12.77,39.75-46.77,62.42
		c-1.62,1.44-2.16,9.53,10.61,9.53c19.97,0,31.66-15.65,31.66-15.65s20.33-3.42,40.3-0.9c0,0,6.83,6.48,11.87,6.48
		S604.8,561.78,603.18,522.38z"/>
	<path class="st7" d="M146.15,173.33h-9.53v-4.14c0,0,9.54,0.36-86.35,2.7c0,0,37.96,11.33,58.64,22.67c0,0,5.04-2.88,8.46-3.06
		c3.42-0.18,3.78-1.62,7.92-1.8c4.14-0.18,3.78-2.7,3.78-2.7h6.3c0,0-1.44-3.6-6.66-5.04C128.7,181.96,136.97,176.57,146.15,173.33z
		"/>
	<path class="st7" d="M25.44,187.9c0,0,10.26,3.96,15.47,11.15c0.18,17.81,14.93,32.92,34.18,48.75H62.68c0,0,11.16,7.38,31.3,13.31
		c0,0-3.06,2.34-13.49,3.42c0,0,16.55,10.97,55.23,10.97c32.38,0,46.41-9.89,46.41-9.89l-26.26-3.6c0,0,46.23-4.5,69.98-23.92
		c0,0-14.57,9.53-64.4,9.53s-71.78-14.39-71.78-14.39s29.14,5.39,47.67,1.8C95.42,205.89,75.45,187.18,25.44,187.9z"/>
	<path class="st7" d="M681.23,402.9c0,0,24.69,0,41.37,18.51c0,0,27.86-5.01,41.2-22.69c-13.01,0.67-16.68-1.83-16.68-4.5
		c0-2.67,3-3.17,10.85-3.17c7.84,0,10.34,0,10.34,0s5.84-2,6.84-20.18c-10.17,9.34-22.35,12.01-24.36,7.67
		c-2.5-5.34,18.02-7.67,24.02-17.01c0,0,1-4.5-3-14.18c-7.5,12.68-12.01,14.68-15.35,12.51c-5.17-3.34,9.84-9.01,12.01-18.35
		l-7.17-8.68C740.45,375.54,704.75,366.87,681.23,402.9z"/>
	<path class="st7" d="M184.4,391.78c0,0,2.88-3.24,6.65-5.76l-1.44,5.4h0.9c0,0,5.22-5.94,10.25-6.3c0,0-2.52,2.7,1.26,4.14
		c7.2,2.7,16.01,1.26,25.54,2.52c2.7,1.08,4.32,1.62,10.07-0.54c5.76-2.16,9.89-2.16,9.89-2.16s-8.28,3.42-9.89,6.12
		c0,0,5.58,3.6,5.58,9.72c0,6.12-2.16,10.61-8.27,14.39c-8.28,4.85-9.17,10.43-9.17,10.43l5.4-3.42c0,0-1.44,12.41-13.31,12.41
		c-6.84,0-8.64-3.78-10.97-3.78c-1.44,0-5.93,5.04-5.93,5.04s0.36-4.85,8.45-13.13c0,0-5.4,2.16-7.73,5.22
		c-11.51-6.84-24.47-7.56-24.47-17.99c0-4.5,3.6-10.43,3.6-10.43s-2.88,0.18-4.14,3.24l-0.54-5.58l-17.63,14.57
		c0,0,10.25,11.33,28.42,25.37c18.17,14.03,49.65,33.1,79.87,45.69c30.22,12.59,55.76,27.17,69.98,42.64
		c14.21,15.47,26.62,38.14,39.57,57.21c12.95,19.07,43.18,52.53,73.94,60.44l-6.3,7.73c0,0,22.85,3.96,52.71-0.53l-9.53,10.61
		c49.29-5.04,89.59-27.34,112.08-69.99c0,0-8.45-7.38-32.02-7.38c-34.72,0-66.56,22.31-97.32,22.31
		c-29.68,0-52.35-27.17-69.08-53.07c-16.73-25.9-46.05-84.73-46.05-127.73c0-69.79,49.29-75.91,49.29-75.91
		s-63.32-14.03-103.26-17.09c97.32,4.32,205.43,32.2,257.24,57.92c1.44,1.26,2.52,8.46-4.5,8.46c-4.68,0-19.25-9.89-56.13-22.31
		c8.99,17.63,30.76,48.57,72.67,48.57c39.4,0,55.23-25.91,106.68-27.34c1.44-29.68-12.78-36.34-45.51-52.53
		c-32.74-16.19-57.63-22.47-57.63-22.47l-1.34,0.16c0,0,15.85,8.01,31.86,20.86l-3.84,2.17c0,0,9.17,5.84,22.52,22.19
		c0,0-21.08,8.7-34.39,7.86c0,0-0.36,3.96-5.04,3.96c-3.24,0-15.47-6.48-45.16-19.25c-29.68-12.77-109.01-40.66-215.69-54.87
		c0,0,17.17,5.25,23.68,8.25c0,0-8.84-2.5-16.35-1.33l7.67,4.84c0,0-51.21-2.17-81.74,4.34c0,0,19.85,5.67,27.69,15.85
		c0,0-12.39,0.18-19.96,1.34c0,0,1.98,3.96,1.98,5.76c0,1.8-6.48,6.3-6.48,6.3h4.86v12.23c0,0-6.84,9.71-25.91,4.86l0.72-3.06
		l-11.33,1.08c0,0,7.92-3.78,11.69-6.83c0,0-11.63,4.86-14.13-1.32c0,0-38.53,9.51-57.05,24.69
		C167.9,386.55,178.71,388.34,184.4,391.78"/>
	<path class="st7" d="M440.5,221.27c0,0-34.29,5.74-51.21,33.38l2.72-0.76c0,0,14.8-16.62,54.84-16.62
		c46.53,0,76.43,26.28,103.02,29.91c0,0-17.83-4.23-25.38-19.18c0,0-1.36,4.23,0.3,7.4c-19.18-10.73-30.36-14.95-31.72-31.42
		c0,0-4.23,3.33-4.53,11.18l-3.17-2.42c0,0-0.75,3.17,4.38,5.89c1.81,0.91-0.91,3.32-0.91,3.32s-5.74-0.91-10.87-3.78
		c0,0,3.92-0.3,2.57-1.81c-1.36-1.51-5.44-5.29-6.34-7.25c-2.42-3.02,4.08-1.51,4.08-1.51s-1.97-3.17-7.86-4.23
		c0,0,1.36-1.96,4.08-1.51c2.72,0.45-0.6-2.87,3.02-3.93c3.62-1.06,9.07-4.69,11.93-9.97c2.42-3.77,6.8,1.06,6.8,1.06
		s-1.21-6.34-10.88-6.34c-11.18,0-19.49,6.34-19.49,6.34l6.74,3.43c0,0-2.87,0.45-6.5-1.06c-3.62-1.51-6.04,3.02-6.04,7.85
		c0,6.65,7.7,8.16,7.7,11.78c0,3.62-0.6,6.65-3.47,3.02l0.3,3.32c-7.4-5.44-13.9-5.14-18.43-12.99l5.29,2.12
		c0,0-0.45-1.96-6.34-4.99c0,0-0.91-2.42,0.75-2.42l0.15-6.65h-13.45v1.36L440.5,221.27z"/>
	<path class="st2" d="M525.65,270.01v-1.21l-20.4-6.34l-0.45,1.81c0,0,1.21,0.91,1.21,3.48c0,2.57-1.97,6.5-7.56,6.5
		c-5.59,0-7.85-4.68-7.4-7.86c0,0,5.59,0.15,5.59-3.47c0-5.29-22.06-10.88-50.91-9.82c24.93,19.18,39.43,26.74,50,26.74
		C508.28,279.83,525.65,270.01,525.65,270.01z"/>
	<path class="st7" d="M491.06,266.38c0,0,5.59,0.15,5.59-3.47c0-3.38-9.03-6.89-23.1-8.7C473.54,254.21,482.75,260.04,491.06,266.38
		z"/>
	<path class="st7" d="M423.68,250.97c0,0-3.33-0.6-13.45,0.3c0,0,2.42,6.35,9.37,13.29c0,0-6.35-0.46-9.22-1.06
		c19.49,19.34,37.31,26.13,65.56,25.68l-4.23,2.27c0,0,17.37,0.45,32.93,6.95C462.35,270.61,464.92,282.39,423.68,250.97z"/>
	<path class="st0" d="M329.75,391.07c0,0-4.86,0.18-9.89,2.16c0,0-6.48-13.31-15.65-13.31c-9.17,0-23.75,9.17-23.75,9.17l0.72-3.42
		c-15.83,0-19.97,0.9-19.97,6.84c0,5.94,6.3,6.66,13.31,13.13c0,0,2.7-2.88,6.66-3.06l-8.64,8.09c0,0,5.4-3.77,11.51,0.36
		c6.12,4.14,20.33-0.54,25.9-3.78c0,0-1.8,3.96-5.4,5.94c0,0,12.95,3.96,18.71-3.24c3.42-5.4-1.98-12.95-1.98-12.95
		S325.43,392.69,329.75,391.07z"/>
	<path class="st0" d="M299.71,435.14c-13.13,3.96-27.52,0.54-42.99,0.18l2.16-2.88c0,0-4.86,0.72-8.82,2.88
		c-3.96,2.16-12.95,2.88-12.95,10.61c0,6.48,5.4,10.44,5.4,10.44l5.04-5.58c0,0,0.72,3.6-1.26,5.94
		c18.17,11.7,38.5,4.86,46.59,13.13l9.53-6.48c0,0,0.36,1.98-4.5,9.71c5.94,5.76,10.07,7.56,15.83,7.56c5.76,0,9.36-1.08,10.07-8.99
		l2.34-2.7l-3.6,0.18c0,0,0.9-3.42-1.26-7.19c0,0,1.44-1.62,5.76,1.44c0,0,1.62,0,3.6-2.34c1.98-2.34,1.98-2.34,1.98-2.34
		l-2.16,0.18c-1.44-10.98-10.07-16.37-16.19-14.03c0,0-1.08-7.38-9.17-7.38c-3.06,0-8.99,3.6-13.49,3.6L299.71,435.14z"/>
</g>
</svg>
