<?xml version="1.0" encoding="utf-8"?>
<!-- Generator: Adobe Illustrator 27.9.0, SVG Export Plug-In . SVG Version: 6.00 Build 0)  -->
<svg version="1.1" id="Camada_1" xmlns="http://www.w3.org/2000/svg" xmlns:xlink="http://www.w3.org/1999/xlink" x="0px" y="0px"
	 viewBox="0 0 700 700" style="enable-background:new 0 0 700 700;" xml:space="preserve">
<style type="text/css">
	.st0{clip-path:url(#SVGID_00000178205164150351572040000004190597902073591470_);fill:#003594;}
	
		.st1{clip-path:url(#SVGID_00000117666194358701849580000001239516005366997153_);fill:url(#SVGID_00000103240744203414797540000009066277786295910536_);}
	.st2{clip-path:url(#SVGID_00000019661509947651512180000013341419320527228817_);fill:#D7D2CB;}
	.st3{clip-path:url(#SVGID_00000019661509947651512180000013341419320527228817_);fill:#FFD100;}
	.st4{clip-path:url(#SVGID_00000019661509947651512180000013341419320527228817_);fill:#FFA300;}
	.st5{clip-path:url(#SVGID_00000019661509947651512180000013341419320527228817_);fill:#FF8200;}
	
		.st6{clip-path:url(#SVGID_00000054223474630637028530000006305825818355876753_);fill:url(#SVGID_00000038384975688827194370000004762379303540106914_);}
	.st7{clip-path:url(#SVGID_00000167397512395364086590000001834892804697161357_);fill:#FFFFFF;}
</style>
<g>
	<defs>
		<rect id="SVGID_1_" width="700" height="700"/>
	</defs>
	<clipPath id="SVGID_00000168097723476766118720000001748276880458257325_">
		<use xlink:href="#SVGID_1_"  style="overflow:visible;"/>
	</clipPath>
	<path style="clip-path:url(#SVGID_00000168097723476766118720000001748276880458257325_);fill:#003594;" d="M606.33,189.31
		c-92.82-92.85-237.44-109.4-348.83-39.91c-30.71,20.37-57.31,46.35-78.4,76.57c-0.07,0.09-0.15,0.17-0.23,0.26H120.7L11,474.44
		h142.31c20.58,38.36,51.76,70,89.83,91.12c72.61,39.96,161.34,36.62,230.74-8.68c8.03-5.26,11.68-15.15,9-24.36
		c-2.69-9.22-11.08-15.59-20.68-15.71c-2.17,0-4.33,0.32-6.41,0.95c-14.18,4.26-28.92,6.42-43.73,6.4
		c-42.62,0.1-83.25-17.99-111.7-49.72h132.9l22.82-31.8l88.59,0.01c0,0-2.7,6.85-4.17,10.21l-9.51,21.59h144.98l3.09-11.35
		C705.69,365.4,677.93,260.92,606.33,189.31 M664.21,459.06H554.58c4.54-10.3,8.3-20.93,11.23-31.81H448.08l-22.7,31.81H319.84
		l157.78-221.03l-0.02-0.01c-20.8-8.5-43.07-12.81-65.53-12.68c-2.87,0-5.72,0.07-8.54,0.22c-85.6,4.31-153.86,73.03-153.86,156.88
		c0,5.45,0.29,10.89,0.87,16.31h93.21l-27.76,39.05c-8.76,11.78-20.37,21.26-38.06,21.26h-7.6c27.83,47.99,80.94,80.48,141.75,80.48
		c16.31,0.02,32.54-2.36,48.16-7.05c0.64-0.2,1.3-0.3,1.96-0.3c2.8,0.12,5.2,2.02,5.94,4.72c0.74,2.7-0.34,5.57-2.68,7.1
		c-50.43,32.93-112.63,42.48-170.62,26.21c-57.99-16.27-106.14-56.78-132.09-111.14H34.62l96.1-217.42h55.52
		c38.47-49.99,97.48-79.9,160.54-81.38c1.51-0.03,3.04-0.05,4.55-0.05c88.87,0,163.4,53.18,193.58,131.4l-54.64,76.55h83.19
		c-0.34-74.22-37.53-143.42-99.24-184.66c-61.71-41.24-139.88-49.12-208.58-21.04c93.16-58.07,212.37-53.16,300.44,12.38
		C654.14,240.37,693.08,353.15,664.21,459.06 M354.97,383.36h-89.9c0-0.3-0.02-0.61-0.02-0.92c0-75.42,61.16-137.58,139.26-141.52
		c2.6-0.13,5.21-0.2,7.76-0.2c13.82-0.02,27.58,1.77,40.94,5.3L354.97,383.36z M549.9,311.33c3.91,13.52,6.44,27.4,7.53,41.43
		h-37.09L549.9,311.33z"/>
</g>
<g>
	<defs>
		<path id="SVGID_00000121958463831303533380000012106586437920757178_" d="M265.64,162.46c84.25-34.44,180.96-14.31,244.47,50.89
			c63.51,65.19,81.1,162.4,44.47,245.72h109.64c28.9-105.92-10.04-218.72-98.11-284.26c-47.1-35.05-103.13-52.76-159.3-52.76
			C357.94,122.03,308.98,135.43,265.64,162.46"/>
	</defs>
	<clipPath id="SVGID_00000057142789260956965060000015320218891117550478_">
		<use xlink:href="#SVGID_00000121958463831303533380000012106586437920757178_"  style="overflow:visible;"/>
	</clipPath>
	
		<linearGradient id="SVGID_00000131342987146310844040000004754383447639867064_" gradientUnits="userSpaceOnUse" x1="-1.014164e-05" y1="699.9761" x2="1" y2="699.9761" gradientTransform="matrix(0 337.0232 -407.9948 0 286065.9688 122.0384)">
		<stop  offset="0" style="stop-color:#FFD100"/>
		<stop  offset="0.217" style="stop-color:#FFD100"/>
		<stop  offset="0.296" style="stop-color:#FFD724"/>
		<stop  offset="0.474" style="stop-color:#FFE87F"/>
		<stop  offset="0.707" style="stop-color:#FFFFFF"/>
		<stop  offset="1" style="stop-color:#FFFFFF"/>
	</linearGradient>
	
		<rect x="265.64" y="122.03" style="clip-path:url(#SVGID_00000057142789260956965060000015320218891117550478_);fill:url(#SVGID_00000131342987146310844040000004754383447639867064_);" width="427.47" height="337.03"/>
</g>
<g>
	<defs>
		<rect id="SVGID_00000039114345265724125620000003846642754220126389_" width="700" height="700"/>
	</defs>
	<clipPath id="SVGID_00000163769294591760957140000012014893631034152320_">
		<use xlink:href="#SVGID_00000039114345265724125620000003846642754220126389_"  style="overflow:visible;"/>
	</clipPath>
	<path style="clip-path:url(#SVGID_00000163769294591760957140000012014893631034152320_);fill:#D7D2CB;" d="M544.89,291.63
		l-21.1,29.57c-20.23-20.8-48.03-32.52-77.05-32.49c-1.81,0-3.61,0.05-5.39,0.14l36.27-50.82
		C504.67,249.16,528,267.75,544.89,291.63 M565.8,427.26c5.1-18.97,7.68-38.52,7.66-58.16v-0.95h-22.81
		c5.26,19.39,5,39.86-0.76,59.11L565.8,427.26z"/>
	<path style="clip-path:url(#SVGID_00000163769294591760957140000012014893631034152320_);fill:#FFD100;" d="M465.47,544.01
		c-64.64,42.18-147.27,45.29-214.89,8.09c-16.69-21.04-29.01-45.19-36.24-71.05c23.35-1.09,57.17,0.93,82.17,11.68
		c30.89,30.15,72.4,46.97,115.57,46.83c16.31,0.02,32.54-2.36,48.17-7.05c0.64-0.2,1.3-0.3,1.96-0.3c2.79,0.12,5.2,2.03,5.94,4.72
		C468.89,539.6,467.8,542.47,465.47,544.01 M250.53,398.75c-0.58-5.42-0.87-10.86-0.87-16.31c0-83.86,68.27-152.57,153.87-156.88
		c-99.24,4.04-180.51,78-194.38,173.19L250.53,398.75z"/>
	<path style="clip-path:url(#SVGID_00000163769294591760957140000012014893631034152320_);fill:#FFA300;" d="M270.32,459.06h-60.78
		c1.18,7.41,2.78,14.75,4.79,21.98c23.35-1.09,57.17,0.93,82.17,11.68C286.3,482.73,277.49,471.41,270.32,459.06"/>
	<path style="clip-path:url(#SVGID_00000163769294591760957140000012014893631034152320_);fill:#FF8200;" d="M162.76,459.06
		c7.58,15.84,17.12,30.67,28.41,44.12c5.89-9.08,13.82-16.66,23.16-22.14c-2.01-7.23-3.61-14.57-4.79-21.98H162.76z"/>
</g>
<g>
	<defs>
		<path id="SVGID_00000137815486912027407370000000797672895043335561_" d="M214.33,481.04c-9.33,5.48-17.26,13.06-23.16,22.14
			c16.61,19.82,36.75,36.41,59.4,48.91C233.88,531.06,221.56,506.9,214.33,481.04L214.33,481.04z M346.78,160.25
			c-63.06,1.48-122.07,31.39-160.54,81.38h36.01l-69.6,157.11h56.51c13.87-95.19,95.14-169.16,194.38-173.19
			c2.83-0.15,5.68-0.22,8.54-0.22c22.46-0.12,44.73,4.19,65.53,12.68c27.06,11.13,50.4,29.73,67.29,53.62l0.02-0.04
			c-30.18-78.22-104.72-131.4-193.59-131.4C349.82,160.21,348.29,160.22,346.78,160.25"/>
	</defs>
	<clipPath id="SVGID_00000090975815190762147260000015240549340986497947_">
		<use xlink:href="#SVGID_00000137815486912027407370000000797672895043335561_"  style="overflow:visible;"/>
	</clipPath>
	
		<linearGradient id="SVGID_00000003102322404288654960000003535952096284313520_" gradientUnits="userSpaceOnUse" x1="-4.667909e-07" y1="700" x2="1" y2="700" gradientTransform="matrix(392.2644 0 0 391.887 152.6492 -273964.7188)">
		<stop  offset="0" style="stop-color:#FFA300"/>
		<stop  offset="0.134" style="stop-color:#FFA800"/>
		<stop  offset="0.289" style="stop-color:#FFB600"/>
		<stop  offset="0.453" style="stop-color:#FFCD00"/>
		<stop  offset="0.478" style="stop-color:#FFD100"/>
		<stop  offset="1" style="stop-color:#FFD100"/>
	</linearGradient>
	
		<rect x="152.65" y="160.21" style="clip-path:url(#SVGID_00000090975815190762147260000015240549340986497947_);fill:url(#SVGID_00000003102322404288654960000003535952096284313520_);" width="392.27" height="391.89"/>
</g>
<g>
	<defs>
		<rect id="SVGID_00000080189209919657073550000018169916387750739856_" width="700" height="700"/>
	</defs>
	<clipPath id="SVGID_00000065758423667505516120000001177001285454191544_">
		<use xlink:href="#SVGID_00000080189209919657073550000018169916387750739856_"  style="overflow:visible;"/>
	</clipPath>
	<path style="clip-path:url(#SVGID_00000065758423667505516120000001177001285454191544_);fill:#FFFFFF;" d="M554.41,396.38
		c0,10.46-1.52,20.86-4.51,30.88H448.08l-22.7,31.81H319.84l121.51-170.21c1.79-0.09,3.58-0.13,5.39-0.14
		c29.02-0.03,56.81,11.69,77.05,32.49l-33.51,46.95h60.38C553.15,377.35,554.41,386.85,554.41,396.38 M130.71,241.64l-96.1,217.43
		h243.3c17.7,0,29.31-9.48,38.07-21.26l27.75-39.05H152.65l69.6-157.12H130.71z"/>
</g>
</svg>
