<?xml version="1.0" encoding="utf-8"?>
<!-- Generator: Adobe Illustrator 27.9.0, SVG Export Plug-In . SVG Version: 6.00 Build 0)  -->
<svg version="1.1" id="Layer_1" xmlns="http://www.w3.org/2000/svg" xmlns:xlink="http://www.w3.org/1999/xlink" x="0px" y="0px"
	 viewBox="0 0 800 800" style="enable-background:new 0 0 800 800;" xml:space="preserve">
<style type="text/css">
	.st0{fill:#005778;}
	.st1{fill:#008C96;}
	.st2{fill:#008E97;}
	.st3{fill:#FC4C02;}
</style>
<g id="g3012" transform="matrix(1.25,0,0,-1.25,-74.30375,728.5695)">
	<g id="g3038" transform="translate(222.6787,198.9736)">
		<path id="path3040" class="st0" d="M-24.2-25.32c-3.54-2.93-7.03-3.9-11.48-2.04c-4.9,1.88,7.87-2.81,13.54-1.81
			c2.57,3.17,2.8,4.9,4.05,7.1c2.57,4.53,4.81,14.24,2.65,19.08C-18.76-10.37-18.09-20.28-24.2-25.32"/>
	</g>
	<g id="g3042" transform="translate(171.6338,210.709)">
		<path id="path3044" class="st1" d="M-10.32-29.84c8.84-3.5,10.12-4.08,18.9-7.71c0.5-0.21,10.17-3.36,14.7-2.95
			c-0.2,0.93,0.96-0.73,4.34,3.44c5.33,6.29,6.06,13.87,8.13,21.71c-1,5.39-5.51-6.17-12.15-6.33c-9.1-1.59-11.73-0.33-18.73,0.96
			c-12.17,1.28-18.44,1.41-21.93,0.01c-2.62-0.52-4.75-4.01-4.75-4.01"/>
	</g>
	<g id="g3046" transform="translate(670.9912,280.9541)">
		<path id="path3048" class="st2" d="M-123.11-39.98c2.04,5.33,2.27,6.94,4.09,12.35c-0.3,0.22,0.94,4.32,0.64,4.54
			c-2.51-1.89-7.78-7.53-10.17-9.57c-9.76-8.35-19.81-16.26-30.09-23.81c-0.26-4.6,0.05-10.93-0.77-15.51
			c-1.93-10.71-4.3-21.34-6.36-32.03c-0.49-3.41,0.63-3.38,0.66-3.41c5.21,3.54,7.78,6.35,8.61,7.05
			c15.65,14.96,21.89,29.35,30.59,52.32"/>
	</g>
	<g id="g3050" transform="translate(852.3955,464.333)">
		<path id="path3052" class="st0" d="M-169.59-85.56c-6.34-1.45-9.69-2.77-15.98-4.44c-12.93-3.46-25.01-8.99-36.66-15.48
			c-29.38-16.38-54.61-38.33-80.06-59.95c-10.98-9.33-21.82-18.81-32.76-28.17c-16.21-13.88-21.9-19.03-38.45-33.5
			c-3.82-3.69-13.32-10.68-18.44-14.16c3.63,7.31,7.78,12.79,8.72,14.39c7.09,11.88,14.6,23.52,21.52,35.49
			c9.6,16.59,20.41,32.08,36.09,43.62c5.47,4.02,16.88,12.75,51.24,32.48c-1.42,0-33.28-16.23-34.46-16.71
			c-20.51-8.41-41.84-26.36-53.42-45.4c-11.82-19.45-22.99-39.33-35.56-58.29c-19.75-29.8-43.01-56.59-72.38-77.51
			c-2.05-1.46-4.62-2.18-7.09-2.89c0.03,0.06,0.07,0.12,0.1,0.18c5.89,10.11,11.01,20.43,15.27,31.07l1.78,2.21
			c-2.36-1.03-4.6-2.29-5.48-2.69c-21.84-10.06-43.8-19.75-67.02-26.38c-17.68-5.05-35.6-8.66-53.92-9.65
			c-18.32-1-36.75-0.44-54.6,3.92c-2.85,0.7-5.69,1.43-8.51,2.23c-0.3,0.06-0.59,0.12-0.88,0.2c-27.86,7.47-30.37,12.62-41.72,20.85
			c-2.83,3-6.65,8.76-11.41,11.7c3.26-5.44,8.22-13.36,11.48-18.81c-28.6-7.6-73.2,18.95-88.16,53.02c0.17-5.99,1.3-8,2.27-10.85
			c5.1-11.44,12.64-21.08,22.45-28.93c10.66-8.52,15.19-11.58,35.93-17.99c7.81-1.68,9.57-2.22,24.6-2.54
			c2.19-0.29,9.79,1.02,11.98,0.84c2.74-1.22-0.01-0.03,5.07-2.55c11.09-5.34,29.47-11.74,44.97-15.29
			c10.48-2.4,21.01-4.66,31.61-6.51c5.1-0.89,10.38-0.87,15.59-0.93c18.68-0.22,37.35-0.34,55.86,2.97
			c17.46,3.13,34.59,7.4,51.28,13.84c-0.59-3.15,5.43-3.29,8.76-1.88c2,0.85,4.05,1.7,5.85,2.9c5.23,3.5,10.09,7.61,15.55,10.68
			c8.81,4.97,18.04,9.19,26.98,13.94c28.37,15.1,55.74,31.72,81.55,50.66c10.29,7.55,20.34,15.46,30.09,23.81
			c2.28,1.28,8.05,6.87,9.06,7.67c-1.82-5.41-4.07-13.54-6.11-18.87c-11.65-36.56-25.36-49.62-39.53-63.56
			c1.26-0.41,1.8-0.2,3.49,0.63c1.09,0.39,21.93,20.21,29.19,33.46c9.57,17.48,16.85,38.36,22.9,57.36c0,0,3.05,3.35,7.57,7.49
			c13.19,12.84,25.59,25.7,39.1,38.21c6.98,6.47,13.84,13.18,21.46,18.83c15.25,11.31,31.07,21.86,46.49,32.95
			c5.74,4.13,12.81,7.35,13.92,16.34c-0.55,0.97-1.2,1.36-2.45,1.08"/>
	</g>
	<g id="g3054" transform="translate(63.418,250.9678)">
	</g>
	<g id="g3058" transform="translate(263.5283,166.2139)">
		<path id="path3060" class="st0" d="M4.52-13.7c16.33,3.5,32.38,7.96,47.85,14.35c29.04,11.99,56.13,27.59,82.4,44.67
			c0.97,0.63,3.4,2.24,3.62,3.3c1.09,5.14,1.84,8.62,1.84,13.79c1.47,0.58,0.92,4.1,0.99,4.67c-1-0.57-3.05-2.86-4-3.46
			c-3.64-2.79-7.08-5.4-10.45-8.07C97.88,32.68,67.43,12.17,32.68-0.58C9.28-9.17-15.1-13.96-40.19-15.5
			c-5.91-0.16-12.15,0.45-17.47-0.57C-41.23-17.89-10.52-16.81,4.52-13.7z"/>
	</g>
	<g id="g3062" transform="translate(421.5654,360.6953)">
		<path id="path3064" class="st0" d="M-66.22-63c7.96-0.41,14.34,0.8,22.94,0.2c19.04-1.33,22.9,4.67,31.6,12.32
			c-16.22-4.1-16.74-3.8-28.23-4.17c-18.74-0.51-26.26-0.96-37.69-3.21c-11.75-2.39-18.75-5.64-22.94-7.76
			c-3.65-2.54-6.74-2.98-12.93-11.87c6.79,0,36.17,14.32,42.97,14.6"/>
	</g>
	<g id="g3066" transform="translate(715.7812,445.8604)">
		<path id="path3068" class="st0" d="M-135.73-81.16c5.82,1.88,11.7,3.58,17.54,5.39c4.3,1.33,13.46,5.23,17.61,7.02
			c-2.79,0.37-12.94-0.47-15.34-0.57c-6.56-0.27-9.4-0.28-15.96-0.57c-8.77-0.38-17.83-2.69-25.92-11.97
			c6.19,3.6,16.6,5.19,21.2,5.25S-132.75-77.78-135.73-81.16"/>
	</g>
	<g id="g3070" transform="translate(691.4873,448.373)">
		<path id="path3072" class="st2" d="M-126.66-79.87c0,0,7.89,4.56,18,6.23c9.91,1.63,19.86-0.31,30.06,2.22
			c-4.16-1.8-6.48-3.21-15.28-6.87c-5.85-1.81-11.73-3.51-17.54-5.39c-10.13-2.99-12.86-3.5-22.82-9.21
			c-2.72-1.43-5.39-3.71-8.71-6.42c3.31,6.22,4.47,10.3,9.31,14.32 M-541.04-269.12c15.63-18.15,37.37-30.05,60.92-29.25
			c3.99,0.11,17.7,0.4,21.67,0.64c25.08,1.54,39.76,6.4,63.17,14.99c34.75,12.76,65.2,33.26,94.08,56.14
			c3.37,2.67,6.81,5.28,10.45,8.07c0.98,0.75,1.96,1.5,2.98,2.28c-0.02-0.18-0.04-0.35-0.06-0.53c-0.06-0.58-0.14-1.15-0.21-1.72
			c-2.1-17.77-6.56-34.43-12.95-50.38c-4.26-10.64-11.01-21.5-16.9-31.61c-0.5-0.83,0.4-1.13,0.36-1.19
			c2.47,0.71,6.21,2.98,8.25,4.44c29.37,20.92,52.62,47.71,72.38,77.51c12.57,18.96,23.73,38.84,35.56,58.29
			c11.57,19.04,26.21,28.87,48.37,41.23c36.74,21.42,38.18,19.26,54.11,27.73c16.76,8.89,34.17,16.24,52.53,21.42
			c12.67,3.58,27.51,8.95,40.78,9.46c2.84,0.19,2.89-0.01,4.51-0.69c-0.86,9.09-15.6,11.19-26.29,8.65
			c-9.19-2.48-18.24-5.52-27.45-7.89c-3.5-0.9-7.37-1.2-10.95-0.75c-3.27,0.41-6.51,1.05-9.75,1.73
			c-42.86,12.51-85.29-2.77-85.29-2.77l0.02,0c-9.23-2.63-18.22-6.05-27.09-9.83c-15.01-6.39-28.93-14.76-42.56-23.66
			c-17.98-11.73-35.07-24.72-50.3-39.75c-3.99-3.56-18.93-12.51-21.29-12.49c-8.74,0.07-27.38-0.17-36.11-0.53
			c-6.8-0.28-11.6-0.22-21.35-2.64c-11.09-2.25-23.16-8.98-25.95-16.72c-0.16-3.17,3.46-2.61,3.8-2.62
			c8.28-0.26,14.04,1.28,22.32,1.32c6.09,0.03,11.81-1.26,16.95-4.24c8.61-4.99,9.92-14.94,2.97-21.84
			c-12.51-12.44-25.05-24.85-37.8-37.06c-12.34-11.82-25.58-22.54-40.12-31.61c-14.92-9.31-31.11-15.62-48.41-17.87
			c-10.93-1.42-22.32-1.28-33.27,0.07c-12.7,1.57-24.68,6.66-35.15,14.14c-16.24,11.6-34.57,17.49-53.87,20.56
			c-7.46,1.18-13.96,3.58-19.92,7.96c-1.65,1.21-7.2,5.94-9.62,8c-2.79,2.59-1.78-0.61-1.54-1.7
			c14.96-34.07,63.94-61.07,92.54-53.48"/>
	</g>
	<g id="g3074" transform="translate(745.6377,291.9717)">
		<path id="path3076" class="st3" d="M-142.48-46.36c6.19,3.74,12.51,7.29,18.96,10.58c4.57,2.33,12.85,5.45,18.1,7.72
			c-6.98-0.28-12.83,0.67-16.57,0.96c-6.92,0.59-16.87,3.21-23.35,7.32c-3.25,2.06-4.93,4.36-4.83,8.69
			c0.05,2.23,0.33,4.32,1.2,7.74c-4.15-4.27-8.58-8.3-12.88-12.88c0.08-1.56,0.24-7.65,0.5-12.01c0.61-10.18,0.38-20.4-1.27-30.67
			c-1.77-11.01-4.33-21.72-8.02-32.15c-9.6-27.09-27.05-48.67-48.64-67c-14.65-12.44-31.58-20.99-49.92-26.92
			c-14.9-4.82-30.25-6.36-45.69-7.51c-3.26-0.24-10.17,0.06-13.49,0.3c-6.8,0.48-10.19,0.91-16.83,2.18
			c-20.62,3.95-39.9,11.46-57.36,23.38c-2.18,1.49-3.77,2.57-5.48,3.72c-4.83-0.82-12.02-1.7-16.84-2.27
			c-6.11-0.72-12.18-1.72-17.16-2.44c-3.93-8.62-7.39-16.21-10.85-23.79c3.43,1.41,6.17,3.39,8.95,5.32
			c8.69,6.03,17.38,12.17,28.58,12.27c3.28,0.03,6.99,0.58,9.05-3.08c3.7-6.58,3.4-13.74,2.86-20.93c-0.2-2.63-0.36-5.26-0.62-8.97
			c2.62,1.37,4.34,2.33,6.11,3.18c6.1,2.94,12.07,6.19,18.36,8.66c4.44,1.75,7.35,0.07,7.96-3.9c0.78-5.12,1.54-10.29,1.61-15.45
			c0.21-14.6,0.08-29.2,0.08-44.4c1.67,2.14,3.48,3.94,4.67,6.1c2.96,5.38,5.26,11.15,8.51,16.33c6.03,9.62,12.27,19.13,18.98,28.28
			c3.77,5.14,9.78,4.92,13.49-0.03c3.99-5.32,7.08-11.3,10.59-17.03c0.38,0.65,1.19,1.89,1.88,3.2c3.7,6.93,7.84,13.5,13.92,18.68
			c4.99,4.24,11.59,3.74,14.9-1.9c4.16-7.09,7.71-14.54,11.44-21.88c1.95-3.84,3.7-7.78,5.68-11.96c0.69,3.11,0.76,7.76,1.25,10.09
			c0.15,0.73,0.69,8.17,0.72,8.92c0.36,7.15,0.22,2.66,1.24,12.42c1.46,8.46,4.56,10.36,10.97,9.11c2.15-0.42,4.17-1.82,6.1-3.01
			c2.66-1.64,5.18-3.5,7.66-5.21c0.69,3.88,0.62,8.41,1.11,11.88c0.54,3.81,1.39,6.62,2.24,10.35c1.92,3.41,5.65,1.86,6.78,1.55
			c3.65-1.02,4.73-1.8,7.78-3.92c8.72-6.06,17.1-12.61,25.57-19.03c4.45-3.38,8.78-6.91,13.17-10.37
			c-7.87,16.4-8.81,17.6-10.28,20.27c-4.64,10.21-9.93,20.23-11.55,31.39c-1.01,6.95-2.23,12.2,8.65,13.48
			c5.93,0.7,12.05-0.08,18.07-0.41c3.6-0.2,7.17-0.81,10.07-1.16c-3.11,8.51-6.21,16.62-9.04,24.82c-2.04,5.9,2.07,10.06,8.97,9.76
			c4.59,0.22,7.22,0.01,10.77-0.39c2.44-0.28,4.87-0.71,7.31-1c3.75-0.44,7.56-0.57,11.26-1.27c12.72-1.16,17.07-2,27.22-3.34
			c-4.75,2.34-6.4,2.81-8.69,4.3c-14.17,6.9-25.5,15.39-36.83,26.33c-4.26,4.59-4.5,6.08-3.41,10.54
			c4.05,5.61,25.26,8.29,39.76,9.53c-3.92,2.67-6.89,4.6-9.77,6.66c-4.66,3.33-9.72,6.28-13.76,10.26
			C-146.4-52.61-146.39-48.72-142.48-46.36"/>
	</g>
	<g id="g3078" transform="translate(295.2734,297.0586)">
		<path id="path3080" class="st3" d="M-44.34-45.64c20.09-7.41,5.79-29.17-12.44-39.88c10.13-0.12,11.58-0.32,16.87-1.29
			c10.06-1.86,14.06-6.42,10.38-16.85c-1.04-2.96-2.37-5.81-3.91-9.52c10.94,5.68,16.46,9.69,21.95,14.2
			c-4.79,10.07-5.99,16.44-7.46,23.82c-1.86,9.32-3.17,18.78-4.04,28.24c-0.5,5.42-0.01,11.01,0.65,16.45
			c1.15,9.43,2.08,18.98,4.36,28.17c6.17,24.92,18.39,46.87,35.57,65.81c19.79,21.82,43.79,37.2,72.41,45.09
			c12.36,3.41,24.95,5.19,37.67,5.91c14.3,0.01,21.37-0.2,38.24-3.26c16.91-3.66,32.97-9.72,47.88-18.71
			c3.51-1.9,5.38-2.86,5.38-2.86c8.02,2.8,17.97,5.77,31.22,9.45c-1.59,3.81-1.15,4.56-0.44,8.18c-17.79-7.91-26.22-8.46-31.87-6.2
			c-7.75,3.08-5.85,15.27-3.78,23.53c0.88,3.52,3.54,11.09,6.09,16.79c-7.16-8.2-8.96-10.25-11.54-12.22
			c-8.87-7.09-15.19-13.41-21.9-10.4c-8.1,2.69-5.23,38.39-4.01,54.83c-6.86-16.64-10.65-24.01-15.58-33.85
			c-3.01-5.95-7.38-11.33-11.71-16.47c-3-3.56-5.53-3.04-8.93-0.14c-6.62,7.14-8.61,15.41-11.43,24.28
			c-2.59-7.85-3.6-12.43-6.15-16.96c-3.97-7.04-12-8.6-18.37-3.79c-7.67,5.8-12.48,13.81-16.68,22.22
			c-3.51,5.75-5.02,11.18-7.33,15.71c-1.12-8.31-1.92-17.46-3.47-25.69c-1.04-5.56-2.89-12.4-4.85-17.72
			c-0.9-2.46-3.34-4.32-6.2-3.31c-3.77,1.33-7.41,3.1-10.93,5.01c-2.26,1.24-6.05,6.19-8.13,7.77c1.48-7.87,4.32-22.94-1.44-27.38
			C38.34,93,4.75,125.49-3.54,131.95C2.33,117,20,89.33,14.29,75c-4.46-8.16-19.93-4.31-31.63,0.29C-10.39,66.64-3,55.53-6.25,49.36
			c-10.21-13.83-48.67,1.9-60.31,5.43c6.17-5.15,13.8-9.33,19.52-13.39c8.94-6.38,17.35-10.76,23.48-20.36
			c6.97-10.21-12.83-16.73-23.16-17.46c10.15-3.37,19.18-9.69,18.12-14.76c-2.18-14.44-26.79-17.4-55.68-21.06"/>
	</g>
</g>
</svg>
