<?xml version="1.0" encoding="utf-8"?>
<!-- Generator: Adobe Illustrator 27.9.0, SVG Export Plug-In . SVG Version: 6.00 Build 0)  -->
<svg version="1.1" id="Layer_1" xmlns="http://www.w3.org/2000/svg" xmlns:xlink="http://www.w3.org/1999/xlink" x="0px" y="0px"
	 viewBox="0 0 800 800" style="enable-background:new 0 0 800 800;" xml:space="preserve">
<style type="text/css">
	.st0{fill:#FFFFFF;}
	.st1{fill:#4F2683;}
	.st2{fill:#FAD29C;}
	.st3{fill:#FFC62F;}
</style>
<g>
	<path class="st0" d="M300.83,380.64c0,0.78-0.1,1.58,0.02,2.34c0.53,3.37-0.56,5.09-4.06,6.5c-11.26,4.54-22.44,9.36-33.35,14.69
		c-12.36,6.04-24.46,12.62-36.56,19.18c-17.19,9.32-33.65,19.91-49.17,31.72c-14.07,10.71-27.55,22.27-40.61,34.2
		c-15.42,14.08-29.77,29.3-42.84,45.64c-6.79,8.49-13.21,17.27-19.66,26.02c-2.32,3.15-3.95,6.71-3.79,10.8
		c0.17,4.28,2.65,6.87,6.87,6.25c3.23-0.48,6.5-1.66,9.39-3.21c4.07-2.19,7.72-5.16,11.71-7.53c17.07-10.18,35.68-16.68,54.69-22
		c13.68-3.83,27.5-7.3,41.42-10.1c12.6-2.54,25.36-4.66,38.16-5.68c14.58-1.16,29.09-2.63,43.56-4.69c2.77-0.39,5.97-0.1,8.55,0.93
		c11.61,4.64,23.27,8.45,36.06,6.44c2.66-0.42,4.44,0.67,5.48,3.58c4.47,12.48,11.55,23.37,21.08,32.58
		c1.99,1.92,2.68,3.83,2.62,6.52c-0.21,10.3,1.57,20.35,4.27,30.25c4.28,15.66,14.55,27.16,26.5,37.34c2.24,1.91,3.5,3.72,3.58,6.58
		c0.08,3.11,0.18,6.25,0.64,9.32c1.31,8.72,5.07,16.43,10.25,23.48c1.59,2.17,1.88,4,1.01,6.78c-2.05,6.56-2.58,13.32-0.12,20.06
		c0.46,1.26,0.44,3.07-0.13,4.26c-2.54,5.33-2.61,10.76-1.54,16.4c0.27,1.4,0.11,3.02-0.34,4.38c-1.45,4.43-2.96,8.74-1.22,13.51
		c0.41,1.12-0.32,2.65-0.48,4c-0.67,5.35-2,10.72-1.82,16.04c0.28,8.18,3.75,14.88,11.87,18.37c7.15,3.07,13.3,0.74,19.17-3.25
		c3.31-2.25,6.46-4.73,9.76-6.99c6.2-4.26,10.52-9.89,13.08-16.99c0.76-2.12,2.34-3.93,3.44-5.94c2.37-4.31,4.71-8.63,7.01-12.98
		c1.22-2.3,2.04-4.88,3.55-6.95c9.57-13.08,16.94-26.92,18.35-43.57c0.82-9.72,1.01-19.31-0.72-28.87
		c-0.43-2.36-0.16-4.15,0.88-6.11c5.59-10.45,9.33-21.44,9.97-33.39c0.05-0.99,0.85-2.25,1.69-2.83c3.58-2.45,7.18-4.91,10.99-6.97
		c7.73-4.19,15.61-8.09,23.4-12.18c2.56-1.34,3.36-0.44,3.25,2.14c-0.34,8.1-0.2,16.25-1.1,24.28c-0.69,6.08-2.21,12.18-4.21,17.99
		c-4.64,13.47-13.36,24.34-23.16,34.44c-3.03,3.13-6,6.34-8.75,9.71c-2.48,3.05-1.6,7.24,1.76,8.45c2.28,0.82,4.85,1.5,7.21,1.31
		c10.55-0.88,20.72-3.28,30.29-8.02c21.59-10.7,36.75-27.75,48.07-48.56c6.07-11.15,9.84-23.24,13.65-35.29
		c2.78-8.8,5.39-17.65,7.9-26.53c0.65-2.28,1.7-3.36,4.09-3.65c6.14-0.76,12.25-1.81,18.38-2.64c9.08-1.23,18.15-2.49,27.25-3.54
		c7.55-0.87,15.15-1.31,22.7-2.22c4.6-0.56,9.25-1.26,13.68-2.57c12.46-3.7,17.73-10.16,16.62-23.21
		c-0.39-4.63-1.32-9.21-1.75-13.84c-1.13-12.01-6.83-20.61-18.26-25.07c-1.92-0.75-2.42-1.69-1.67-3.88
		c1.05-3.07,1.8-6.35,1.96-9.57c0.13-2.75,1.45-3.85,3.65-4.7c4.31-1.67,8.58-3.47,12.9-5.13c1.43-0.55,2.4-1.01,2.07-2.96
		c-2.17-12.79-6.63-24.74-13.84-35.49c-2.31-3.44-3.13-6.31-1.73-10.2c2.09-5.81,1.26-11.34-3.14-15.9
		c-2.25-2.34-4.75-4.48-7.37-6.39c-2.41-1.76-3.85-3.63-3.86-6.83c-0.01-3.88-0.05-7.93-1.15-11.59c-1.06-3.5,0.24-5.26,2.64-7.04
		c5.79-4.29,9.39-10.09,11.84-16.77c4.2-11.48,4.62-23.33,3.66-35.32c-0.08-1.03-0.37-2.05-0.56-3.07
		c-1.08,0.45-2.37,0.65-3.21,1.38c-6,5.24-12.62,9.5-20.19,11.95c-6.24,2.02-5.18,3.5-6.91-3.8c-5.04-21.32-13.8-41.11-24.68-60
		c-7.06-12.26-15.17-23.79-24.07-34.83c-11.66-14.48-24.49-27.73-38.76-39.61c-15.6-12.99-33.02-23.01-51.38-31.51
		c-19.16-8.87-38.97-15.97-59.45-21.06c-14.04-3.49-28.23-6.45-42.44-9.21c-7.61-1.48-15.39-2.03-23.09-3.03
		c-2.4-0.31-3.48,0.2-3.6,3.11c-0.25,6.19-1.06,12.36-1.78,18.52c-0.37,3.14-1.23,3.64-3.83,1.83c-4.46-3.1-8.94-6.26-12.96-9.9
		c-11.77-10.66-16.27-25.05-19.76-39.87c-1.87-7.93-2.91-16.1-5.32-23.85c-7.51-24.17-21.7-44.06-40.54-60.74
		c-1.61-1.42-3.59-2.43-5.45-3.55c-5.36-3.23-15.02,1.62-15.44,8.59c-0.2,3.29,0.54,6.06,2.04,8.83
		c10.05,18.6,14.74,38.77,16.76,59.59c0.84,8.67,0.92,17.43,0.98,26.15c0.11,14.91,0.75,29.73,3.68,44.44
		c1.64,8.22,4,16.07,7.56,23.62c4.38,9.3,10.09,17.68,16.72,25.49c0.75,0.88,1.09,2.11,1.62,3.17c-1.11,0.07-2.23,0.25-3.33,0.17
		c-1.69-0.13-3.43-0.26-5.05-0.72c-16.97-4.82-31.39-13.77-43.34-26.76c-9.12-9.91-16-21.35-20.78-33.76
		c-5.83-15.16-8.02-31.15-7.89-47.45c0.06-8.1-0.2-16.24-0.97-24.3c-0.72-7.51-2.43-14.93-3.49-22.42
		c-2.21-15.74-7.21-30.34-17.47-42.71c-3.41-4.11-6.95-8.24-12.14-10.44c-7.42-3.15-13.37-0.16-15.78,7.41
		c-1.19,3.74,0.12,6.79,1.33,9.83c1.75,4.39,2.7,8.82,2.77,13.52c0.14,9.51-0.1,18.96-1.74,28.39c-1.98,11.42-3.01,23.01-5.09,34.42
		c-2.54,13.93-4.33,27.93-5.19,42.02c-1.16,19.16,0.16,38.22,4.86,56.85c6.38,25.29,16.81,48.65,33.51,69.07
		c13.59,16.62,29.8,29.81,48.84,39.52c7.11,3.63,14.53,6.66,21.88,9.8c1.9,0.81,2.46,1.39,1.89,3.65c-0.9,3.58-1.07,7.36-1.44,11.06
		c-1.36,13.6-2.68,27.2-4.02,40.81C300.51,380.61,300.67,380.62,300.83,380.64z"/>
	<path d="M84.6,563.28c0.08-0.64,0.35-1.06,0.67-1.48c5.52-7.28,10.85-14.72,16.87-21.61c4.91-5.63,9.92-11.17,14.97-16.67
		c7.65-8.34,15.42-16.57,23.42-24.59c8.78-8.8,18.12-16.96,27.77-24.78c11.37-9.21,23.17-17.84,35.42-25.84
		c10.66-6.96,21.56-13.51,32.69-19.69c8.67-4.83,17.45-9.47,26.35-13.86c11.91-5.88,24-11.36,36.3-16.38c3-1.23,6-2.45,9.07-3.49
		c2.02-0.68,2.69-1.63,2.7-3.75c0.01-4.82-0.01-9.65,0.01-14.47c0.02-4.49-0.01-8.99,0.17-13.48c0.17-4.4,0.67-8.78,1.26-13.14
		c0.7-5.2,1.43-10.39,2.17-15.58c0.54-3.84,1.1-7.69,1.67-11.53c0.43-2.92,0.12-3.42-2.75-4.38c-6.27-2.08-12.48-4.36-18.51-7.07
		c-14.07-6.33-27-14.44-38.6-24.65c-14.43-12.69-25.85-27.67-34.5-44.82c-6.65-13.18-11.29-27.04-14.46-41.43
		c-1.76-7.99-3.1-16.04-3.81-24.18c-0.56-6.35-0.84-12.73-0.39-19.09c0.76-10.85,1.77-21.68,3.28-32.47
		c1.92-13.79,4.03-27.54,6.32-41.27c1.09-6.52,1.9-13.07,2.49-19.65c0.29-3.29,0.89-6.57,0.75-9.88
		c-0.25-5.89-0.17-11.81-1.15-17.65c-0.51-3.03-1.47-5.91-2.85-8.65c-0.29-0.58-0.63-1.14-0.75-1.79c-0.23-1.24,0.04-1.79,1-2.5
		c0.87-0.64,1.6-0.53,2.47,0.05c3.41,2.26,6.12,5.23,8.64,8.38c6.55,8.17,10.47,17.59,12.9,27.67c1.89,7.82,3.24,15.74,4.09,23.75
		c0.54,5.09,0.9,10.2,1.21,15.31c0.43,7.2,0.57,14.41,0.78,21.62c0.45,15.66,3.08,30.93,8.88,45.55c4.56,11.49,10.8,22,18.6,31.61
		c6.64,8.19,14.24,15.3,23.05,21.1c9.85,6.49,20.53,11.05,32.05,13.55c4.37,0.95,8.84,1.43,13.33,1.4
		c3.39-0.03,6.78,0.04,10.16-0.16c2.11-0.13,4.29-0.08,6.34-0.79c1.01-0.35,1.09-0.58,0.65-1.58c-0.35-0.79-0.94-1.39-1.55-1.99
		c-3.62-3.56-7.28-7.09-10.86-10.7c-9.9-10-17.69-21.41-22.79-34.57c-2.35-6.07-3.91-12.35-4.86-18.78
		c-0.97-6.61-1.77-13.23-2.13-19.91c-0.15-2.72-0.26-5.45-0.36-8.17c-0.23-6.42-0.59-12.84-0.73-19.27
		c-0.07-3.05-0.24-6.1-0.29-9.16c-0.16-9.81-1.16-19.53-2.98-29.17c-1.85-9.79-4.65-19.29-8.37-28.53
		c-1.82-4.52-4.02-8.87-6.06-13.29c-0.54-1.18-1.17-2.32-1.34-3.63c-0.13-1,0.17-1.34,1.18-1.28c1.16,0.07,2.3,0.28,3.23,1.12
		c10.38,9.38,19.66,19.66,26.81,31.78c6.65,11.28,11.7,23.17,14,36.12c1.63,9.2,3.72,18.28,6.76,27.12c2.2,6.4,4.9,12.56,8.63,18.25
		c4.7,7.17,10.78,12.96,17.7,17.91c5.18,3.71,10.63,7,16.11,10.25c2.4,1.42,2.73,2.28,4.43-1.34c2.5-5.33,4.01-10.96,4.76-16.79
		c0.27-2.12,0.43-4.25,0.66-6.38c0.24-2.14,0.75-2.64,2.9-2.39c4.31,0.51,8.62,1.06,12.9,1.74c9.67,1.53,19.25,3.49,28.78,5.72
		c8.96,2.09,17.84,4.49,26.64,7.19c11.03,3.38,21.9,7.21,32.59,11.55c20.06,8.16,38.94,18.4,56.13,31.66
		c4.89,3.77,9.61,7.74,14.2,11.87c8.82,7.94,16.81,16.65,24.46,25.7c10.39,12.28,19.73,25.3,27.6,39.34
		c6.96,12.42,12.94,25.28,17.64,38.74c3.11,8.91,5.43,18,6.88,27.31c0.12,0.77,0.1,1.56,0.26,2.32c0.44,2.08,1.1,2.49,3.14,1.98
		c1.89-0.46,3.77-0.94,5.65-1.43c4.7-1.22,9.43-2.35,13.76-4.67c1.49-0.8,2.94-1.66,4.32-2.63c0.55-0.39,1.1-0.71,1.79-0.32
		c0.67,0.38,0.54,1.05,0.43,1.57c-1.09,5.59-1.67,11.31-3.69,16.69c-2.07,5.52-5.62,9.9-10.46,13.26c-1.82,1.26-3.59,2.58-5.46,3.75
		c-1.38,0.86-1.71,1.96-1.32,3.46c1.11,4.27,2.08,8.57,2.75,12.93c0.5,3.26,0.97,6.53,1.37,9.81c0.43,3.53,2.19,6.21,5.09,8.15
		c2.16,1.45,4.32,2.89,6.32,4.55c2.4,1.98,3.46,4.47,2.78,7.57c-0.28,1.26-0.6,2.54-1.07,3.74c-1.89,4.86-1.2,9.32,2.05,13.35
		c4.11,5.11,7.11,10.84,9.45,16.93c1.03,2.67,1.92,5.38,2.64,8.15c0.11,0.44,0.21,0.89,0.26,1.34c0.15,1.65-0.15,2.21-1.73,2.82
		c-2.78,1.08-5.52,2.25-8.22,3.53c-1.35,0.64-2.69,1.29-4.05,1.9c-1.52,0.68-2.37,1.87-2.39,3.48c-0.1,7.63-2.18,14.85-4.44,22.04
		c-0.27,0.87-0.58,1.73-0.74,2.62c-0.34,1.78,0.08,2.59,1.81,2.72c2.31,0.17,4.38,1.16,6.59,1.59c8.24,1.6,12.38,6.98,13.84,14.86
		c0.76,4.09,1.1,8.23,1.31,12.38c0.14,2.78,0.68,5.53,0.63,8.33c-0.06,3-1.33,5.25-4.08,6.55c-3.3,1.56-6.84,2.38-10.36,3.23
		c-4.79,1.16-9.69,1.63-14.59,2.08c-5.41,0.49-10.79,1.28-16.19,1.79c-4.77,0.45-9.51,1.12-14.26,1.72
		c-6.15,0.78-12.29,1.73-18.43,2.58c-4.17,0.58-8.34,1.12-12.5,1.68c-1.92,0.26-3.84,0.54-5.76,0.8c-2.24,0.3-3.62,1.58-4.25,3.72
		c-0.66,2.24-1.34,4.47-1.96,6.71c-3.85,13.74-7.91,27.42-12.64,40.88c-5.16,14.66-12.54,28.08-22.82,39.82
		c-8.53,9.74-18.34,17.82-30.08,23.46c-5.94,2.85-12.18,4.73-18.67,5.78c-0.13,0.02-0.26,0.05-0.39,0.05
		c-0.37,0.01-0.84,0.2-1.07-0.18c-0.28-0.46,0.03-0.85,0.37-1.19c0.83-0.82,1.65-1.66,2.49-2.48c6.83-6.75,12.77-14.2,17.67-22.46
		c5.35-9.02,9.11-18.64,10.61-29.06c0.66-4.55,1.01-9.15,1.36-13.74c0.26-3.36,0.67-6.71,0.76-10.08c0.13-4.75-0.52-9.45-0.84-14.18
		c-0.18-2.65-0.47-5.29-0.72-7.94c-0.21-2.11-0.65-2.41-2.56-1.58c-4.16,1.81-8.32,3.61-12.44,5.52
		c-9.6,4.46-18.88,9.53-27.95,14.96c-3.68,2.2-7.23,4.61-10.89,6.84c-2.13,1.29-2.9,3.12-2.94,5.53
		c-0.17,9.46-2.17,18.52-6.24,27.09c-0.92,1.94-1.89,3.84-2.98,5.69c-2.19,3.71-2.58,7.73-1.8,11.87c1.02,5.43,1.78,10.9,1.77,16.42
		c-0.01,8.42-1.32,16.67-4.14,24.62c-3.27,9.2-8.06,17.56-14.28,25.1c-1.62,1.97-2.72,4.28-3.5,6.7c-1.25,3.87-3.16,7.39-5.52,10.68
		c-1.21,1.69-2.35,3.43-3.56,5.12c-0.96,1.34-1.61,2.76-2,4.39c-1.09,4.59-3.64,8.33-7.28,11.25c-4.21,3.38-8.69,6.38-13.15,9.42
		c-1.41,0.96-2.97,1.63-4.64,1.94c-4.09,0.75-7.75-1.53-9.27-5.69c-0.51-1.41-0.84-2.87-0.9-4.36c-0.2-4.44,0.21-8.81,1.47-13.1
		c0.71-2.43,1.02-4.9,0.69-7.48c-0.28-2.18-0.15-4.43-0.04-6.64c0.06-1.29,0.65-2.49,1.24-3.65c0.47-0.93,0.92-1.85,1.3-2.83
		c0.59-1.56,0.44-3.05-0.26-4.51c-1.92-3.98-1.74-7.87,0.31-11.77c0.79-1.5,1.62-2.96,2.49-4.4c1.08-1.79,1.1-2.48-0.11-4.07
		c-3.8-4.97-3.99-10.37-2.02-16.06c0.57-1.65,1.26-3.26,1.72-4.96c0.83-3.01,0.36-5.8-1.39-8.35c-0.95-1.39-2.06-2.67-3.11-3.99
		c-4.35-5.46-6.93-11.67-8.03-18.54c-0.65-4.05-0.89-8.13-0.76-12.22c0.09-2.83-0.93-5.01-3.22-6.71c-3.92-2.9-7.67-6.02-11.01-9.6
		c-4.88-5.24-9.41-10.75-12.61-17.23c-2.64-5.34-4.16-11.03-5.23-16.85c-0.95-5.17-1.57-10.38-1.81-15.65
		c-0.13-2.74,0.14-5.44,0.11-8.16c-0.03-2.07-0.69-3.84-2.18-5.24c-2.84-2.68-5.62-5.41-8.15-8.39
		c-6.54-7.71-11.45-16.36-14.93-25.83c-0.85-2.31-1.69-4.6-1.66-7.15c0.01-1.62-1.13-2.33-2.81-2.05c-2.04,0.33-4.08,0.69-6.12,1.06
		c-4.95,0.9-9.9,0.89-14.92,0.41c-6.36-0.61-12.26-2.59-18-5.23c-5.07-2.33-10.34-3.09-15.91-2.4c-6.74,0.84-13.45,1.85-20.21,2.54
		c-4.38,0.44-8.76,0.87-13.15,1.16c-6.46,0.42-12.94,0.78-19.35,1.61c-7.75,1-15.44,2.48-23.16,3.72c-6.71,1.08-13.4,2.2-20.06,3.57
		c-11.04,2.27-21.89,5.25-32.63,8.67c-11.18,3.56-22.17,7.63-32.87,12.45c-7.93,3.58-15.65,7.56-23.05,12.14
		c-1.26,0.78-2.52,1.58-3.97,2.03C85.99,563.26,85.4,563.52,84.6,563.28z"/>
	<path class="st1" d="M455.17,401.19c-8.85,0.07-17.24-2.09-25.37-5.38c-9.24-3.73-17.69-8.8-25.29-15.25
		c-1.14-0.97-2.19-2.06-3.18-3.18c-0.77-0.87-1.35-1.86-1.71-3.03c-0.66-2.15-1.43-2.53-3.74-2.61c-2.9-0.1-5.67,0.43-8.43,1.29
		c-3.41,1.06-6.96,1.53-10.46,2.24c-11.14,2.26-22.22,4.74-33.05,8.24c-6.3,2.04-12.61,4.05-18.92,6.06
		c-0.8,0.25-1.63,0.49-2.46,0.58c-1.57,0.17-2.6-0.57-3.06-2.08c-0.13-0.43-0.25-0.88-0.27-1.33c-0.14-4.09-0.58-8.18-0.37-12.28
		c0.23-4.8,0.49-9.6,0.79-14.39c0.18-2.85,0.42-5.69,0.68-8.53c0.16-1.77,0.84-3.41,1.56-5.01c0.46-1.01,1.52-1.37,2.49-1.76
		c2.96-1.18,6.05-1.98,9.14-2.71c7.45-1.76,14.94-3.32,22.53-4.4c4.88-0.7,9.74-1.48,14.61-2.24c4.67-0.73,9.16-0.02,13.56,1.58
		c1.2,0.44,2.19,1.12,2.84,2.26c1.05,1.8,2.15,3.57,3.18,5.37c5.16,8.99,12.38,15.81,21.52,20.65c7.19,3.81,14.85,6.18,22.84,7.54
		c1.15,0.2,2.32,0.29,3.48,0.39c2.26,0.21,4.54,0.39,6.8,0.38c2.32-0.01,4.68-0.13,6.99-0.38c4.65-0.49,9.24-1.31,13.75-2.61
		c11.7-3.36,21.72-9.44,29.53-18.77c7.41-8.85,12-19.13,13.99-30.52c0.37-2.1,0.69-4.24,0.55-6.4c-0.02-0.32-0.01-0.65,0.03-0.98
		c0.28-2.17,1.24-3.04,3.44-3.16c4.86-0.28,9.73-0.51,14.58-0.89c3.69-0.29,7.38-0.53,11.06-0.8c5.69-0.42,11.39-0.82,17.08-1.18
		c2.92-0.18,5.86-0.1,8.76-0.39c3.65-0.37,7.28-0.3,10.92-0.22c4.6,0.11,9.21,0.3,13.81,0.6c3.24,0.21,6.49,0.33,9.73,0.56
		c4.53,0.32,9.05,0.62,13.57,1.01c3.83,0.33,7.6,0.9,11.35,1.69c3.83,0.8,6.1,3.04,6.98,6.94c1.53,6.72,3.82,13.24,5.91,19.8
		c1.14,3.59,2.38,7.16,3.13,10.86c0.08,0.38,0.15,0.77,0.18,1.16c0.16,2.1-0.62,2.99-2.75,3.15c-2.36,0.18-4.67-0.29-6.98-0.56
		c-1.6-0.19-3.23-0.39-4.82-0.52c-2.71-0.23-5.44-0.41-8.16-0.6c-3.57-0.25-7.16-0.11-10.71-0.41c-2.8-0.24-5.59-0.22-8.38-0.23
		c-12.38-0.03-24.77-0.1-37.15,0.03c-4.59,0.05-9.19,0.38-13.77,0.97c-2.7,0.35-5.42,0.54-8.13,0.84
		c-4.25,0.47-8.51,0.89-12.78,1.18c-4.4,0.3-8.79,0.81-13.21,0.94c-2.85,0.09-4.39,1.17-5.2,3.86c-1.11,3.72-3.19,6.97-5.18,10.24
		c-3.3,5.4-7.1,10.41-11.39,15.08c-4.89,5.32-10.33,9.89-16.81,13.11c-3.98,1.98-8.21,3.19-12.62,3.82
		C459.84,401.14,457.51,401.15,455.17,401.19z"/>
	<path class="st0" d="M216.57,111.07c0.66,8.74,0.42,17.3,1.24,26.11c1.14-1.45,0.95-2.88,1.13-4.17
		c0.76-5.51,1.36-11.04,2.05-16.55c0.86-6.87,1.76-13.74,2.64-20.61c0.15-1.15,0.16-2.33,0.49-3.46c0.09-0.32,0.18-0.62,0.59-0.79
		c0.34,0.9,0.45,1.8,0.5,2.75c0.27,5.38,0.61,10.75,0.89,16.13c0.16,3.05,0.25,6.1,0.41,9.14c0.21,4.01,0.44,8.03,0.69,12.04
		c0.04,0.64,0.13,1.29,0.56,1.95c0.78-0.51,0.91-1.37,1-2.11c0.57-4.3,1.07-8.62,1.59-12.93c0.17-1.41,0.33-2.83,0.54-4.24
		c0.1-0.7,0.27-1.4,0.45-2.09c0.08-0.3,0.24-0.64,0.66-0.58c0.38,0.06,0.47,0.41,0.55,0.71c0.06,0.25,0.05,0.52,0.07,0.77
		c0.36,4.2,0.76,8.39,0.96,12.61c0.28,6.01,0.95,12,2.01,17.94c1.08,6.07,2.53,12.05,4.39,17.94c2.62,8.27,6.09,16.14,10.31,23.71
		c4.06,7.28,8.84,14.07,14.26,20.39c7.76,9.04,16.75,16.67,27.04,22.72c8.87,5.22,18.27,9.23,28.29,11.66
		c3.77,0.92,7.61,1.46,11.48,1.87c4.94,0.53,9.89,0.49,14.81,0.18c4.44-0.28,8.89-0.74,13.31-1.34c3.84-0.53,7.72-0.82,11.58-1.25
		c4.3-0.48,8.6-1.05,12.91-1.51c3.41-0.36,6.84-0.6,10.26-0.89c4.8-0.41,9.61-0.45,14.42-0.41c9.3,0.08,18.49,1.12,27.53,3.26
		c7.31,1.73,14.52,3.81,21.53,6.57c7.09,2.79,13.39,6.81,19.21,11.67c6.75,5.65,12.39,12.21,16.6,19.96
		c3.51,6.46,5.67,13.36,6.74,20.62c0.69,4.65,0.73,9.33,0.62,14c-0.06,2.34-0.56,4.63-1.31,7.3c-0.71-3.36-0.28-6.46-0.97-9.54
		c-0.59,0.35-0.55,0.96-0.68,1.44c-0.83,3.2-1.61,6.42-2.46,9.61c-0.15,0.57-0.08,1.33-0.89,1.68c-0.35-1.72,0.17-3.35,0.35-4.97
		c1.48-13.31-2.51-24.96-10.54-35.41c-0.75-0.98-1.56-1.91-2.51-2.71c-0.2-0.16-0.39-0.34-0.71-0.28c-0.35,0.48,0.03,0.81,0.27,1.18
		c5.29,7.98,7.95,16.82,8.68,26.31c0.23,3.05,0.43,6.08,0.25,9.14c-0.53,9.03-3.46,17.13-9.32,24.05
		c-6.19,7.31-13.93,12.36-22.98,15.46c-2.94,1.01-5.85,2.1-8.77,3.15c-0.32,0.11-0.59,0.26-0.87,0.6c0.49,0.78,1.26,0.88,2.11,0.89
		c3.26,0.01,6.45-0.51,9.61-1.23c5.23-1.2,10.45-2.46,15.68-3.67c0.62-0.15,1.27-0.29,2-0.07c-0.09,0.82-0.75,1.16-1.31,1.52
		c-7.17,4.65-14.9,7.81-23.47,8.74c-2.96,0.32-5.91,0.83-8.91,0.66c-13.82-0.82-26.26-5.07-36.66-14.57
		c-2.46-2.24-4.67-4.69-6.77-7.24c-0.47-0.57-1.23-1.27-0.78-2.01c0.43-0.7,1.42-0.55,2.18-0.43c3.64,0.56,7.28,1.13,10.92,1.74
		c3.25,0.55,6.5,1.15,9.74,1.73c0.06,0.01,0.13,0.04,0.19,0.03c0.5-0.02,1.17,0.17,1.33-0.46c0.1-0.41-0.31-0.82-0.72-1.06
		c-2.4-1.41-4.76-2.91-7.23-4.22c-10.02-5.32-20.7-8.89-31.61-11.8c-15.84-4.22-31.87-7.69-47.75-11.76
		c-9.6-2.46-19.17-4.99-28.54-8.21c-17.49-6.01-33.41-14.79-47.38-26.96c-10.17-8.87-18.72-19.12-25.83-30.57
		c-9.12-14.68-15.52-30.48-19.43-47.3c-1.79-7.71-3.02-15.51-3.86-23.4c-0.91-8.5-0.88-17.02-0.67-25.53
		c0.24-9.91,1.22-19.78,2.66-29.59c0.58-3.97,1.06-7.96,1.61-11.94C215.63,112.47,215.64,111.71,216.57,111.07z M319.08,102.72
		c0.74,6.25,0.93,12.55,1.19,18.83c0.26,6.23,0.49,12.45,0.79,18.68c0.34,7.26,1,14.48,2.36,21.63c1.63,8.58,4.24,16.84,8,24.71
		c3.84,8.05,9.25,15,15.41,21.38c3.39,3.51,7.09,6.7,10.82,9.83c2.07,1.73,2.78,1.63,4.39-0.56c0.08-0.1,0.14-0.22,0.21-0.33
		c6.67-9.75,13.38-19.48,20.23-29.11c1.38-1.93,1.2-2.86-0.69-4.22c-0.21-0.15-0.43-0.28-0.65-0.42
		c-8.59-5.33-16.54-11.48-23.62-18.73c-5.99-6.13-11.02-12.95-14.84-20.63c-4.32-8.71-7.12-17.93-9.06-27.43
		c-1-4.89-2.05-9.77-3.12-14.65c-0.17-0.8-0.28-1.7-1.19-2.4c0,4.85,0,9.47,0,14.1c0,1.05-0.01,1.05-0.64,1.98
		c-2.33-7.33-3.51-14.98-6.62-22.06c-0.12,7.1,1.14,14.09,1.41,21.14c-0.13,0.03-0.27,0.06-0.4,0.09
		c-1.17-3.94-2.34-7.88-3.51-11.82C319.39,102.72,319.23,102.72,319.08,102.72z"/>
	<path class="st2" d="M642.73,419.28c-4.68-2.05-9.42-3.14-14.25-0.71c-5.09,2.56-6.81,5.9-6.3,11.37c0.11,1.16,0.32,2.31,0.43,3.48
		c0.27,2.93-0.62,4.44-3.46,5.26c-3.01,0.87-5.88,2-8.71,3.34c-7,3.33-13.67,7.22-20,11.68c-6.45,4.55-12.42,9.67-17.84,15.41
		c-7.18,7.6-13.26,16-18.3,25.16c-6.8,12.35-11.22,25.55-14.28,39.25c-0.23,1.01-0.45,2.03-0.81,3c-0.59,1.57-1.7,2.63-3.45,2.74
		c-6.08,0.4-12.04-0.16-17.75-2.47c-6.53-2.64-11.39-7.19-14.85-13.24c-4.44-7.76-7.17-16.12-8.27-24.98
		c-0.53-4.25-0.72-8.52-0.22-12.81c0.25-2.11,0.28-4.27,0.49-6.4c0.12-1.21-0.08-1.44-1.25-1.16c-2.08,0.51-4.17,1-6.29,1.32
		c-1.6,0.24-3.21,0.48-4.82,0.68c-2.37,0.3-4.5-0.48-6.48-1.67c-1.85-1.11-2.13-2.69-0.86-4.43c1.27-1.75,3.01-3.05,4.56-4.53
		c3.47-3.33,7.03-6.57,10.56-9.84c4.43-4.12,8.85-8.24,13.28-12.36c1.47-1.37,2.97-2.73,4.39-4.15c1.84-1.84,3.84-2.58,6.5-1.88
		c4.76,1.25,9.59,2.26,14.19,4.07c5.16,2.03,9.46,5.16,12.31,10.04c2.22,3.8,3,7.98,3.2,12.31c0.23,4.92,0.67,9.83,1.16,14.74
		c0.03,0.33,0.08,0.65,0.45,0.82c0.52-0.18,0.5-0.73,0.56-1.09c1.02-6.67,2.59-13.24,3.28-19.97c0.42-4.16,0.6-8.28-0.42-12.39
		c-1.37-5.48-4.45-9.74-9.07-12.95c-2.96-2.06-6.23-3.48-9.53-4.86c-2.69-1.12-5.41-2.2-8.09-3.34c-2.22-0.95-2.48-1.84-1.12-3.89
		c2.87-4.34,5.45-8.86,7.75-13.53c4.43-9.01,7.73-18.43,10.31-28.12c1.74-6.53,3.03-13.16,4.27-19.8c0.59-3.19,1.4-3.89,4.61-4.21
		c4.77-0.48,9.53-0.98,14.29-1.44c0.84-0.08,1.69-0.04,2.54-0.01c1.48,0.04,1.87,0.48,1.59,1.93c-0.38,1.97-0.91,3.92-1.29,5.89
		c-0.92,4.83-1.03,9.67-0.17,14.53c0.01,0.06,0.01,0.13,0.02,0.19c0.94,3.56,1.02,3.59,4.17,2.05c6.51-3.18,13.34-4.86,20.65-4.82
		c5.03,0.03,9.95,0.68,14.88,1.51c4.66,0.78,9.34,1.45,14.02,2.13c4.35,0.64,8.71,1.23,13.07,1.83c4.2,0.58,8.41,0.36,12.61-0.02
		c0.19-0.02,0.37-0.17,0.56-0.17c2.79-0.08,3.93-0.67,5.01,3.07c1.18,4.05,2.51,8.05,3.19,12.23c0.35,2.2,0.16,4.41,0.39,6.61
		c0.27,2.67,0.73,5.28,1.46,7.84c0.83,2.88,2.81,4.95,5.34,6.47c1.11,0.67,2.31,1.18,3.47,1.77c4.91,2.48,5.84,7.3,3.96,11.18
		c-1.15,2.37-3.25,3.45-6.09,3.2c-2.2-0.2-4.38-0.46-6.58-0.69c-4.02-0.42-8.06-0.51-12.08-0.33c-3.23,0.15-6.48,0.36-9.68,0.88
		c-0.64,0.1-1.3,0.15-1.94,0.11c-1.21-0.07-2.14-0.62-2.48-1.85c-0.78-2.81-0.9-5.66,0.12-8.42c1.2-3.27,4.01-4.36,7.13-5
		C638.74,419.43,640.74,419.57,642.73,419.28z M569.54,456.88c1.42-2.16,2.62-4.07,3.9-5.93c4.34-6.31,9.36-11.98,15.57-16.53
		c5.09-3.73,10.33-7.24,15.77-10.45c4.78-2.83,7.85-6.96,9.11-12.34c0.65-2.77,1.14-5.61,1.37-8.44c0.22-2.77,0.35-5.58-0.85-8.26
		c-0.68-1.52-1.68-2.77-2.78-3.97c-1.96-2.14-0.82-2.96,1.15-3.49c1.69-0.46,3.42-0.78,5.09-1.3c1.06-0.33,2.27-0.34,3.45-1.35
		c-3.94-0.54-7.55-1.14-11.22-1.3c-4.06-0.17-8.02,0.6-11.96,1.44c-5.4,1.15-10.68,2.8-16.11,3.77c-0.4,0.07-0.79,0.2-1.06,0.47
		c0.21,0.39,0.46,0.48,0.72,0.51c2.18,0.26,4.37,0.55,6.55,0.76c4.9,0.47,9.78,1.1,14.61,2.05c2.16,0.42,4.3,0.97,6.29,1.97
		c1.04,0.52,1.82,1.26,1.81,2.54c-0.03,5.11-0.89,9.95-4.31,14.03c-2,2.38-4.47,4.13-7.09,5.73c-5.96,3.64-11.47,7.83-16.22,13.01
		c-6.37,6.94-10.77,14.94-13.27,23.99C569.8,454.67,569.4,455.55,569.54,456.88z M534.07,548.94c-1.94-0.18-3.88-0.35-5.82-0.35
		c-2.28-0.01-4.55-0.19-6.79-0.52c-8.23-1.21-15.32-4.79-21.23-10.62c-6.37-6.29-10.46-14.02-13.71-22.26
		c-2.36-5.98-4.15-12.16-6.2-18.25c-0.79-2.36-2.18-3.81-4.62-4.52c-4.16-1.2-7.79-3.44-11.12-6.19c-0.7-0.57-1.4-0.81-2.28-0.19
		c-1.57,1.1-1.88,2.47-0.81,4.42c1.28,2.34,2.66,4.62,3.85,7c2.99,6,5.2,12.32,7.33,18.67c2.84,8.49,3.28,17.18,2.06,25.98
		c-1.1,7.94-3.16,15.65-5.74,23.22c-0.87,2.56-0.9,5.01-0.16,7.62c1.71,6.05,3.27,12.16,4.85,18.25c0.7,2.7,1.31,5.43,1.99,8.13
		c0.32,1.26,0.68,1.5,1.74,1.23c0.43-0.11,0.85-0.31,1.25-0.52c1.96-1.01,3.91-2.04,5.88-3.04c7.89-3.98,15.67-8.16,23.65-11.96
		c7.33-3.49,14.7-6.88,22.32-9.68c2.41-0.89,3.47-2.46,3.66-4.91c0.33-4.07,0.81-8.13,1.13-12.2c0.19-2.39,0.24-4.79,0.77-7.22
		C536.09,549.83,535.45,549.06,534.07,548.94z M654.31,487.92c-12.41,6.51-23.65,14.59-33.41,24.69c-4.77,4.93-8.9,10.35-12.31,16.3
		c-1.32,2.31-2.55,4.68-3.5,7.17c-0.73,1.93-0.21,2.61,1.8,2.83c1.94,0.21,3.89,0.23,5.83,0.25c3.44,0.04,6.88,0.19,10.32,0.33
		c5.97,0.24,11.91,0.86,17.85,1.36c5.36,0.45,10.72,0.97,16.07,1.49c3.61,0.35,7.21,0.87,10.83,1.06c3.04,0.16,6.11,0.26,9.15-0.23
		c2.33-0.38,3.95-1.65,4.59-3.95c0.47-1.7,0.58-3.46,0.37-5.22c-0.45-3.75-1.53-7.36-2.71-10.93c-1.24-3.76-3.8-6.27-7.65-7.42
		c-2.05-0.61-4.13-1.1-6.23-1.52c-2.86-0.57-5.74-0.98-8.65-1.2c-1.56-0.12-1.72-0.38-1.28-1.79c1.9-6.07,3.46-12.24,5.1-18.38
		c0.66-2.45,1.3-4.89,0.54-7.62C658.52,485.66,656.44,486.81,654.31,487.92z M672.09,548.16c-10.8-0.09-21.61,0.2-32.41-0.33
		c-5.65-0.28-11.31-0.16-16.97-0.38c-6.9-0.27-13.81-0.13-20.72-0.15c-0.52,0-1.04,0.04-1.56,0.08c-1.45,0.13-2.56,0.73-3.3,2.06
		c-1.15,2.04-2.24,4.11-3.14,6.27c-0.36,0.87-1.19,1.81-0.41,2.7c0.81,0.92,1.96,0.35,2.94,0.12c2.84-0.68,5.69-1.38,8.59-1.72
		c7.02-0.82,14.05-1.53,21.08-2.26c6.45-0.67,12.9-1.31,19.36-1.95c8.59-0.84,17.18-1.64,25.76-2.52c1.43-0.15,3.03-0.03,4.16-1.37
		C674.37,548.27,673.25,548.17,672.09,548.16z"/>
	<path class="st3" d="M279.32,455.18c2.88-1.09,5.4-2.8,8.01-4.35c12.85-7.64,25.71-15.26,38.53-22.96
		c6.13-3.68,12.09-7.64,18.29-11.21c0.89-0.51,1.75-1.16,2.84-1.19c0.32-0.01,0.69,0,0.86,0.32c0.19,0.35-0.06,0.63-0.29,0.85
		c-1.72,1.59-3.41,3.21-5.18,4.74c-6.75,5.8-13.55,11.54-20.17,17.49c-9.24,8.29-18.78,16.22-28.63,23.77
		c-7.58,5.81-15.12,11.68-22.72,17.57c0.55,0.41,0.89-0.05,1.22-0.2c22.02-10.6,42.33-23.85,61.13-39.45
		c5.05-4.19,9.84-8.68,14.82-12.95c5.53-4.74,11.31-9.16,17.26-13.36c10.16-7.17,20.82-13.53,31.59-19.71
		c0.45-0.26,0.94-0.45,1.39-0.7c1.52-0.86,2.98-0.73,4.4,0.23c2.32,1.56,4.64,3.13,6.96,4.69c3.73,2.5,7.5,4.93,11.38,7.19
		c0.56,0.33,1.12,0.68,1.64,1.06c1.26,0.91,1.35,1.61,0.12,2.63c-1.35,1.11-2.82,2.09-4.26,3.09c-5.72,3.97-11.4,7.98-16.86,12.3
		c-7.78,6.15-13.92,13.61-17.82,22.8c-0.25,0.59-0.43,1.22-0.63,1.84c-0.06,0.18-0.08,0.38,0.18,0.57c1.55-1.03,2.61-2.62,3.87-3.98
		c5.13-5.56,10.69-10.66,16.62-15.34c6.23-4.93,12.84-9.3,19.86-13.05c1.72-0.92,3.28-2.1,4.86-3.26c2.78-2.04,5.79-3.54,9.35-3.27
		c2,0.15,3.99,0.47,5.96,0.82c2.05,0.37,4.1,0.55,6.17,0.73c1.8,0.16,3.62,0.23,5.43,0.85c-0.25,1.51-1.39,2.24-2.5,2.98
		c-11.24,7.54-22.52,15.02-33.85,22.43c-7.57,4.94-15.16,9.87-22.17,15.61c-11.37,9.3-19.75,20.75-24.74,34.63
		c-2.3,6.39-3.8,12.95-4.63,19.68c-0.15,1.22-0.52,2.42-0.45,3.67c0.01,0.1,0.1,0.2,0.27,0.51c0.87-2.32,1.71-4.47,2.5-6.64
		c2.13-5.93,4.26-11.88,7.01-17.56c3.45-7.13,7.89-13.59,13.33-19.36c6.67-7.08,14.52-12.56,22.89-17.43
		c8.76-5.1,17.39-10.43,26.04-15.74c5.93-3.64,11.78-7.41,17.67-11.11c5.52-3.47,10.56-7.57,15.5-11.81
		c3.21-2.75,6.46-5.43,9.7-8.14c1.16-0.97,2.55-1.55,3.86-2.25c10.9-5.9,19.2-14.33,24.89-25.34c1.68-3.24,3.06-6.6,4.26-10.05
		c1.22-3.53,2.82-4.71,6.5-4.69c1.83,0.01,3.63-0.26,5.42-0.52c1.82-0.27,3.63-0.29,5.44-0.26c1.18,0.02,1.65,0.49,1.64,1.7
		c-0.01,1.09-0.18,2.19-0.36,3.28c-2.32,14.43-6.77,28.16-13.65,41.07c-4.73,8.87-10.54,17-17.06,24.64
		c-4.77,5.59-9.78,10.98-15.09,16.07c-5.02,4.81-10.01,9.66-15.22,14.28c-2.24,1.98-4.41,4.05-6.54,6.14
		c-5.44,5.34-10.94,10.62-16.24,16.1c-10.73,11.1-20.66,22.86-29.11,35.82c-10.73,16.47-18.74,34.15-23.52,53.25
		c-0.43,1.72-1.2,3.27-2.11,4.77c-2.58-11.21-2.39-40.75,12.03-66c-1.03,0.65-1.56,1.24-2.04,1.85
		c-7.22,9.2-12.62,19.35-16.07,30.54c-1.94,6.29-3.1,12.73-3.81,19.25c-0.27,2.51-0.31,5.05-0.44,7.58
		c-0.03,0.52,0.04,1.05-0.05,1.56c-0.12,0.7-0.56,1.03-1.27,0.74c-0.54-0.22-1.08-0.46-1.57-0.77c-7.34-4.59-14.42-9.52-20.84-15.38
		c-9.54-8.7-16.37-19.09-20.23-31.41c-1.4-4.47-2.3-9.05-2.64-13.73c-0.65-8.85-0.55-17.7-0.19-26.55
		c0.33-8.11,1.44-16.15,3.51-24.03c0.07-0.25,0.14-0.49,0.17-0.75c0.01-0.1-0.1-0.21-0.19-0.38c-1.26,0.65-2.01,1.82-2.88,2.83
		c-10.29,12.04-22.31,21.98-36.22,29.55c-10.92,5.95-22.54,10.01-34.77,12.32c-7.34,1.38-14.73,2.36-22.15,3.2
		c-7.09,0.8-14.19,1.48-21.31,2.03c-12.5,0.96-24.88,2.82-37.18,5.25c-3.88,0.77-7.79,1.4-11.65,2.3c-1.04,0.24-2.19,0.04-3.4,0.04
		c0.16-1.1,0.77-1.91,1.5-2.62c4.38-4.27,8.77-8.54,13.17-12.79c2.76-2.67,5.55-5.31,8.34-7.94c6.09-5.76,12.43-11.25,18.91-16.56
		c6.04-4.95,12.28-9.63,18.78-13.95c8.23-5.48,16.88-10.25,25.55-15c6.79-3.72,13.7-7.19,20.63-10.62
		c7.63-3.77,15.42-7.2,23.16-10.71c4.08-1.85,8.07-3.91,12.11-5.85c1.17-0.56,2.38-1.03,3.59-1.51c0.36-0.14,0.8-0.22,1.05,0.2
		c0.26,0.46-0.15,0.74-0.43,0.95c-1.18,0.91-2.36,1.83-3.59,2.67c-1.88,1.28-3.8,2.51-5.71,3.74c-3.24,2.09-6,4.77-8.92,7.25
		c-6.38,5.42-12.74,10.88-19.1,16.32C280.41,453.69,279.73,454.28,279.32,455.18z M621.52,298.14
		c-5.36-11.08-11.46-21.73-18.47-31.86c-6.56-9.48-13.84-18.37-21.8-26.71c-3.95-4.14-8.12-8.07-12.42-11.86
		c-8.29-7.33-17.03-14.08-26.11-20.39c-8.97-6.24-18.28-11.95-27.91-17.13c-7.73-4.16-15.64-7.91-23.71-11.35
		c-9.08-3.87-18.37-7.18-27.81-10.06c-8.19-2.49-16.47-4.59-24.87-6.26c-5.4-1.08-10.83-1.97-16.3-2.63
		c-3.47-0.42-6.95-0.93-10.46-0.93c-1.04,0-2.06-0.06-3.1-0.23c-3.18-0.52-4.56,0.49-5.28,3.64c-0.04,0.19-0.04,0.39-0.08,0.58
		c-1.94,8.62-4.94,16.83-9.61,24.37c-3.53,5.7-7.62,11.02-11.53,16.45c-6.04,8.39-11.98,16.86-17.88,25.35
		c-0.54,0.78-1.09,1.69-0.7,2.51c0.47,0.99,1.67,0.6,2.49,0.47c3.21-0.5,6.44-0.75,9.66-1.19c7.78-1.06,15.57-2.01,23.4-2.48
		c5.77-0.35,11.56-0.29,17.35,0.17c6.62,0.52,13.17,1.41,19.63,2.85c11.43,2.56,22.64,5.79,33.05,11.34
		c5.82,3.11,11.2,6.86,16.03,11.35c5.17,4.81,9.66,10.19,13.36,16.22c3.69,6.01,6.68,12.32,8.52,19.16
		c1.05,3.89,1.82,7.83,2.23,11.85c0.22,2.11,1.32,2.97,3.44,2.73c0.58-0.06,1.15-0.19,1.73-0.24c5.17-0.44,10.34-0.88,15.52-1.31
		c7.17-0.61,14.34-1.28,21.52-1.79c4.54-0.32,9.09-0.47,13.64-0.53c7.81-0.1,15.62-0.05,23.41,0.48c0.78,0.05,1.57-0.02,2.34,0.04
		c3.94,0.33,7.88,0.69,11.82,1.02c4.4,0.37,8.77,0.9,13.15,1.46c2.56,0.33,5.12,0.95,7.79,0.35
		C623.26,301.63,622.36,299.89,621.52,298.14z M588.14,491.59c-2.35,3.83-4.46,7.78-6.43,11.81c-6.2,12.71-10.26,26.09-12.65,39.99
		c-1.93,11.25-3.54,22.55-4.75,33.91c-0.95,8.9-1.99,17.79-3.01,26.68c-0.7,6.19-1.55,12.36-2.67,18.49
		c-0.88,4.79-1.85,9.56-3.15,14.26c-0.24,0.88-0.65,1.81,0.15,2.65c1.8-0.77,2.31-2.5,3.06-3.96c5.49-10.66,9.79-21.8,13.15-33.31
		c3.97-13.62,6.28-27.59,8.95-41.49c2.03-10.59,3.87-21.22,6.7-31.63c3.54-13,8.5-25.38,16.15-36.56
		c4.67-6.82,10.46-12.57,17.17-17.39c0.5-0.36,0.97-0.83,1.92-0.82c-0.94,1.78-2.21,3.06-3.28,4.48
		c-9.85,13.02-17.49,27.21-22.87,42.62c-2.06,5.89-3.82,11.87-5.05,17.99c-0.2,0.98-0.47,1.98,0.28,2.9
		c1.24-0.89,1.26-0.88,1.94-2.28c4.26-8.79,9.1-17.26,14.63-25.32c5.1-7.44,10.96-14.2,17.96-19.92
		c6.94-5.66,14.68-10.07,22.58-14.18c8.43-4.38,17.18-8.02,26.2-11c3.66-1.21,3.96-1.86,2.91-5.57c-1.33-4.73-3.43-9.12-6.18-13.17
		c-1.34-1.99-2.88-3.85-4.39-5.72c-2.95-3.65-7.09-4.58-11.48-4.79c-7.35-0.36-14.64,0.09-21.91,1.42
		c-9.02,1.65-17.6,4.48-25.62,8.92c-11.57,6.42-21.8,14.57-30.88,24.2c-5.33,5.65-10.08,11.73-14.28,18.25
		c-5.88,9.13-10.34,18.91-13.47,29.31c-3.16,10.5-4.48,21.32-5.68,32.16c-0.71,6.38-1.13,12.79-1.53,19.2
		c-0.32,5.12-0.44,10.26-0.55,15.39c-0.18,8.59,0.22,17.19-0.24,25.78c-0.17,3.18-0.16,6.36-0.38,9.54
		c-0.45,6.63-1.41,13.16-3.03,19.6c-0.33,1.31-0.32,1.31,0.5,2.8c1.71-1.9,2.54-4.24,3.41-6.53c2.49-6.64,4.41-13.45,6.04-20.35
		c2.8-11.9,4.39-24,5.75-36.13c0.87-7.8,1.76-15.6,2.77-23.39c1.5-11.48,3.84-22.77,7.76-33.71c4.13-11.54,9.49-22.37,17.84-31.5
		c1.88-2.06,3.9-4,6.47-5.77C588.84,490.5,588.47,491.04,588.14,491.59z M121.79,536.35c10.73-4.12,21.44-8.27,32.16-12.42
		c2.08-0.81,3.96-1.94,5.56-3.51c3.81-3.74,7.64-7.46,11.43-11.22c4.21-4.17,8.43-8.32,12.74-12.39
		c5.07-4.77,10.22-9.43,15.54-13.91c9.7-8.18,19.85-15.75,30.64-22.46c11.37-7.07,22.97-13.73,34.78-20.05
		c12.15-6.5,24.51-12.58,37.01-18.36c11.13-5.15,22.33-10.14,33.67-14.81c18.25-7.53,36.67-14.6,55.64-20.13
		c0.81-0.24,1.63-0.47,2.4-0.82c1.15-0.52,1.68-1.61,1.3-2.44c-1.36-2.95-2.59-3.69-5.81-3.49c-0.52,0.03-1.05,0.04-1.55,0.15
		c-7.21,1.59-14.44,3.13-21.63,4.81c-11.18,2.6-22.19,5.86-33.08,9.48c-10.59,3.52-21.04,7.42-31.36,11.67
		c-16.65,6.85-32.86,14.63-48.69,23.21c-15.72,8.52-31.07,17.67-45.86,27.74c-7.15,4.87-14.08,10.03-20.85,15.41
		c-8.95,7.12-17.64,14.54-26.09,22.25c-7.44,6.8-14.84,13.65-21.95,20.81c-4.77,4.81-9.51,9.65-14.26,14.48
		c-1.37,1.39-2.71,2.82-4.06,4.22c-0.68,0.71-1.08,1.55-1.39,2.61C119.5,537.21,120.67,536.78,121.79,536.35z M466.4,522.98
		c-1.69-8.42-5.23-16.02-10.29-22.92c-0.88-1.2-1.82-2.38-2.81-3.49c-1.39-1.56-2.27-1.56-3.71-0.11c-0.41,0.41-0.8,0.86-1.16,1.32
		c-6.32,8.24-13.03,16.18-19.2,24.55c-5.15,6.99-9.53,14.43-13.18,22.29c-5.8,12.51-9.49,25.67-11.79,39.24
		c-0.2,1.16-0.2,2.31,0.04,3.48c0.47,2.26,2.09,3.51,3.91,4.6c7.44,4.43,14.54,9.38,21.76,14.14c0.76,0.5,1.49,1.05,2.27,1.5
		c1.55,0.89,2.49,0.59,3.34-0.99c0.18-0.34,0.31-0.71,0.47-1.07c1.35-3.02,2.61-6.09,4.22-8.99c3.89-6.99,8.26-13.69,12.37-20.54
		c3.14-5.23,6.53-10.32,9.03-15.92c3.68-8.23,5.79-16.79,5.77-26.94C467.61,530.42,467.15,526.68,466.4,522.98z M428.52,614.3
		c-0.93-0.71-1.91-1.35-2.87-2.02c-5.48-3.84-10.79-7.93-16.43-11.54c-11.94-7.63-24.2-14.73-36.31-22.07
		c-1.67-1.01-3.36-1.98-5.07-2.89c-1.06-0.56-1.08-0.49-1.43,0.67c-0.42,1.36-0.03,2.7,0.05,4.05c0.47,7.7,2.13,15.16,4.79,22.38
		c3.7,10.05,9.86,18.15,18.95,24.05c8.94,5.8,17.97,11.47,26.98,17.17c0.82,0.52,1.62,1.1,2.5,1.52c1.44,0.7,2.14,0.42,2.77-1.01
		c0.21-0.47,0.37-0.97,0.52-1.47c2.23-7.53,4.51-15.04,7.16-22.44c0.31-0.86,0.63-1.72,0.54-2.49
		C430.71,616.35,429.74,615.24,428.52,614.3z M466.79,594.39c-1.08-3.75-2.45-7.4-4.54-10.74c-1.14-1.83-2-1.87-3.15-0.12
		c-2.36,3.58-4.78,7.13-6.98,10.81c-3.94,6.59-7.16,13.55-10.24,20.58c-4.68,10.66-8.54,21.61-11.84,32.76
		c-0.75,2.53-0.26,3.76,1.88,5.4c2.69,2.05,5.38,4.08,8.04,6.17c1.53,1.2,2.94,2.55,4.47,3.76c1.4,1.1,2.63,0.89,3.61-0.56
		c1.21-1.78,2.67-3.35,3.98-5.05c7.38-9.54,12.53-20.16,15.36-31.89c1.11-4.61,1.9-9.28,1.97-12.53
		C469.22,605.67,468.39,599.96,466.79,594.39z M613.98,365.44c-2.3,0.8-4.61,1.61-6.91,2.41c-0.55,0.19-1.08,0.39-1.54,0.8
		c-0.57,0.51-0.6,0.93-0.01,1.42c0.74,0.61,1.66,0.73,2.53,0.93c3.04,0.7,6.12,1.22,9.12,2.07c4.57,1.29,9.15,2.4,13.9,2.79
		c5.13,0.42,10.25,0.59,15.36-0.1c4.86-0.66,9.3-2.42,13.13-5.52c5.08-4.1,8.46-9.2,9.08-15.87c-0.71-0.34-1.25-0.12-1.82,0
		c-3.25,0.65-6.34,1.86-9.52,2.76c-4.6,1.3-9.23,2.09-14.03,1.69c-5.23-0.43-10.47-0.73-15.7-1.16c-5.55-0.45-11.09-1.07-16.64-1.46
		c-3.62-0.25-7.24-0.67-10.86-0.77c-5.45-0.16-10.92-0.28-16.33,0.7c-4.03,0.73-7.28,2.52-8.67,6.6c-0.88,2.59-1.12,5.33-1.19,8.06
		c-0.05,1.82,1.01,2.38,2.67,1.54c0.29-0.15,0.55-0.35,0.82-0.53c8.08-5.29,17.09-7.08,26.57-6.87c2.53,0.06,5.06,0.12,7.6,0.19
		c0.78,0.02,1.56,0,2.34,0C613.92,365.23,613.95,365.34,613.98,365.44z M459.92,684.14c-0.91-5.7-1.83-11.39-2.75-17.09
		c-0.11-0.65-0.41-1.23-0.74-1.79c-0.33-0.54-0.68-0.68-1.26-0.26c-0.86,0.63-1.54,1.41-2.12,2.28
		c-4.84,7.31-9.98,14.42-14.15,22.17c-4.29,7.97-7.83,16.26-10.96,24.74c-0.48,1.29-0.22,2.34,0.79,3.33
		c3.01,2.97,6.03,5.92,8.8,9.13c1.47,1.71,2.59,1.57,3.92-0.29c1.39-1.96,2.75-3.94,4.12-5.91c3.67-5.28,7.31-10.59,9.88-16.53
		c2.63-6.07,4.27-12.37,4.55-19C459.97,684.66,459.96,684.4,459.92,684.14z M408.44,670.58c4.97,8.54,12.23,14.77,20.37,20.08
		c1.66,1.08,2.63,0.8,3.65-1.01c3.05-5.45,6.09-10.89,9.28-16.26c1.08-1.82,0.8-2.94-0.99-4.14c-8.67-5.86-17.13-12.05-26.47-16.87
		c-3.12-1.61-6.2-3.29-9.33-4.88c-1.45-0.74-2.01-0.37-2.11,1.27c-0.05,0.84-0.01,1.69-0.01,2.96
		C402.87,657.23,405.08,664.8,408.44,670.58z M328.73,484.92c-2.35,2.15-4.64,4.37-6.97,6.55c-8.12,7.56-17.07,13.81-27.71,17.36
		c-0.86,0.29-1.67,0.65-2.28,1.45c0.73,0.84,1.39,1.58,2.4,2.01c7.32,3.1,14.86,4.89,22.9,4.37c4.06-0.26,7.98-1.01,11.85-2.17
		c2.19-0.66,2.64-1.32,2.64-3.68c0-9.24,0-18.48,0-28C330.48,483.61,329.54,484.19,328.73,484.92z M415.24,731.85
		c2.09,1.57,4.34,2.84,6.67,4.01c3.55,1.78,6.56,4.18,8.59,7.68c1.02,1.75,1.86,1.81,3.36,0.38c3.16-3.01,3.93-7.29,2.02-11.25
		c-2.23-4.63-5.89-7.88-10.2-10.46c-3.45-2.07-7.03-3.93-10.24-6.39c-0.36-0.28-0.77-0.49-1.18-0.69c-1.69-0.82-2.54-0.52-3.18,1.21
		c-0.67,1.78-0.96,3.64-0.83,5.27C410.26,726.57,411.5,729.03,415.24,731.85z M428.23,752.77c-1.47-3.86-3.32-7.48-6.54-10.21
		c-2.52-2.14-5.12-4.19-7.67-6.29c-0.75-0.62-1.42-1.33-2.18-1.93c-0.56-0.45-1.28-0.53-1.73,0.09c-1.75,2.41-2.97,5.03-2.74,8.1
		c0.18,2.3,1.32,4.14,2.89,5.8c2.03,2.13,4.56,3.64,6.7,5.63c1.8,1.67,3.17,3.57,3.58,6.07c0.28,1.68,1.5,2.31,2.93,1.38
		c2.9-1.88,4.47-4.62,4.81-8.12C428.28,753.16,428.3,752.95,428.23,752.77z M350.61,328.36c-5.48-1.29-10.95-2.6-16.42-3.9
		c-2.39-0.57-4.78-1.17-7.17-1.73c-2.06-0.49-2.71-0.06-3.09,2.02c-0.12,0.64-0.2,1.28-0.31,1.92c-0.47,2.68-0.96,5.35-1.4,8.04
		c-0.31,1.92,0.19,2.46,2.14,2.39c0.65-0.02,1.3-0.09,1.93-0.23c8.1-1.78,16.2-3.59,24.3-5.37c1.23-0.27,2.35-0.7,3.31-1.77
		C352.84,329.01,351.75,328.63,350.61,328.36z M426.33,695.56c-1.72-1.16-3.43-2.34-5.15-3.52c-1.34-0.92-2.69-1.81-4-2.76
		c-0.65-0.47-1.16-0.34-1.72,0.13c-1.22,1.03-2.1,2.29-2.74,3.74c-2.93,6.61,0.17,15.19,6.23,18.9c2.12,1.3,3.5,0.9,4.38-1.44
		c1.19-3.16,2.28-6.35,3.41-9.53c0.37-1.04,0.74-2.08,1.04-2.95C427.79,696.84,427.18,696.14,426.33,695.56z M415.05,762.77
		c-1.48-2.52-2.97-5.03-4.44-7.56c-0.36-0.62-0.88-0.72-1.5-0.56c-0.72,0.19-1.3,0.55-1.56,1.31c-0.93,2.77-1.96,5.49-2.49,8.38
		c-0.32,1.75,0.11,3.29,1.07,4.6c1.92,2.62,5.7,3.09,7.8-0.21c0.95-1.49,1.04-3.18,1.33-4.66
		C415.26,763.51,415.26,763.12,415.05,762.77z"/>
</g>
</svg>
