<?xml version="1.0" encoding="utf-8"?>
<!-- Generator: Adobe Illustrator 27.9.0, SVG Export Plug-In . SVG Version: 6.00 Build 0)  -->
<svg version="1.1" id="Layer_1" xmlns="http://www.w3.org/2000/svg" xmlns:xlink="http://www.w3.org/1999/xlink" x="0px" y="0px"
	 viewBox="0 0 800 800" style="enable-background:new 0 0 800 800;" xml:space="preserve">
<style type="text/css">
	.st0{fill-rule:evenodd;clip-rule:evenodd;fill:#115740;}
	.st1{fill-rule:evenodd;clip-rule:evenodd;fill:#FFFFFF;}
</style>
<g>
	<path class="st0" d="M416.5,478.51h-4.43l-1.21,1.21c0.4,7.64,0.4,15.31,0,22.95l1.21,1.21h4.43l1.21-1.21
		c0.81-7.63,0.81-15.32,0-22.95L416.5,478.51z M389.53,478.51h-4.43l-1.21,1.21c-0.8,7.63-0.8,15.32,0,22.95l1.21,1.21h4.43
		l1.21-1.21c-0.4-7.64-0.4-15.31,0-22.95C389.93,479.32,389.53,478.92,389.53,478.51z M402.81,478.51h-4.43l-1.21,1.21v22.95
		l1.21,1.21h4.43l1.21-1.21v-22.95L402.81,478.51z M464.01,319.48c1.3-0.03,2.56-0.45,3.62-1.21c0.99-1.08,1.81-2.3,2.42-3.63
		l4.83-9.26c0.69-0.94,1.1-2.06,1.21-3.22c0-1.61-0.81-2.42-2.82-2.42c-1.19-0.03-2.35,0.4-3.22,1.21
		c-1.01,1.15-1.95,2.36-2.82,3.62l-4.83,9.26c-0.69,0.95-1.11,2.06-1.21,3.22C461.19,318.67,462.4,319.47,464.01,319.48
		L464.01,319.48z M672.57,391.95h-48.72c1.27-2.21,1.97-4.7,2.02-7.25c0-3.63-4.03-6.04-11.28-6.04c-8.86,0-13.29,3.63-13.29,7.65
		c0,3.63,4.03,4.83,24.97,9.66c20.93,4.83,28.59,9.66,28.59,20.94c-0.28,10.24-4.63,19.95-12.08,26.98
		c-10.06,10.06-25.36,16.51-62.41,16.51c-44.29,0-57.17-7.25-57.17-22.55c-0.09-4.94,1.16-9.81,3.62-14.09h49.52
		c-1.42,2.44-2.11,5.23-2.01,8.05c0,4.03,3.62,6.44,11.27,6.44c8.45,0,13.29-3.22,13.29-8.46c0-4.83-4.43-6.04-26.57-11.67
		c-20.93-5.23-26.98-9.26-26.98-20.54c0.6-9.38,4.78-18.17,11.68-24.56c10.87-10.87,26.17-16.51,62.41-16.51
		c40.26,0,55.16,6.44,55.16,21.74C675.3,382.92,674.61,387.7,672.57,391.95L672.57,391.95z M472.46,454.76
		c-5.41-3.85-11.06-7.35-16.91-10.47c-10.7-5.62-22.27-9.43-34.22-11.27l26.17-49.52h-33.42l13.29-25.36h126.42l-13.29,25.36h-30.2
		L472.46,454.76L472.46,454.76z M424.96,502.67c0.4,0.4,0.8,0.81,0.8,1.21h4.43c0.46-0.5,1-0.91,1.61-1.21
		c0.4-2.42,0.8-4.83,1.21-6.84c4.43,0,8.86,0,13.29-0.4c14.49-0.4,28.59-0.81,43.08-2.02l2.41,2.82
		c-3.22,10.87-16.91,24.16-38.25,35.43c-16.29,8.09-34.16,12.49-52.34,12.88h-0.4c-18.18-0.39-36.05-4.79-52.34-12.88
		c-21.34-11.28-35.03-24.16-38.25-35.43l2.42-2.82c14.49,0.81,28.59,1.61,43.08,2.02l14.9,0.4c0.01,2.34,0.42,4.65,1.21,6.84
		c0.46,0.5,1.01,0.91,1.61,1.21h4.43c0.4-0.4,0.8-0.81,0.8-1.21c-1.21-7.47-1.21-15.08,0-22.55c-0.4-0.4-0.8-0.8-0.8-1.21h-4.43
		c-0.46,0.5-1.01,0.91-1.61,1.21l-1.21,6.85c-4.83,0-10.07,0-14.9,0.4c-14.5,0.4-28.59,0.8-43.08,2.01l-2.42-3.22v-0.81
		c3.22-10.87,16.91-24.16,38.25-35.43c16.22-8.28,34.13-12.69,52.34-12.88h0.4c18.19,0.35,36.07,4.75,52.34,12.88
		c21.34,11.27,35.03,24.56,38.25,35.43v1.21l-2.41,3.22c-14.5-0.81-28.59-1.61-43.08-2.02l-13.29-0.4c0.03-2.34-0.38-4.66-1.21-6.84
		c-0.46-0.5-1.01-0.91-1.61-1.21h-4.43c-0.4,0.4-0.8,0.8-0.8,1.21C426.16,487.86,426.16,495.34,424.96,502.67L424.96,502.67z
		 M299.74,358.53H417.3l-13.29,24.97h-60.39l-6.84,12.08h60.8l-12.88,24.16H324.3l-6.84,12.48h62.41l-0.4,0.4
		c-12.23,1.99-24.05,5.93-35.03,11.68c-7.08,3.68-13.82,8-20.13,12.88H247L299.74,358.53L299.74,358.53z M181.37,459.99
		c-40.26,0-56.77-9.67-56.77-27.78c0-9.26,2.42-15.7,7.65-25.77l6.44-12.08h51.94l-12.88,24.56c-1.55,2.72-2.51,5.74-2.82,8.86
		c0,3.62,1.61,6.04,6.44,6.04c6.84,0,10.07-4.43,14.5-12.88l33.02-63.21h60.8l-27.78,52.74c-8.05,14.9-12.88,22.95-20.53,31
		C229.69,453.95,210.36,459.99,181.37,459.99L181.37,459.99z M199.89,291.29h20.13l3.63,15.7l8.05-15.7h17.72l-19.33,36.23h-19.32
		l-3.63-16.91l-8.86,16.91h-17.72L199.89,291.29L199.89,291.29z M300.95,291.29l-4.83,9.26h-22.14l-2.82,4.43h20.53l-4.43,8.86
		h-20.53l-2.42,4.43h22.95l-4.83,9.26h-44.29l19.33-36.23L300.95,291.29L300.95,291.29z M325.91,291.29l-4.43,16.91l12.48-16.91
		h20.54l-4.83,16.91l13.29-16.91h19.73l-32.61,36.23h-21.74l3.22-14.09l-12.08,14.09h-21.74l6.84-36.23H325.91L325.91,291.29z
		 M397.58,291.29h22.14l-0.4,11.27l11.27-11.27h20.53l-28.99,24.96l-6.04,11.27h-22.95l6.44-12.08L397.58,291.29z M492.59,293.3
		c3.18,1.19,5.28,4.26,5.23,7.65c-0.18,3.22-1,6.36-2.42,9.26c-1.87,4.29-4.46,8.24-7.65,11.67c-4.83,4.83-12.88,6.84-24.56,6.84
		c-6.17,0.47-12.38-0.49-18.12-2.82c-3.18-1.19-5.28-4.26-5.23-7.65c0.18-3.22,1-6.36,2.42-9.26c1.87-4.29,4.46-8.24,7.65-11.68
		c4.83-4.83,12.88-6.84,24.56-6.84C480.65,290.1,486.83,291.06,492.59,293.3L492.59,293.3z M544.13,291.29
		c3.28-0.36,6.57,0.5,9.26,2.41c1.31,1.43,2.03,3.3,2.01,5.23c0.02,3.44-1.27,6.75-3.62,9.26c-1.14,1.2-2.51,2.16-4.03,2.82
		c-1.83,0.7-3.72,1.24-5.64,1.61c3.62,1.21,5.23,2.82,5.23,4.83c-0.07,1.55-0.48,3.06-1.21,4.43l-2.82,5.64h-22.55l3.62-7.25
		c0.45-0.73,0.72-1.56,0.81-2.42c0-1.61-0.81-2.42-2.82-2.42h-3.22l-6.44,11.68h-21.74l19.32-36.24h33.82L544.13,291.29
		L544.13,291.29z M591.24,291.29l-8.86,16.51l18.12-16.51h20.53l-20.13,17.72l2.42,18.52h-21.74l-1.21-16.11l-8.45,16.11h-22.55
		l19.32-36.23H591.24z M760.34,381.08c-12.88-43.08-69.25-94.21-150.58-137.3c-72.07-37.85-157.02-51.13-208.15-51.13h-2.42
		c-51.54,0-136.89,13.28-208.56,51.13c-81.73,42.68-137.7,93.81-150.98,137.3c-1.15,6.24-1.69,12.58-1.61,18.92
		c-0.08,6.35,0.46,12.68,1.61,18.92c12.88,43.08,69.25,94.21,150.58,137.3c72.47,38.25,157.83,51.54,209.36,51.13h1.61
		c51.13,0,136.49-13.29,208.15-51.13c81.33-42.68,137.7-93.81,150.58-137.3c1.15-6.24,1.69-12.58,1.61-18.92
		C761.76,393.67,761.35,387.33,760.34,381.08L760.34,381.08z M531.25,306.19l0.8-1.61c0.29-0.63,0.43-1.32,0.4-2.01
		c0-1.21-0.8-1.61-2.41-1.61h-3.22l-4.83,8.45h4.03C528.18,309.25,530.13,308.05,531.25,306.19L531.25,306.19z"/>
	<path class="st1" d="M344.43,444.69c11-5.69,22.82-9.63,35.03-11.67l0.4-0.81h-62.41l6.84-12.48h60.8l12.88-24.16h-60.8l6.84-12.08
		h60.39l13.28-24.97H299.74l-52.74,99.05h76.9C330.41,452.78,337.27,448.47,344.43,444.69L344.43,444.69z M289.68,358.53h-60.8
		l-33.02,63.21c-4.43,8.45-8.05,12.88-14.5,12.88l-0.82,0.06c-3.09,0-5.64-2.54-5.64-5.63l0.02-0.47c0.25-3.13,1.21-6.16,2.82-8.86
		l12.88-24.56h-51.94l-6.44,12.07c-4.99,7.67-7.64,16.62-7.65,25.77c0,18.12,16.51,27.78,56.77,27.78
		c28.99,0,48.31-6.04,59.99-17.72c8.05-8.05,12.88-16.11,20.53-31L289.68,358.53z M620.23,356.12c-36.64,0-51.54,5.64-62.41,16.51
		c-6.89,6.39-11.07,15.18-11.67,24.56c0,11.27,6.04,15.3,26.98,20.53c22.14,5.64,26.57,6.84,26.57,11.68
		c0,5.23-4.83,8.45-13.29,8.45c-7.65,0-11.27-2.42-11.27-6.44c0.1-2.8,0.78-5.54,2.02-8.05h-49.52c-2.23,4.37-3.47,9.19-3.63,14.09
		c0,15.3,12.88,22.54,57.17,22.54c37.44,0,52.34-6.44,62.41-16.51c7.52-6.98,11.88-16.72,12.08-26.98
		c0-11.27-7.65-16.11-28.59-20.93c-20.94-4.83-24.97-6.44-24.97-9.66c0-4.03,4.43-7.65,13.29-7.65c7.25,0,11.27,2.42,11.27,6.04
		c-0.05,2.55-0.74,5.04-2.01,7.25h48.72c1.93-4.44,2.89-9.25,2.82-14.09C675.38,362.55,660.89,356.11,620.23,356.12L620.23,356.12
		L620.23,356.12z M417.71,502.67l-1.21,1.21h-4.43l-1.21-1.21c0.4-7.64,0.4-15.31,0-22.95l1.21-1.21h4.43l1.21,1.21
		C418.51,487.35,418.51,495.04,417.71,502.67z M404.02,502.67l-1.21,1.21h-4.43l-1.21-1.21v-22.95l1.21-1.21h4.43l1.21,1.21
		C404.42,487.36,404.42,495.03,404.02,502.67z M390.33,502.67l-1.21,1.21h-4.43l-1.21-1.21c-0.8-7.63-0.8-15.32,0-22.95l1.21-1.21
		h4.43l1.21,1.21C389.93,487.36,389.93,495.03,390.33,502.67z M430.19,478.92c0.46,0.5,1,0.91,1.61,1.21
		c0.4,2.42,0.81,4.83,1.21,6.85c4.43,0,8.86,0,13.29,0.4c14.49,0.4,28.59,0.8,43.08,2.01l2.41-3.22v-1.21
		c-3.22-10.87-16.91-24.16-38.25-35.43c-16.29-8.09-34.16-12.49-52.34-12.88h-0.4c-18.18,0.4-36.05,4.8-52.34,12.88
		c-21.34,11.27-35.03,24.56-38.25,35.43v0.81l2.42,3.22c14.49-0.81,28.59-1.61,43.08-2.02l14.9-0.4c0.01-2.33,0.42-4.65,1.21-6.84
		c0.46-0.5,1.01-0.91,1.61-1.21h4.43c0.4,0.4,0.8,0.81,0.8,1.21c-1.21,7.47-1.21,15.08,0,22.55c-0.4,0.4-0.8,0.8-0.8,1.21h-4.43
		c-0.46-0.5-1.01-0.91-1.61-1.21l-1.21-6.84c-4.83,0-10.07,0-14.9-0.4c-14.5-0.4-28.59-0.8-43.08-2.01l-2.42,2.82
		c3.22,10.87,16.91,24.16,38.25,35.43c16.22,8.28,34.13,12.69,52.34,12.88h0.4c18.19-0.35,36.07-4.76,52.34-12.88
		c21.34-11.27,35.03-24.56,38.25-35.43l-2.41-2.82c-14.5,0.81-28.59,1.61-43.08,2.01l-13.29,0.4c0.03,2.34-0.38,4.66-1.21,6.84
		c-0.46,0.5-1.01,0.91-1.61,1.21h-4.43c-0.4-0.4-0.8-0.81-0.8-1.21c1.21-7.47,1.21-15.08,0-22.55c0.4-0.4,0.8-0.8,0.8-1.21
		C427.21,478.86,428.7,479,430.19,478.92L430.19,478.92z M761.95,400c0.08,6.35-0.46,12.68-1.61,18.92
		c-12.88,43.08-69.25,94.21-150.58,137.3c-72.07,37.85-157.02,51.13-208.15,51.13h-1.61c-51.13,0-136.89-13.29-209.36-51.13
		c-81.33-42.68-137.7-93.81-150.58-137.3c-1.15-6.24-1.69-12.58-1.61-18.92c-0.08-6.34,0.46-12.68,1.61-18.92
		c12.88-43.48,68.85-94.62,150.58-137.3c72.07-37.85,157.02-51.13,208.15-51.13h2.42c51.13,0,136.09,13.28,208.15,51.13
		c81.33,42.68,137.7,93.81,150.58,137.3C761.23,387.3,761.9,393.64,761.95,400L761.95,400z M780.47,376.65l-0.4-1.21
		c-14.5-49.12-73.28-103.88-161.05-150.18c-75.29-39.46-164.27-53.55-217.82-53.55h-2.42c-53.55,0-142.53,14.09-217.82,53.55
		C92.79,271.56,34.41,326.32,19.92,375.44l-0.4,1.21c-2.68,15.45-2.68,31.25,0,46.7l0.4,1.21c14.5,49.12,73.28,103.88,161.05,150.18
		c75.29,39.46,164.27,53.55,217.82,53.55h2.42c53.55,0,142.53-14.09,217.82-53.55c87.77-46.3,146.55-101.06,161.05-150.18l0.4-1.21
		c1.47-7.69,2.14-15.52,2.02-23.35C782.43,392.18,781.76,384.37,780.47,376.65L780.47,376.65z M207.13,311.02l3.63,16.91h18.92
		l19.32-36.24h-17.72l-8.05,15.7l-3.22-16.11h-20.13l-19.32,36.23h17.72L207.13,311.02L207.13,311.02z M554.2,358.53H427.77
		l-13.29,25.36h33.42l-26.17,49.52c11.86,2.22,23.37,6.01,34.22,11.27c5.83,3.16,11.48,6.66,16.91,10.47l37.85-70.86h30.2
		L554.2,358.53L554.2,358.53z M571.91,327.93l8.45-16.11l1.21,16.11h21.74l-2.42-18.52l20.13-17.72H600.5l-18.12,16.51l8.86-16.51
		h-22.14l-19.33,36.24H571.91L571.91,327.93z M282.02,327.93l4.83-9.26h-22.95l2.41-4.43h20.94l4.83-8.86h-20.93l2.42-4.43h22.14
		l4.83-9.26h-43.08l-19.33,36.24L282.02,327.93L282.02,327.93z M415.69,327.93l6.04-11.28l28.99-24.96h-20.53l-11.28,11.27
		l0.4-11.27h-22.15l1.61,24.56l-6.44,12.08h23.35V327.93z M462.4,313.43l4.83-9.26c0.6-1.44,1.57-2.68,2.82-3.63
		c0.88-0.8,2.03-1.24,3.22-1.21c2.01,0,2.82,0.8,2.82,2.41c-0.1,1.16-0.52,2.28-1.21,3.22l-4.83,9.26
		c-0.61,1.33-1.42,2.55-2.42,3.62c-1,0.87-2.3,1.31-3.62,1.21c-2.02,0-2.82-0.8-2.82-2.42C461.42,315.52,461.83,314.43,462.4,313.43
		L462.4,313.43z M442.27,309.01c-1.46,2.88-2.28,6.03-2.42,9.26c-0.16,3.42,1.99,6.55,5.23,7.65c5.79,2.13,11.95,3.08,18.12,2.82
		c11.68,0,19.73-2.41,24.56-6.84c3.19-3.43,5.78-7.38,7.65-11.67c1.46-2.88,2.28-6.04,2.42-9.26c0.16-3.42-1.99-6.56-5.23-7.65
		c-5.79-2.12-11.95-3.08-18.12-2.82c-11.68,0-19.73,2.42-24.56,6.84C446.82,300.83,444.24,304.76,442.27,309.01L442.27,309.01z
		 M319.87,327.93l12.08-14.09l-3.22,14.09h21.74l32.61-36.24h-19.73l-13.29,16.91l4.83-16.91h-20.53l-12.48,16.91l4.43-16.91h-20.94
		l-6.84,36.24H319.87z M527.22,300.55h3.22c1.61,0,2.42,0.4,2.42,1.61c0.03,0.69-0.11,1.38-0.4,2.01l-0.81,1.61
		c-1.21,2.02-2.42,3.22-4.43,3.22h-4.03L527.22,300.55z M512.73,327.93l6.44-11.68h3.22c2.01,0,2.82,0.81,2.82,2.42
		c-0.08,0.85-0.36,1.68-0.81,2.42l-3.62,7.25h22.14l2.82-5.64c0.73-1.37,1.14-2.88,1.21-4.43c0-2.42-1.61-4.03-5.23-4.83
		c1.95-0.24,3.85-0.78,5.64-1.61c1.5-0.7,2.86-1.66,4.03-2.82c2.41-2.47,3.72-5.81,3.63-9.26c0.09-1.95-0.64-3.85-2.01-5.23
		c-2.68-1.91-5.98-2.77-9.26-2.42h-33.82l-19.33,36.24h22.15L512.73,327.93L512.73,327.93z"/>
</g>
</svg>
