<?xml version="1.0" encoding="utf-8"?>
<!-- Generator: Adobe Illustrator 27.9.0, SVG Export Plug-In . SVG Version: 6.00 Build 0)  -->
<svg version="1.1" id="Layer_1" xmlns="http://www.w3.org/2000/svg" xmlns:xlink="http://www.w3.org/1999/xlink" x="0px" y="0px"
	 viewBox="0 0 800 800" style="enable-background:new 0 0 800 800;" xml:space="preserve">
<style type="text/css">
	.st0{fill:#10181F;}
	.st1{fill:#FFFFFF;}
	.st2{fill:#D3BC8D;}
</style>
<g>
	<path class="st0" d="M650.56,319.71c-56.96-33.15-112.96-25.42-155.28-6.6c-1.93-13.84-5.63-29.12-11.59-47.15
		c-9.01-26.71-18.99-52.13-27.68-74.66c-11.42-29.45-20.11-54.87-24.94-71.76L400.18,13.5l-32.02,106.2
		c-4.99,16.73-13.52,42.32-24.78,71.93c-8.69,22.37-18.5,47.95-27.35,74.5c-6.11,18.02-9.65,33.31-11.59,47.31
		c-42.48-18.83-98.48-26.39-155.28,6.76c-46.34,27.19-71.28,74.34-64.85,123.26c5.79,44.25,36.2,79.33,79.17,91.07l32.02,8.85
		l7.88-32.34c1.13-4.34,12.71-44.73,49.08-44.09c25.26,0.48,46.18,22.85,56.64,37.33c-3.38,10.14-5.15,22.37-3.38,35.56
		l-14.32-18.99l-25.75,19.15c-23.17,17.38-56.96,60.02-36.04,110.54c9.01,21.88,28.64,37.01,55.03,42.16
		c16.09,3.22,34.43,2.57,51.33-1.29c6.76,21.4,18.99,47.47,41.03,70.64l23.33,24.46l23.33-24.46c22.21-23.33,34.27-49.24,40.87-70.8
		c17.06,3.7,35.4,4.51,51.49,1.13c26.23-5.15,45.86-20.27,54.87-42.32c20.76-50.53-13.19-93.17-36.37-110.38l-25.91-19.15
		l-14.16,18.99c1.77-13.03-0.16-25.26-3.54-35.56c10.46-14.48,31.38-36.85,56.64-37.33c36.37-0.8,47.95,39.58,49.24,44.09
		l7.88,32.34c0-0.16,31.86-9.17,31.86-9.17c43.12-11.75,73.37-46.82,79.17-91.23C722,393.89,697.06,346.74,650.56,319.71"/>
	<path class="st1" d="M389.56,124.2c-3.86,18.5-14,44.73-25.75,75.14c-8.53,22.37-18.34,47.63-27.03,73.86
		c-8.53,25.1-11.91,43.93-11.91,61.31c0,5.63,0.64,11.1,1.29,16.73c-32.34-22.37-96.22-52.78-165.9-12.07
		c-38.62,22.69-59.37,61.47-54.23,101.37c4.67,35.4,28.96,63.4,63.24,72.89l10.3,2.74l2.57-10.3c0.64-2.57,15.93-61.95,70.8-60.82
		c44.09,0.97,73.05,43.93,80.78,57.12c-3.7,6.76-6.76,16.25-6.76,27.03c0,11.75,4.02,24.94,14.16,38.3
		c-4.02,5.31-10.62,12.07-18.34,12.71c-11.1,0.97-22.21-10.62-29.61-20.44l-6.11-8.37l-8.21,6.28
		c-16.9,12.55-44.73,46.34-28.96,84.48c6.28,15.13,19.79,25.26,38.94,28.96c19.95,4.02,45.05,0.48,62.75-7.72
		c3.54,20.27,13.19,54.23,41.35,83.51l7.4,7.72l7.4-7.88c28-29.29,37.65-63.24,41.19-83.51c17.86,8.21,42.96,11.75,62.75,7.72
		c19.31-3.86,32.66-14,38.94-29.12c15.61-38.14-12.23-72.09-29.12-84.48l-8.37-6.11l-6.11,8.21c-7.24,9.82-18.5,21.4-29.45,20.6
		c-7.72-0.64-14.32-7.4-18.34-12.71c9.98-13.36,14-26.55,14-38.14c0-10.78-3.22-20.44-6.92-27.19
		c7.72-13.36,36.53-56.32,80.78-57.28c54.87-1.29,70.32,58.09,70.96,60.66l2.57,10.3l10.14-2.9c34.43-9.49,58.57-37.49,63.24-73.05
		c4.99-39.91-15.77-78.52-54.55-101.21c-69.83-40.55-133.55-9.82-165.9,12.55c0.64-5.31,1.29-10.78,1.29-16.25
		c0-17.7-3.54-36.69-11.91-61.79c-8.85-26.23-18.67-51.49-27.19-73.7c-11.91-30.41-22.04-56.64-26.07-75.14L399.54,76.9
		L389.56,124.2"/>
	<path class="st0" d="M400.34,739.68c39.58-41.51,40.07-93.81,40.07-93.81c17.54,17.38,85.44,29.12,100.73-8.05
		c16.57-40.71-25.75-72.25-25.75-72.25c-41.19,55.19-68.71,1.13-68.71,1.13c31.22-33.79,7.72-64.2,7.72-64.2
		c2.09-6.28,36.85-66.94,92.36-68.06c64.2-1.45,81.26,68.39,81.26,68.39c67.26-18.5,80.29-112.31,6.28-155.28
		C540.5,293,458.59,376.19,458.59,376.19c7.72-31.22,9.82-54.55-5.47-99.92C432.2,214.63,406.78,159.6,399.7,126.3
		c-7.08,33.31-32.5,88.5-53.1,150.13c-15.29,45.54-13.03,68.71-5.47,99.92c0,0-81.9-83.03-175.71-28.32
		c-73.86,43.28-60.66,136.93,6.6,155.44c0,0,17.06-69.99,81.1-68.71c55.67,1.13,90.59,61.63,92.68,67.74c0,0-23.49,30.57,7.88,64.36
		c0,0-27.52,54.06-68.71-0.97c0,0-42.48,31.54-25.58,72.25c15.29,37.17,83.19,25.26,100.73,7.88c0,0,0.48,52.29,40.07,93.65"/>
	<path class="st2" d="M568.49,344.65c-76.27,0-139.02,86.73-139.02,86.73c2.74-14.16,35.4-78.04,5.95-154.31
		C405.82,200.64,399.7,169.9,399.7,169.9l-0.16,0.97v-0.8c0,0-5.95,30.73-35.24,107.16c-29.45,76.27,3.38,140.15,6.11,154.31
		c0,0-62.75-86.57-139.19-86.57c-76.43,0.16-139.99,87.05-69.35,138.38c0,0,20.6-64.04,91.72-64.2
		c52.46-0.16,104.91,56,107.16,83.83c0,0-23.98,33.95,9.33,62.11c0,0-36.04,75.79-85.92,21.24c0,0-38.46,47.95,11.75,59.7
		c39.91,9.17,79.01-31.22,79.01-31.22s-4.18,63.88,25.26,98.64v-0.32l0.16,0.32c29.45-34.92,25.1-98.8,25.1-98.8
		s39.26,40.39,79.01,31.06c50.2-11.75,11.75-59.7,11.75-59.7c-49.72,54.71-85.92-20.92-85.92-20.92
		c33.15-28.32,9.17-62.27,9.17-62.27c2.09-27.68,54.39-83.99,106.84-83.99c71.12,0,92.04,64.04,92.04,64.04
		C708.8,431.38,644.92,344.49,568.49,344.65"/>
</g>
</svg>
