<?xml version="1.0" encoding="utf-8"?>
<!-- Generator: Adobe Illustrator 27.9.0, SVG Export Plug-In . SVG Version: 6.00 Build 0)  -->
<svg version="1.1" id="Layer_1" xmlns="http://www.w3.org/2000/svg" xmlns:xlink="http://www.w3.org/1999/xlink" x="0px" y="0px"
	 viewBox="0 0 800 800" style="enable-background:new 0 0 800 800;" xml:space="preserve">
<style type="text/css">
	.st0{fill:#FFFFFF;}
	.st1{fill:#AD995D;}
	.st2{fill:#AA0000;}
</style>
<g>
	<ellipse class="st0" cx="400" cy="400" rx="388.94" ry="229.98"/>
	<ellipse cx="399.15" cy="401.69" rx="377.1" ry="219.83"/>
	<ellipse class="st1" cx="400.85" cy="404.23" rx="328.91" ry="202.92"/>
	<ellipse class="st2" cx="401.69" cy="400.85" rx="302.69" ry="189.4"/>
	<path d="M638.18,376.12h-0.83v-6.89h-6.05H517.28c-2.57-13.51-10.35-26.04-21.44-35.83c-10.92-12.56-26.79-22-44.85-25.59
		l-7.49-1.54c-17.33-3.64-31.01-6.53-86.08-6.25c0,0-10.6-0.36-20.87-1.72c-2.6-0.66-4.89-1.45-6.85-2.29
		c0.76-4.58,9.15-10.9,18.6-12.12c0.98-0.18,60.58-11.14,121.93,28.59l1.51,0.97h40.31v-61.7h-6.89v-6.89h-55.33
		c0,0-6.57,5.02-9.32,7.12c-15.93-3.99-93.95-21.06-161.32,8.43c-28.31,11.7-45.88,33.79-44.64,56.21
		c0.63,11.31,6.05,21.17,15.4,28.82c6.88,8.59,17.7,15.3,31.8,19.35c19.95,5.75,36.83,8.11,53.21,9.05v1.98v26.15h6.9v6.89h21.03
		c8.71,0,10.95,4.83,11.49,6.63c-26.85-1.76-67.68-9.4-97.73-37.22l-1.13-1.22h-0.21c-1.66-1.58-3.29-3.22-4.88-4.94l-1.8-1.95
		h-30.26v87.83h6.9v6.88h24.67c3.62,0.25,15.09-1.03,23-24.14c12.83,4.47,44.46,13.99,83.42,15.05v54.63
		c-1.36,18.34-41.77,24.09-55.86,24.65l-5.81,0.22v27.16h6.89v6.88H499v-25.99l-4.52-1.2c-0.81-0.2-1.58-0.42-2.36-0.63v-5.94
		l-5.54-0.48c-9.97-0.88-17.65-2.62-23.61-4.73c-11.15-6.26-13.06-11.34-13.3-12.15v-29.13h52.01c5.49,0.83,10.19,3.24,14.18,6.37
		c7.49,9.22,10.9,19.76,10.96,19.94l1.33,4.27l4.47,0.03h0.14c0.62,1.56,0.95,2.55,0.96,2.6l1.33,4.28h4.47h23.48V420.89h-6.06
		h-0.83v-6.9h-6.07h-21.74l-1.01,4.84c-7.29,35.11-47.89,34.59-83.99,29.33c7.07-1.92,14.18-4.25,21.28-7.07
		c19.33-7.68,33.83-18.13,42.88-30.37h77.93c5.44,0.17,10.05,1.53,13.94,4.07c8.18,12,7.35,29.63,7.35,29.84l-0.34,6.39h6.39h0.86
		c-0.01,0.28-0.01,0.47-0.01,0.5l-0.35,6.39l6.41,0.01h24.65v-81.81L638.18,376.12L638.18,376.12z"/>
	<path class="st0" d="M513.87,397.76h64.59c36.89,1.18,34.22,47.2,34.22,47.2h18.6v-69.67H519.81
		C519.81,375.29,519.55,390.88,513.87,397.76"/>
	<path class="st0" d="M382.41,457.26v53.5c-1.92,28.04-61.66,30.37-61.66,30.37v15.27h165.3v-15.27
		c-49.13-4.25-49.34-29.28-49.34-29.28v-35.72h58.72c26.86,3.83,37.18,37.49,37.18,37.49h17.41v-93.55H533.2
		c-11.69,56.35-98.05,31-104.43,32.42C428.76,452.47,407.49,457.78,382.41,457.26"/>
	<path class="st0" d="M433.99,365.22c22.44,6.58,24.53,23.7,11.39,39.73c-16.81,15.87-42.49,16.52-42.49,16.52
		s-86.45,9.35-136.91-45.24h-21.54v75.69h18.88c0,0,11.51,1.76,18.89-25.97c0,0,88.77,36.12,173.21,2.6
		c81.78-32.49,50.66-103.64-5.61-114.79c-21.64-4.29-30.25-7.99-92.35-7.67c0,0-11.21-0.36-22.13-1.84
		c-34.23-8.56-14.76-30.68,5.31-33.28c0,0,61.67-12.16,126,29.51h32.46v-49.58h-47.22l-10.03,7.67c0,0-87.54-24.44-160.23,7.37
		c-48.86,20.2-58.43,70.73-5.07,86.11c46.99,13.54,76.95,7.87,124.57,9.69C414.42,362.27,425.99,362.79,433.99,365.22"/>
	<path class="st0" d="M363.45,395.91h-22.43v-20.09c17.39,0,52.84,0.14,77.93,0c25.25,0,28.61,14.59,17.97,24.46
		c-10.03,9.3-31.03,15.93-55.9,11.4C381.03,411.69,378.98,395.91,363.45,395.91"/>
</g>
</svg>
