<?xml version="1.0" encoding="utf-8"?>
<!-- Generator: Adobe Illustrator 27.9.0, SVG Export Plug-In . SVG Version: 6.00 Build 0)  -->
<svg version="1.1" id="Layer_1" xmlns="http://www.w3.org/2000/svg" xmlns:xlink="http://www.w3.org/1999/xlink" x="0px" y="0px"
	 viewBox="0 0 800 800" style="enable-background:new 0 0 800 800;" xml:space="preserve">
<style type="text/css">
	.st0{fill:#FFFFFF;}
	.st1{fill:#002244;}
	.st2{fill:#69BE28;}
	.st3{fill:#A5ACAF;}
</style>
<g>
	<path class="st0" d="M657.28,507.75c-34.69-6.94-80.22-8.78-99.45-8.78l-457.64,0.1c-28.47,0-57.91,0-73.03-23.27
		c-15.33-23.62-7-46.85,18.85-93.33c1.93-3.46,80.31-150.83,80.31-150.83s8.01,9.95,16.08,16.29c7.97,6.25,16.16,9.58,38,9.58
		c38.79,0,289.01-0.55,291.56-0.56c50.79,0,102.09,5.26,135.34,41.72c17.25,1.84,72.96,9.21,118.87,31.16
		c26.86,12.83,44.59,32.01,51.29,55.42c2.03,7.09,3.03,14.53,3.03,22.25c0,22.23-8.32,46.85-24.64,72.43
		c-34.48,54.08-66.27,72.99-67.7,74c-19.59,13.78-38.57,14.43-38.57,14.43s17.1-19.44,22.86-38.87
		C678.21,510.05,657.28,507.75,657.28,507.75"/>
	<path class="st1" d="M720.52,341.67c-52.34-25.02-119.57-30.43-119.57-30.43c-29.32-35.84-78.9-41.16-128.99-41.16
		c0,0-252.31,0.55-291.56,0.55c-45.68,0-50.27-18.12-50.27-18.12L68.9,367.19h159.04c50.05,0,52.56-5.01,85.76-29.43
		c35.27-25.94,63.41-35.32,96.73-35.32c33.29,0,55.34,7.5,92.41,23.93c37.08,16.41,56.79,24.4,78.85,15.02
		c0,0-17.37,23.46-69.92,1.39c-52.55-22.04-66.62-26.74-98.55-26.74c-31.48,0-67.55,15.12-112.69,60.17l53.81,43.28
		c0,0-12.45,19.24-20.64,31.51c-8.17,12.28-7.41,20.48-3.05,26.47c4.37,6.01,9.87,8.73,29.78,8.73c19.91,0,179.53-0.37,197.39-0.37
		c15.53,0,64.09,1.46,102.01,9.03c50.36,10.08,17.88,52.53,17.88,52.53s33.71-22.2,67.07-74.52
		C782.01,414.51,772.84,366.69,720.52,341.67"/>
	<path class="st0" d="M628.06,351.07c-23.8-5.69-3.45-19.48-3.45-19.48c-34.25,6.92-46.99,34.86-49.94,42.67
		c-0.55,1.06-1.11,2.15-1.69,3.3c-18.95,38.13-36.02,36.08-68.37,36.08h-55.42c-44.89,0-65.79,22.25-87.31,60.14h25.35
		c23.17-34.5,40.66-43.8,86.49-46.38c104.71,0.06,188.19,30.09,232.31,53.06C768.77,375.1,675.65,357.66,628.06,351.07"/>
	<path class="st0" d="M433.16,473.38c11.71-17.7,35.52-23.72,73.92-21.5c94.74,5.49,149.22,23.94,191.54,39.71
		c-52.2-30.54-145.19-52.57-209.84-52.36c-31.59,0.09-59.18,5.62-75.39,34.16H433.16z"/>
	<path class="st0" d="M534.85,368.86c-12.35,17.22-28.61,23.11-74.74,19.95c-53.68-3.65-39.82-26.25-33.57-37.38
		c0,0-0.14,0-0.19-0.02c1.71-3.14,4.64-8.49,7.59-13.87c-41.12-2.54-71.15,29.11-71.15,29.11c30.65,30.33,51.1,33.49,78.84,33.49
		h51.84c48.2,0,59.85-21.69,64.27-31.34C549.43,369.84,541.94,369.75,534.85,368.86"/>
	<path class="st2" d="M511.44,363.73c-0.98-0.4-2-0.81-3.01-1.23c-4.73,4.98-12.89,7.87-20.78,6.85
		c-10.4-1.33-16.4-8.88-13.44-16.86c0.43-1.17,1.04-2.27,1.78-3.32c-5.32-2.09-10.68-4.1-15.9-5.92
		c-10.69,17.27-16.95,28.72,20.12,31.85c23.09,1.97,29.35-1.99,34.2-10.28C513.43,364.47,512.47,364.14,511.44,363.73"/>
	<path class="st3" d="M325.3,429.37c-19.12,33.18-26.71,40.81-13.27,56.56H100.19c-31.24,0-51.55-1.18-62-17.29
		c-10.16-15.64-8.07-30.57,19.32-79.8h180.1c31.01,0,38.98,1.77,55.81,14.82C310.24,416.74,325.3,429.37,325.3,429.37"/>
</g>
</svg>
