<svg xmlns="http://www.w3.org/2000/svg" viewBox="0 0 800 800"><defs><style>      .cls-1 {        fill: #a30d2d;      }      .cls-2 {        fill: #fff;      }      .cls-3 {        fill: #b1babf;      }      .cls-4 {        fill: #acb9bf;      }      .cls-5 {        fill: #dc4405;      }      .cls-6 {        fill: #b2babf;      }      .cls-7 {        fill: #0a0a08;      }    </style></defs><g><g id="Layer_1"><g><path class="cls-3" d="M160,244.7c6.1-1.1,12.4-3.3,18.1-5.6,3.9-1.6,10.3-4.6,9.6-9.7-.9-6.8-15.7-2-19.4-.8-7.5,2.4-14.8,5.2-22,8.5-.5-7.8,1-15.5,2.8-23-8.9-.6-17.7-3.6-26-6.9,8.1-2.4,16-5,23.3-9.3,15.4-9,29.3-20.4,44.6-29.6,22.6-13.8,47.2-24.3,72.6-31.8,22-6.6,45-10.8,68-11.9,46.8-2.3,94,7.8,138.3,22.3,32.3,10.6,63.4,24.3,96,34.2,31.4,9.5,62.4,14.5,95.2,12.1,22.8-1.7,45.5-7.3,66.5-16.4,5-2.2,9.9-4.8,14.7-7.6,4.6-17,8.6-34.3,11.3-51.7,2.7-17.1,3.1-34.7,2.3-51.9,11.9,15.2,19.3,34,23.9,52.6,11.6,46.4,8,95.8-2.5,142.1-15.8,69.7-47.3,137.9-84.4,198.8-37.5,61.7-78.3,121.2-119,180.8,10,10.4,13.5,25.1,11.9,39.1-1.8,14.8-9.2,28.2-20,38.3-11.9,11.2-29.3,16.3-45.4,16.6-4.3,0-8.6-.3-12.8-.5-.3,0-.5,0-.8.2-1.2.5-5.1,3-6.1,4.3-1.5,1.7-2.6,4.1-4.3,6.1-4.5,5.2-10.9,8.8-17.6,9.8-4.5.7-9.1.4-13.6-.6-13.1-2.9-21.7-13.7-23.1-26.6-.5-4.6.3-9.2,1.6-13.6l-3.6-15,10.3-9.2c5.2-23,14.9-45,28.8-64.1-8.6-4-14.1-11.8-15.2-21.3-1.2-10.3,4.5-20.9,14.1-25.2,10-4.6,21.6-2.9,31,2.4,2.4,1.3,4.6,2.9,6.6,4.8l28.9-42c-39.8,5.5-80.9,5.5-120.2-3.4-30.1-6.8-58.9-18.7-86.2-32.9-16.8-8.7-33-18.3-49.9-26.8-21.3-10.7-45.3-17-68.8-20.1-30-4.1-60.7-2.6-89.9,5.5-29.5,8.2-60.1,29.1-80.9,51.3-5.1,5.5-10.3,10.9-14.7,16.9-7.2,9.8-14.1,19.9-21.2,29.9,0-.5,0-2.5,0-3.4.9-20.3,2.2-40.6,6.7-60.5,8.9-38.9,27.4-76.6,56.3-104.7,12.9-12.5,28.1-22.4,44.6-29.5,1.8-.8,3.8-2.4,5.3-3.6,7.9-6,11.2-12.4,10.7-22.5-.6-13.7-15.1-23.1-27.4-25.6-7.1-1.5-14.2-1.6-21.4-.6,4.7-4.5,10.5-7.3,16.5-9.6-11.6-6.9-20.2-16.9-24.3-29.9,20.7,1.2,38.9-1.2,58.5-8-5-7.2-12.1-13.1-18.9-18.5l20.4-.3,19.8-2.6Z"></path><path d="M762.7,101.9c7.8,15.4,12,32.6,13.6,49.7.9,9.8.9,19.6.6,29.5-1.9,61.4-17.4,121.7-42.6,177.6-7.1,15.7-14.8,31.1-23.3,46.1-15.4,27.3-31.6,54.8-47.9,81.6-32,52.5-66.1,103.7-101.1,154.2,10.6,9.3,15.9,21.2,14.6,35.5-.8,8.7-3.7,16.9-8.5,24.2-7.3,11.1-18.3,18.6-31.1,22-11,3-22.5,2.8-33.7,1.3-2.4,3.3-6,5.8-9.7,7.2-3.6,9.5-13.6,15.6-23.8,14.1-9.2-1.1-17.1-9-18.3-18.1-.6-4.6,0-9.2,2.2-13.3l-3.2-12.2c2.7-2.3,6.5-4.5,8-7.8,4.8-10.9,7-22.8,12.2-34,5.9-12.9,13.4-25.1,21-37,.4-.6-.4-1.8-.7-2.3-.3-.4-1.1-1.2-1.5-1.4-5.6-2.6-10.5-3.4-14.1-9.2-3.6-5.9-2.9-13.6,1.4-18.9,6.9-8.4,19.3-6.5,27.7-1.8,4.8,2.7,9.1,6.3,12.7,10.5,15.7-22.3,31-44.9,46.3-67.6.2-.3-.5-.4-.8-.6-44.3,8.2-90.3,9.7-134.5.4-29.5-6.2-57.9-18.1-84.6-31.9-17.5-9-34.5-19.1-52.1-27.9-23.8-11.8-53.8-19.1-80.1-21.6-30.7-3-62.2-.6-91.5,9.1-36.6,12.2-71.6,41.3-95.2,71.9-.4.5-.5-.2-.4-.8,3-18.7,7-37.2,13.4-55.2,11.4-32.1,30.3-63.4,58-84,6.5-4.8,13.2-9.2,20.4-12.9,6.4-3.3,13.7-4.8,20-8.2,1.7-.9,5.9-7.2,7-9.1,6.6-11.2,8.8-24.8,4.2-37-5.4-14.4-20.6-23.3-32.7-31.5-4.5-3-8.6-6.8-12.6-10.4,8.8.4,17.6-.7,26.2-2.6,11.9-2.6,22.3-7.6,34.8-9.8-7.2-6.4-15.7-10.8-24.7-14,17.2-1.4,34.3-5.4,50.4-11.6,7.7-3,14.5-7.8,19.6-14.2,2.5-3.1,5.1-8,2.3-11.4-2.4-3-11.6-1.8-15-1.1,3.8-4.8,9-7.6,14.6-9.7.9-.3-.3-.4-1.2-.4-18.4-.1-36.7,5.2-52.2,15.2-.4.3-.7,0-.4-.5,4-7.3,9.4-13.9,14.7-20.3-5,1.6-10,3.2-15,4.7l-1.3-.3c35.9-28.4,75.6-52.2,120-64.4,47.3-13.1,97.7-10.3,145.1,1.1,20.5,4.9,40.6,11,60.5,17.8,37.9,13,74.4,27.1,113.4,37.3,11.3,3,23.1,4.8,34.8,5.8,19.9,1.6,40.1-.2,59.7-3.6,21.4-3.7,41.9-12.6,61.9-25.4,7.2-24,11.6-47.6,12.6-72.7Z"></path><path class="cls-6" d="M482.7,685.8l-.3,1.6c-1.2,6.4-3.8,12.7-8.8,17.1-1.4,1.2-3.5,1.9-5.4,2-.1-.4-.3-.7-.4-1-.2.5-.4,1-.7,1.5,1.2,3.8,4.1,6.8,7.4,8.8-2,.2-3.7.4-5.4,1.5-2.8,1.8-3.8,5.6-2.8,8.6,1.2,3.5,5.2,5.7,8.8,4.6,2.4-.7,4.7-2.7,5.3-5.3.5-2.8-.3-5.7-2.5-7.6-.6-.5.3-.8,1-.4,2.1,1.2,5.2,1,7.6.5,2-.4,3.5-1.3,5-2.6l-1.2-2.7c-5.9,3.2-12.7,1.4-17.4-3l1.5-.5c5.3.6,13.2-.2,16.8-4.7,7.2,3.9,15.1,5.3,23.2,5.8,11,.7,23.5-1.4,32.5-8.1,9.8-7.2,16.7-20.2,15-32.6-.9-6.7-5-12.5-9.5-17.4-11-11.7-25.9-20.6-37.2-31.9-3.6-3.7-7.5-9.8-11.3-13.2-3.8-3.4-8.5-6.2-13.6-7.2-1.1-.2-1.5.2-2.2,1-.1.9,0,1.3.7,2,6.4,1.7,12.3,4.8,15.5,10.9.9,1.8,2.1,4,2.2,6,.3,3.6.6,9.4,1.8,12.9.9,2.7,2.6,5.6,4.7,7.5,4.4,3.9,9,7.5,13.5,11.2,3.2,2.6,8.5,6.6,12.9,4.6,2.4-1,3.9-2.2,4.9-4.8.6,3.7.4,7.1-2,10.2,4.8,5.4,10.3,12.7,8.7,20.4-2,10-10.3,18.7-20,22-12.5,4.1-26.9,2.1-38.4-4.1l1.2-2.6c-5.5-1.6-9.4-5.3-11.1-10.9Z"></path><path class="cls-6" d="M551.5,631.5c.2.1.3.3.4.4,27.2-40.1,54.1-80.4,80.4-121.1-5,2.1-10,4.1-15.1,5.9-.3.1-.6.3-.8.6-23.7,36.3-47.7,72.3-72,108.1,2.4,2,4.7,4,7.1,6Z"></path><path class="cls-6" d="M485.7,678.2c2.4,5.3,6.1,9.4,11.6,11.6,7.2-12.2,14-23.2,21.6-33.5-3.1-2.5-6.2-5.3-8.9-8.3-1.4-1.6-2.7-3.5-3.7-5.9l-13.2,21.2-7.4,14.8Z"></path><path class="cls-2" d="M526.2,610c19.1-27,37.5-54.5,55.9-82,.3-.4.5-.8.8-1.1l20.7-5.7c.3,0,.4.5.7.7-2.8,4-5.5,8.1-8.3,12.1-19.6,28.4-39.4,56.7-59.3,84.9l-10.4-8.9Z"></path><path class="cls-2" d="M482.7,685.8c-1.1,8.2-4.1,14.4-9.1,18.8-1.4,1.2-3.5,1.9-5.4,2-.1-.4-.3-.7-.4-1,2.3-2.3,4.1-5.3,5.2-8.3,3.5-9.4,5.8-19.1,10.1-29.5-1.7,6.1-2.1,11.9-.5,18Z"></path><path class="cls-2" d="M506.3,642.4c-7.9,11-14.2,22.1-20.7,35.9-1-5.4-1.1-10.4.1-15.9,2.2-5.3,6.4-12.3,9.4-17.4,3.1-5.3,6.4-10.5,9.8-15.6-.3,4.5,0,8.6,1.5,13Z"></path><path class="cls-1" d="M216.6,244.2c5.4-4.4,8.7-7.8,11.9-14.1,2.9-5.7,5-12.5,4.2-18.9-.8-7-6.5-11.4-13.1-12.8-9.7-2-20.2.2-29.5,3.2-.7.2-1.4.3-.9-.2,16.3-15.8,36.7-27.6,57.6-36.1,25.9-10.6,53.7-16.5,81.6-17.9,7.5-.4,15.1-.4,22.7-.3,22.3.3,44.7,3.4,66.5,8.3,9.2,2,18.2,4.3,27.2,7,31.3,9.1,62,20.4,93,30.5,35.8,11.7,72.6,21.4,110.3,22.7,17.2.6,34.8-2.1,51.4-6.3,21.3-5.4,39.6-13.3,57.4-26.3,3.9-2.9,7.6-6.3,11.2-9.7-.7,23.7-2.8,47.3-7.3,70.5-14,71.1-46.7,140-83.9,201.8-8.9,14.8-18,29.5-27.5,44-41.5,19-87.1,30.3-132.7,33.2-8.8.5-17.6.8-26.5.5-7.8-.3-15.6-.7-23.4-1.5-25.1-2.6-51.9-9.3-75.6-17.9-15.9-5.7-31.4-13-46.1-21.2-11.5-6.4-22.5-13.4-34-19.7-16.6-9.1-34.5-15.8-52.9-20.1-28.5-6.8-58.5-8.7-87.7-7.6-27.6,1-55,7.5-80.1,19-13.4,6.1-26.3,13.8-37.8,23.1-.5.4-1.1.6-.9,0,11.5-39.2,35.5-72.8,72.7-90.9,14.4-7,30.2-11,46.1-12.5,8.5-.9,17.2-.9,25.7,0-13.6-5.7-26.9-8-41.6-5.5,6.9-10.6,12-23.3,11.3-36.2-.9-19-15-34.3-31.8-43.8l23-5.3,17.9-6.1c8.3-2.5,17.2-3.6,25.9-4.9-8.1-5.5-17.6-8.5-27-11,15.9-2.9,29.1-8.1,42.7-16.9Z"></path><path class="cls-7" d="M335.1,386.8c-9.9-2-19.9-1.7-30-1.8-5.1,0-8.8,1.2-13.6,1.7-2.9.3-6.3-.5-8.5-2.8-.4.6-4.2,3.3-5.3,4.6-3.1.5-6,1.1-8.9,2.7-4.5,2.6-5.7,7.2-5.5,12,.3,7.5,7.8,12.5,14.8,12,1.6,1.8,3.7,3.1,5.9,4,2.4,5.4,5.9,10.2,10.4,14,7.3,6.1,16.4,8.3,25.7,7.7,9.1-.5,18.4-5.6,22.2-14.2,10.3,22.9,30.2,43.3,54.9,50.2,22.7,6.3,47,2.8,67.7-8.2-.8,6.9.7,13.4,4.8,19,6.4,8.7,17.3,14.2,28,14.3,6.4,0,12.8-1.9,18.4-5,.4,0,.8,0,1.3.2,2,.3,4,.4,6,.3,3.8,2.7,9,4.7,13.6,2.9,5.8-2.2,10-7.9,9-14.3-.6-3.9-3.3-7.1-5.9-9.8-.2-2.3-.8-4.9-1.7-7-2.4.4-5.6-.5-7.4-2.3-3.8-3.6-7.9-7.9-12.1-11.2-7.4-5.8-15.1-11.3-23.5-15.5,1.8-1.4,3.4-3,4.4-5.1,29.6-4.9,64.3-14.4,89.7-30.7,17.2-11,34.5-24.9,44.5-43.1,8.4-15.2,13.5-32,18.4-48.7-15.1,13.8-31.1,26.6-48.2,37.8-15.3,10.1-31.3,19.4-48.4,26.1-25.8,10.2-55.5,15.4-83.1,17.7-8.6.8-17.3,1.1-26,1.5,4.3-1.3,7.9-2.9,11.6-5.5,11-8.2,23.9-15.4,34-24,7.4-6.3,11.3-16.1,14.8-25.1,10.8-5.6,17.4-12.9,22.6-27.1-.9-3.4-1.6-6.6-1.9-10-.9-9.4.9-17.9,6.1-25.8,6.1-13,9.1-26.1,7.3-40.5-2.2-14.3-9.8-26.6-22-34.7-5.8-3.9-13-7.2-23.2-11.2-16.8-6.5-42.8-12.2-60.5-7.3-19.2,5.4-37.4,20.3-42,40.5-2.1,9.1-2.8,18.7-3.2,28,0,1.2-.9,5.6-1.4,6.8-1.2,3.4-5,6-8.1,7.6-.2.5-.3,1-.4,1.5-1.1,10.4-1.1,21.5,4.1,31-1.9,7.4-5.2,21.2-3.3,28.7,3.5,13.3,8.7,26,12.4,39.3,1.8,4.5,3.9,8.5,7,12.3-23.9-19.3-45-39.3-62.8-62.1-10.3-13.2-18.8-27.8-25.7-43.1-12.3-27.1-20.9-56.1-26.1-85.4-8.1,20.9-17.3,47.1-15.1,69.6,1.5,14.9,5.9,32.3,11.8,46.1,11.8,27.5,30.1,51.6,51.3,74.2-.4,2.4-.3,4.6.7,6.9Z"></path><path class="cls-2" d="M470.6,195.6c15.7,3.3,30.4,9,44,18.1,12.9,10.7,18.8,26.8,15.5,43.3-1.5,7.8-4.1,14.7-9,21l-15.5-20.3c2.8,9.9,7.2,17.9,14.4,25.3-1.1,17.2-4,23.2-.7,34.2.1.5-1.2,1.9-1.4,2.3-.2.5-.6.9-1.1.8-1.4,2-3.3,3.7-5.3,5-2.3,1.5-4.8,3.3-7.6,3.4-5.9.3-14.5-3-21.2-3.7-5.3-.5-10.9,1.8-14.3,5.8-.4.4-2,2.7-2.3,3.3l-1.7,5.9c-.6-.2-1.3-.3-1.9-.2-.5,2.4-1.7,8.1-3.3,9.7-2-.6-4.1-1.4-6.2-2.9l2.6-10.4c-.7-.8-1.8-1.5-2.9-1.4l-3.6,10.7c-2.2-.4-4.3-1-7-2.5l3.3-11.2c-1.2-.5-3-1.4-4.5-1.3l-2.8,11.3-8.6-2.2c.9-3.4,1.7-6.8,3-11.3l-2.9-.7-3.7,10.9c-2.7-.9-4.9-1.7-6.7-2.5-.4-2.3,2.3-7.8,3.7-9.8-.4-.4-.9-.8-1.3-1.1,0-.3,0-.6-.1-.9.6-2.1,2-4,2.2-6,.3-2.1-1.2-7.1-2.2-9.1-3.5-7-16.2-11.8-23.3-14.8-2.8-1.2-5.7-8.1-6.4-10.9-.6-2.7-.6-5.5-.5-8.3-.2-.2-.3-.5-.5-.8,3.3-2.5,6.4-5.4,8.3-9.1,2.4-4.7,3.8-10,5-15.1,6.9-1.3,12.8-5,19.1-11l-18.9,5.6c0-8.3,1-15.8,3.6-23.8,6.7-12.1,16.6-20.7,29.6-25.4,11.3-2.1,21.7-2.4,33.1.2Z"></path><path d="M476.7,308.1c1.9,1,3.9,1.8,6,2.4,4.4,1.1,9.1,2,13.6,1.4,6-1.7,10.4-6.7,12.8-12.3,1.5-3.4,1.9-7.9,4.6-10.6-.3-.1-.5-.3-.8-.4-2.9-.5-6.1-.9-9.1-.6-5.1.4-10.1,1.5-15.1,2.1-4.3.5-9,.4-12.8-1.9-2-1.2-3.7-3-5.3-4.7-.2.3-.5.7-.7,1-.4,3.2-.4,6.7,0,9.8.6,3.9,1.4,8.1,3.7,11.3.7,1,1.9,1.9,2.9,2.4Z"></path><path d="M431.3,292.6c.9,0,1.5,0,2.3-.2,7.1-2.4,12.7-8.9,16.4-15.3.1-.2-.4-.3-.5-.4-2.1.3-4.6.7-6.8.5-9.9-1-15.7-11.3-22.7-17.3-2.3-2-4.9-3.5-7.5-4.9-.2.3-.4.6-.5.9-1.4,4.4-2.9,10.4-3.5,15.1-.4,3.6.3,7.4,2.1,10.6,0,0,1,1.4,1,1.5.7.8,1.5,1.6,2.4,2.3,4.3,3.1,9.2,5.6,14.3,6.8,1,.3,2,.4,3,.4Z"></path><path d="M458.7,295.9c-1.3-1.7-3.2-3-5.5-2.8-.8.3-1.5.7-2.2,1.3-1,1.8-2.3,4.5-3.6,6.1-1.8,2.2-4.1,4.5-6.1,6.4-1.2,1.3-2.2,3.1-2.2,5,0,1.1.6,2.5,1.7,3,.1.2.3.3.4.4,2.4,1.7,7.1.7,7.3-2.4.4-1,1.9-.4,1.4.6-.8,2.2,0,5.1,2.6,5.9.7.2,1.5.4,2.2.3,1.2-.2,2.4-.6,3.1-1.6,1.3-1.3,1.9-2.8,1.8-4.7-.3-2.3-1.3-5.2-1.5-7.6-.2-2.4.1-6.1.8-8.3.2-.5.2-1-.1-1.5Z"></path><path class="cls-2" d="M298.8,401.9c3-4.4,7.4-7.5,12.3-7.8,6.6-.4,15.5.9,22.1,2-3.2,1.4-5.7,3.2-7.7,6.1l-15.5-.8-11.1.5Z"></path><path class="cls-2" d="M283.9,226.3c4.6,13.8,8.1,26.4,13,38.7,14.4,35.7,36.8,67.4,64,94.6,7.6,7.7,15.8,14.8,24.1,21.8l-10,2.2c-51.1-37.8-83.9-93.9-91.2-157.2Z"></path><path class="cls-2" d="M287.7,395.8c5.5.3,11.1-.9,16.5-1.6.5,0,.9.4,1.4.7-3.9,1.1-7.8,3.1-9.7,6.8-.2,0-.4,0-.5,0-.3,0-.6.2-.8.4-4.3,0-7.9-2.5-9.9-6.1,2.7-.3.6,1,3.1-.2Z"></path><path class="cls-2" d="M445.2,354.5c-1.4,4.2-2.6,7.2-4,10.1l5.3.9c.8-3.9,1.2-5.7,2.5-9.4,2-.5,5.4.6,7.2,1.7l-3.7,8.1,3.6.4,3.9-9c2.8,1.1,3.4,4.4,3.3,7,2.6-1.4,5.1-2.8,7.2-4.8,3.1-3,5.8-6.4,9.1-9.2,1-.8,2.5-1.1,3.8-1.2.5,0,1,0,1.5.3,2,1.1,3.7,2.9,4.6,5-2.6,2.4-5.3,4.7-8.4,6.3-10.1,5.3-19.1,10.1-28.7,16.3-1.8,1.1-3.9,1.6-5.9,2.1-7.6-8.9-23.9-13.7-35.2-11.4-1.4-1.5-2.9-3.1-3.7-5.1-3.9-10.3-8.3-20.3-13.1-30.2-1.2-2.7-2-5.7-3-8.3-.2-.6-.3-1.7-.1-2.3.2-.2.3-.4.5-.5.2-.2.5-.4.8-.4,2-.6,4-.8,6-.5.4,0,.8.3,1.1.7.7.6,1.2,1.5,1.7,2.3,1.1,1.5,2.1,11.8,2.4,14.3.4,2.8,1.6,5.4,2.7,7.9,1.3-2.5,2.6-4.3,5.2-5.5,1,3.8,1.1,7.8-.6,11.5.9,1.1,2,2.2,3.3,3,0-3.4,1.6-6.5,2.9-9.6,1.8.7,3.7,1.5,5.7,3l-2.6,9.6c1.1.7,2.7,1.5,3.9,1.7l2.1-10.6c2.4.3,4.5.9,6.6,2.1-.6,3.7-1.5,7.4-2.7,10.9,1.3.8,2.7,1.4,4.2,1.5.7-3.4,1.7-6.6,3.4-10.7,2.5.3,4.8.9,7,2.2Z"></path><path class="cls-2" d="M515.3,474.4c-7.1-6-13.7-11.1-21.5-16.7-.4-2.9-1-5.5-2-8.3,6.4,3.6,13.2,7.2,19.8,12.6,2.6,3.9,3.9,7.7,3.7,12.4Z"></path><path class="cls-2" d="M524.6,473.6c2.9,3.3,4.7,3.7,6.2,4.5-1.2.8-3,1.4-4.3,1.6-3,.4-6-.8-8.3-2.6-.2-.2-.3-.4-.5-.5.3-1.5.2-3-.1-4.5-.3-1.3-.6-3-5-9.3,4.4,3.4,8.4,6.7,12,10.9Z"></path><path class="cls-2" d="M465.9,413.6l-6.6-7.7c41.2-1.6,82.1-10.6,119.4-28.4,19.9-9.5,38.4-21.8,55-36.1-42.3,48-103.7,75.1-167.8,72.2Z"></path><path class="cls-1" d="M348.6,407.8c-.3.4,0,.2.3,0,.8-.7,1.7,0,1.1.8-2.7,3.6,3.5,12.8,5.6,15.9,11.1,16.7,27.7,29.9,47,35.7,20,6,42.2,3.8,61.2-4.6,3.5-1.5,6.7-3.5,7.2-7.6.3,0,.7-.1,1.1-.2.1,1.4,0,2.6-.6,3.9-3.5,7.9-22.1,15.1-30.3,17.1-19.1,4.8-37.7,3.4-55.2-6-13.1-7-24.2-18.7-31.5-31.6-3.2-5.6-6.1-11.7-6.9-18.1-.2-1.7.1-3.1,1.2-5.3Z"></path><path class="cls-5" d="M348.6,407.8c.2-.2.2-.5.4-.8,10.2-11,30.6-16.9,45.2-17.9,15.4-1.1,30.8,2.5,43.8,11,15.8,10.2,30.1,27.5,33.9,46.2,0,.2,0,.5,0,1.4-.4,0-.8,0-1.1.2-.4,4.1-3.7,6.1-7.2,7.6-19,8.4-41.2,10.6-61.2,4.6-19.3-5.8-35.8-19-47-35.7-2.1-3.1-8.3-12.3-5.6-15.9.6-.8-.3-1.5-1.1-.8-.3.3-.5.5-.3.1Z"></path><path d="M387.5,405.1c-11-.5-21.3-.7-32.3.8h2c8.9.5,17.7,1.4,26.5,3,.2,0,.5,0,1,.2l2.8-3.9Z"></path><path d="M441.9,428.7c8.9,4.3,17.1,8.7,25.1,14.6-7.8-7.6-15.4-13.9-24.6-19.7l-.4,5.1Z"></path><path class="cls-2" d="M441.9,429.6l-3-1.4c-.4,2.6-1.1,5.2-2,7.6l-5.4-2.9c.8-2.4,1.5-4.9,1.8-7.3l-5.5-2.4-1.9,7-5.6-2.5,1.9-6.7-5.7-2.1-2.1,6.6-5.8-1.9,2.3-6.5-5.8-1.8-2.6,6.5-5.8-1.4,2.6-6.6-6-1.5-2.9,6.9-6.1-.9,3-7.2-3.6-.7,3.8-5.2,3.3.2,3.1-4.1,5.6.8-2.9,4.2,5.7,1.3,2.6-4.4,5.1,1.2-2.2,4.5,5.5,1.6,1.8-4.7,4.8,1.7-1.4,4.7,5.3,2,1-4.9,4.7,2.1-.5,5,5.2,2.4.4-4.9,4.8,2.6v5.3c.1,0,2.8,1.9,2.8,1.9l-.5,5.9Z"></path><path class="cls-6" d="M463,275c-5-1.3-9.2-5.1-12.9-8.5-3.6-3.4-7-7.3-10.6-10.7-4-3.7-8.8-6.8-13.4-9.7-.4-.3.9-.5,1.3-.5,7.9-.3,24,14.3,30.2,19.6,3.5,3,8.3,4.5,12.9,4.4,9-.3,18.2-1.4,27.2-.4,3.8.4,7.6,1.6,10.6,4.2-5.8-.5-11.6-.9-17.4-.4-6.6.6-13,2.2-19.6,2.4-2.8,0-5.6,0-8.3-.6Z"></path><path class="cls-3" d="M412.4,255c-.2.3-.4.6-.5.9-1.4,4.4-2.9,10.4-3.5,15.1-.4,3.6.3,7.4,2.1,10.6,0,0,1,1.4,1,1.5-1.6-.3-2.6.4-3,1.5-.3,1,0,2.5.2,3.5-4.5-3.5-5.7-8.6-5-14.1.8-6.9,3.8-13.4,7.1-19.4.5.1,1.1.3,1.6.4Z"></path><path class="cls-3" d="M496.3,312c6-1.7,10.4-6.7,12.8-12.3,1.5-3.4,1.9-7.9,4.6-10.6.8,0,1,.4,1,.8-.6,5.8-2.2,12.2-4.9,17.4-2.2,4.3-5.6,8.7-10.5,9.9-.2,0-1.3.2-1.5.3-1.2.1-2.5.2-1.5-.3,1.1-.6,2.2-1.7,2.3-3,0-.7-.1-1.3-.4-1.9-.6,0-1.2-.1-1.8-.2Z"></path><path class="cls-3" d="M431.3,292.5c.9,0,1.4,0,2.2-.2,7.1-2.4,12.7-8.9,16.4-15.3.1-.2-.4-.3-.5-.4.3-.4.6-.4.9-.4.2,0,.4,0,.6,0,3.2,3.9,13.1,7.2,18.1,6.4.4.3,1,.3,1.5.9-.2.3-.5.7-.7,1-.4,3.2-.4,6.7,0,9.8.6,3.9,1.4,8.1,3.7,11.3.7,1,1.9,1.9,2.9,2.4-.6.1-1.3.2-1.5.6-.5,1.3.2,3.6.6,4.8-11-4.6-9.5-13.5-11.7-23.7-.8-3.8-4.9-6.5-8.6-6.1-1.5.1-3.4.6-4.5,1.7-4.3,3.9-8.1,8.3-12.9,11.5-2.8,1.9-7.8,1.3-10.8.4,2.1-.8,3.7-2.5,4-4.8Z"></path><path class="cls-6" d="M453.1,293.1c-1.5.7-2,.9-2.1,1.4-1.1,1.7-2.4,4.4-3.7,6-1.8,2.2-4.1,4.5-6.1,6.4-1.2,1.2-2.2,3-2.2,4.9,0,1.1.6,2.5,1.7,3-.2.3-.5.5-.7.8-.5,1,.4,2.9.8,3.8-5.3-2.4-6.5-7.7-3.3-12.1,1.1-1.5,5.1-4.4,6.6-6,2.5-2.7,2.8-6.5,6.7-7.9.8-.3,1.4-.3,2.3-.2Z"></path><path class="cls-6" d="M460.5,298.7c.3,2.2-.4,5-.5,7,0,2.1,1.4,7.7,1.7,9.8-.1,3.9-4.4,9-8.8,6.8,1.5-.4,1.7-1.7,1.9-2.8,1.2-.2,2.4-.6,3.1-1.6,1.3-1.3,2-2.8,1.8-4.7-.3-2.3-1.3-5.2-1.5-7.6-.2-2.4.1-6.1.8-8.3.2-.6.2-1-.2-1.5.9.7,1.6,1.7,1.8,2.8Z"></path><path class="cls-3" d="M437.4,195.4c-10.8,3.3-19.9,10.3-26.5,19.5-6.9,9.7-6.7,18.7-6.7,29.6.2-.1,1.3-.3,13.8-4.2-.6-8.3-.6-15.9,2.6-23.2,4-9.1,11.1-15.9,20.5-19.8,7.3-2.7,14.4-3.9,22.3-3.1-9-.9-17.2-.8-26,1.1Z"></path><path class="cls-6" d="M530.3,256.7c.5-5.3.8-10.2.4-15.6-2.6-14-11.2-26.2-24.1-32.4,3.7,3.1,5.8,5.1,7.8,7.2,8.4,8.7,10.6,19.7,7.5,30.7-2.1,7.2-5.9,11.2-12,17.1l11.3,14.5c4.5-6.7,7.5-13.5,9.2-21.4Z"></path><path class="cls-3" d="M391.6,323.8c-.6-2.2.2-2.6.2-2.5.4-.3.6-.5.9-.6,2-.6,4-.8,6-.5.4,0,.8.3,1.1.7-1.1-2.6.4-12.9.9-16.2l-5.5-2.8c-2.8,6.5-4.3,12.5-4.8,19.6l12,40.5c2.3,6.3,5.8,12,10.9,15.5,11.1,7.6,28.5,12.6,40.5,3.9,10.2-7.4,22-14.5,31.7-22.2,6.4-5.1,9.9-15.2,13.1-22.7l-6.1-1.1c-2.1,3.7-5.8,10.9-9.3,13.5.5,0,1,0,1.5.3,2,1.1,3.7,2.9,4.6,5-2.6,2.4-5.3,4.7-8.4,6.3-10.1,5.3-19.1,10.1-28.7,16.3-1.8,1.1-3.9,1.6-5.9,2.1-7.6-8.9-23.9-13.7-35.2-11.4-1.4-1.5-2.9-3.1-3.7-5.1-3.9-10.3-8.3-20.3-13.1-30.2-1.2-2.7-2-5.7-3-8.4Z"></path><path class="cls-3" d="M390.7,274c-.2.5-.5,1-.5,1.5-.6,7.3-.5,18.5,7,22.2,6.4,3.2,13,5.9,18.9,10,3.9,2.7,7.1,6.7,6.3,11.6-1.3-2-3.1-3.9-5-5.4-1.4,3.8-3.4,7.1-5.2,10.7-1.9,4-1,7.8.8,11.7,2.1-3.1,4.6-7.2,4.3-11.1.7-.4,1-.6,1.7-.7.5,0,1,0,2.2.3,0-.3,0-.6-.1-.9.6-2.1,2-4,2.2-6,.3-2.1-1.2-7.1-2.2-9.1-3.5-7-16.2-11.8-23.3-14.8-2.8-1.2-5.7-8.1-6.4-10.9-.6-2.7-.6-5.5-.5-8.3-.2-.2-.3-.5-.5-.7Z"></path><path class="cls-3" d="M341.3,391.9c-1.4,1.3-10.3,8.1-11.4,11.4-1.4,4.4-2.6,9-3.1,13.6-.3,3,2.5,4.5,5,5.5-2,.6-4,1.2-5.9.3-.7,1.5-2,3.2-3.4,4.1-4,2.6-9.1,2.4-13.6.9-9-3.2-15.6-11.5-17.1-20.9l3.9-.3c-.6-.9-.9-2.2-.6-3.2,0-.3.2-.5.7-1.5-.2,0-.4,0-.5,0-.3,0-.6.2-.8.4-4.3,0-7.9-2.5-9.9-6.1,2.7-.3.6,1,3.1-.2-1.3-.4-2.5-.8-3.8-.6-1.5,1.4-2.3,3.5-3,5.4-1-1.4-2-2.3-3.8-2.5-1.8,0-3.7,1-4.2,2.9-.8,2.9,1.7,6.3,5,5.4,1.6-.4,2.6-1.7,3.2-3.2.7,2.6,1.7,5.2,4.2,6.6l1.4-1.2c-2.7-2.5-3.6-5.7-2.7-9.3.2-.8.6,0,.8.8.7,3.1,2.2,5.6,4.8,7.5,1,4.1,2.7,8,5.1,11.6,4.5,6.6,11.1,10.4,18.8,12.1,7.3,1.6,16.7,0,20.1-7.5,3.6-8.2,4.3-17.3,7.7-25,2.3-5.3,6.5-11.3,4.1-18.5l-1.7.5c1,4.1.3,7.8-2.2,11.2Z"></path><path class="cls-3" d="M298.9,401.9c-.6,1.8-.7,2.8-.1,4.7,8.1.3,16.2,1.4,24.1,3.2.6-2.6,1.7-4.9,2.7-7.6l-16-.8-10.6.5Z"></path><path class="cls-6" d="M283.8,225.6c-1.5,4.9-2.2,10-2.6,15.1-1.1,14.6.5,29.8,4.8,43.8,10.2,33.6,29.1,62,54,86.8,6.2,6.2,12.8,12,19.2,17.9l9.5-3.8c-46.7-42-76.2-97.6-84.8-159.8Z"></path><path class="cls-6" d="M469.8,419.1l5.2,8.7c1.8-.1,3.6-.2,5.4-.3,32.8-2.2,65.2-10.1,94.5-25.3,22.3-11.6,46.7-32.5,57.1-55.6.2-.4.3-.8,1.5-4.8-42.9,46.5-100.5,73.9-163.6,77.3Z"></path><path class="cls-6" d="M464.7,352.8c2.3-1.4,5.2-3.5,6-6.3,1.4-4.5,2-9.2,3-13.8-.3,0-.7-.3-7.6,1.2l-1.8,5.7,1.6.8,1.5,1c-2.7,3.4-3.7,7.2-2.8,11.4Z"></path><path class="cls-6" d="M468.3,330.7c3.6-1.5,7.4-2.5,11.3-2.1,7.6.6,15.6,3.5,22.7,3.7,3,0,5.2-1.5,7.6-3.3,2.7-2.2,4.9-4.8,6.8-8.8-1.4,2-3.3,3.7-5.3,5-2.3,1.5-4.8,3.3-7.6,3.4-5.9.3-14.5-3-21.2-3.7-5.3-.5-10.9,1.8-14.3,5.8Z"></path><path class="cls-4" d="M517.7,476.6c-.1.3-.2.7-.3,1-.3.8-1.6,2.3-2.2,2.7.9.7,1.8,1.5,2.7,2.3-.6.6-1.3,1.2-2,1.8-7.4,5.5-17,7.5-25.7,4.1-5.5-2.2-10.3-7-9.1-13.4-1.7-1-3.1-1.9-4-3.8l1.1-.3c1.9,1,4.2.5,5.4-1.2,2.7-3.9,4.2-8.5,6-12.8.7-1.7,1.1-4.3.4-6-.8-2.4-3.2-8.1-3-10.6.3-3.7,2.1-7.3,5.3-9.4l-.9-1.7c-2.7,1.9-4.8,5-5.9,8.1-1.3,3.7-1.4,7-2.5,10.6-2.1,7-5.5,13.5-7.9,20.4-.7,2.1-1,4.6-.9,6.8.6,7,6.4,11.3,12.2,14.3,10.9,5.7,23.8,2.6,32.9-4.9,3.2.4,6.4-1.2,8.6-3.3.2.3.6.5.5.8-1.5,2.8-4,5.1-7.4,5.2-.2.5-.4,1.1-.6,1.7,2.7.7,5.5-.3,7.5-2.2.3,1.5.5,3.2,1.7,4.2,1,.9,2.2,1.3,3.6,1,2.1-.5,3.6-2.5,3.2-4.7-.4-2.4-3.2-4.4-5.5-3.3-.5.3-.8,0-.6-.5.6-1.4.8-3,.7-4.5,0-.2,0-.3-.3-.8-1.2.8-3,1.4-4.3,1.6-3,.4-6-.8-8.3-2.6-.2-.2-.3-.4-.5-.6Z"></path><path class="cls-6" d="M493.6,457.6c.1,3-1.3,6.1-2.4,8.8,7.3,3.4,14.3,7.3,21,11.8.4-.2,1.1-.6,1.4-.9.8-.6,1.3-1.8,1.6-2.9l-21.6-16.7Z"></path><path class="cls-6" d="M513.7,690.6c2.5.2,5,.2,7.5,0,6.2-.6,11.7-3.9,14.1-9.9,2.1-5.2-3.3-9.8-7.4-11.9-5.2,6.9-9.9,14.3-14.2,21.8Z"></path></g></g></g></svg>